<svg xmlns="http://www.w3.org/2000/svg" xmlns:xlink="http://www.w3.org/1999/xlink" viewBox="0 0 324.07 103.48"><defs><style>.cls-1{fill:none;}.cls-2{isolation:isolate;}.cls-3{fill:#3c3c3b;}.cls-4,.cls-5{opacity:0.1;}.cls-4,.cls-5,.cls-8{mix-blend-mode:multiply;}.cls-4{fill:url(#radial-gradient);}.cls-5{fill:url(#radial-gradient-2);}.cls-6{fill:url(#Nueva_muestra_de_degradado_1);}.cls-7{fill:url(#linear-gradient);}.cls-8{fill:url(#radial-gradient-5);}.cls-9{fill:url(#linear-gradient-2);}.cls-10{fill:url(#linear-gradient-3);}.cls-11{fill:url(#linear-gradient-4);}.cls-12{fill:url(#linear-gradient-5);}.cls-13{fill:#fcc89c;}.cls-14{fill:url(#linear-gradient-6);}.cls-15{fill:url(#linear-gradient-7);}.cls-16{fill:url(#linear-gradient-8);}.cls-17{fill:url(#linear-gradient-9);}.cls-18{fill:url(#linear-gradient-10);}.cls-19{fill:url(#linear-gradient-11);}.cls-20{fill:#f89500;}.cls-21{fill:#e88707;}.cls-22{fill:#4b190d;}.cls-23,.cls-34{fill:#fff;}.cls-24{fill:#411611;}.cls-25{fill:#faedeb;}.cls-26{clip-path:url(#clip-path);}.cls-27{fill:url(#linear-gradient-12);}.cls-28{fill:url(#linear-gradient-13);}.cls-29{fill:url(#linear-gradient-14);}.cls-30{fill:url(#linear-gradient-15);}.cls-31{fill:#c49474;}.cls-32{fill:url(#linear-gradient-16);}.cls-33{fill:url(#linear-gradient-17);}.cls-34{opacity:0.2;}.cls-35{fill:url(#linear-gradient-18);}</style><radialGradient id="radial-gradient" cx="39.81" cy="62.14" r="43.79" gradientTransform="translate(4.44 -1.49) scale(0.99 0.99)" gradientUnits="userSpaceOnUse"><stop offset="0.2" stop-color="#4a4a49"/><stop offset="0.31" stop-color="#545453"/><stop offset="0.49" stop-color="#5f5f5e"/><stop offset="0.69" stop-color="#636362"/><stop offset="0.73" stop-color="#696968"/><stop offset="0.79" stop-color="#7b7b7a"/><stop offset="0.85" stop-color="#999998"/><stop offset="0.93" stop-color="#c2c2c1"/><stop offset="1" stop-color="#f2f2f2"/></radialGradient><radialGradient id="radial-gradient-2" cx="39.81" cy="62.14" r="43.79" gradientTransform="translate(4.44 -1.49) scale(0.99 0.99)" gradientUnits="userSpaceOnUse"><stop offset="0.2" stop-color="#4a4a49"/><stop offset="0.31" stop-color="#545453" stop-opacity="0.8"/><stop offset="0.49" stop-color="#5f5f5e" stop-opacity="0.57"/><stop offset="0.69" stop-color="#636362" stop-opacity="0.5"/><stop offset="0.72" stop-color="#686867" stop-opacity="0.52"/><stop offset="0.77" stop-color="#757574" stop-opacity="0.56"/><stop offset="0.83" stop-color="#8b8b8a" stop-opacity="0.64"/><stop offset="0.89" stop-color="#aaaaa9" stop-opacity="0.75"/><stop offset="0.95" stop-color="#d0d0d0" stop-opacity="0.88"/><stop offset="1" stop-color="#f2f2f2"/></radialGradient><linearGradient id="Nueva_muestra_de_degradado_1" x1="-1.02" y1="95.56" x2="96.91" y2="17.65" gradientUnits="userSpaceOnUse"><stop offset="0" stop-color="#89c33f"/><stop offset="0.16" stop-color="#7fc053"/><stop offset="0.48" stop-color="#65b885"/><stop offset="0.94" stop-color="#3babd6"/><stop offset="1" stop-color="#36a9e1"/></linearGradient><linearGradient id="linear-gradient" x1="0.04" y1="59.5" x2="88.58" y2="59.5" gradientUnits="userSpaceOnUse"><stop offset="0" stop-color="#89c33f"/><stop offset="0.21" stop-color="#78b653"/><stop offset="0.62" stop-color="#4b9485"/><stop offset="1" stop-color="#1d71b8"/></linearGradient><radialGradient id="radial-gradient-5" cx="52.8" cy="19.79" r="51.57" gradientTransform="translate(-8.29 50.38)" gradientUnits="userSpaceOnUse"><stop offset="0.06" stop-color="#4a4a49" stop-opacity="0.8"/><stop offset="0.08" stop-color="#50504f" stop-opacity="0.81"/><stop offset="0.35" stop-color="#9d9d9c" stop-opacity="0.95"/><stop offset="0.48" stop-color="#bcbcbb"/><stop offset="0.53" stop-color="#c8c8c7"/><stop offset="0.7" stop-color="#e6e6e6"/><stop offset="0.84" stop-color="#f8f8f8"/><stop offset="0.94" stop-color="#fff"/></radialGradient><linearGradient id="linear-gradient-2" x1="11.89" y1="88.22" x2="43.98" y2="56.13" gradientUnits="userSpaceOnUse"><stop offset="0" stop-color="#af5b2b"/><stop offset="0.25" stop-color="#b25c29"/><stop offset="0.41" stop-color="#ba6124"/><stop offset="0.54" stop-color="#c9691c"/><stop offset="0.66" stop-color="#dd730f"/><stop offset="0.76" stop-color="#f78100"/><stop offset="1" stop-color="#f89500"/></linearGradient><linearGradient id="linear-gradient-3" x1="10.36" y1="35.69" x2="61.2" y2="35.69" gradientUnits="userSpaceOnUse"><stop offset="0" stop-color="#af5b2b"/><stop offset="1" stop-color="#f89500"/></linearGradient><linearGradient id="linear-gradient-4" x1="25.29" y1="101.8" x2="25.29" y2="32.14" gradientUnits="userSpaceOnUse"><stop offset="0" stop-color="#f89500"/><stop offset="0.12" stop-color="#e5860b"/><stop offset="0.31" stop-color="#cd7319"/><stop offset="0.51" stop-color="#bc6623"/><stop offset="0.73" stop-color="#b25e29"/><stop offset="1" stop-color="#af5b2b"/></linearGradient><linearGradient id="linear-gradient-5" x1="24.79" y1="79.43" x2="24.79" y2="50.64" gradientUnits="userSpaceOnUse"><stop offset="0" stop-color="#af5b2b"/><stop offset="0.27" stop-color="#ac5a2a"/><stop offset="0.5" stop-color="#a25526"/><stop offset="0.7" stop-color="#914e20"/><stop offset="0.89" stop-color="#794317"/><stop offset="1" stop-color="#683c11"/></linearGradient><linearGradient id="linear-gradient-6" x1="25" y1="124.24" x2="25" y2="94.11" gradientTransform="translate(-0.75 -94.33) rotate(1.1)" gradientUnits="userSpaceOnUse"><stop offset="0" stop-color="#f78100"/><stop offset="0.11" stop-color="#e5780b"/><stop offset="0.3" stop-color="#cd6b19"/><stop offset="0.51" stop-color="#bc6223"/><stop offset="0.73" stop-color="#b25d29"/><stop offset="1" stop-color="#af5b2b"/></linearGradient><linearGradient id="linear-gradient-7" x1="15.8" y1="15.2" x2="28.5" y2="15.2" gradientUnits="userSpaceOnUse"><stop offset="0" stop-color="#af5b2b"/><stop offset="0.27" stop-color="#b25d29"/><stop offset="0.49" stop-color="#bc6223"/><stop offset="0.7" stop-color="#cd6b19"/><stop offset="0.89" stop-color="#e5780b"/><stop offset="1" stop-color="#f78100"/></linearGradient><linearGradient id="linear-gradient-8" x1="56.77" y1="272.88" x2="56.77" y2="250.59" gradientTransform="translate(-8.99 -243.89) rotate(2.87)" xlink:href="#linear-gradient-6"/><linearGradient id="linear-gradient-9" x1="29.8" y1="20.19" x2="39.38" y2="20.19" xlink:href="#linear-gradient-7"/><linearGradient id="linear-gradient-10" x1="9.37" y1="41.69" x2="64.6" y2="41.69" gradientUnits="userSpaceOnUse"><stop offset="0" stop-color="#f78100"/><stop offset="0.04" stop-color="#f78400"/><stop offset="0.28" stop-color="#f89100"/><stop offset="0.5" stop-color="#f89500"/><stop offset="0.63" stop-color="#f9a530"/><stop offset="0.8" stop-color="#fbb86a"/><stop offset="0.93" stop-color="#fcc38e"/><stop offset="1" stop-color="#fcc89c"/></linearGradient><linearGradient id="linear-gradient-11" x1="9.38" y1="40.59" x2="64.63" y2="40.59" gradientUnits="userSpaceOnUse"><stop offset="0" stop-color="#f78100"/><stop offset="0.27" stop-color="#f78300"/><stop offset="0.42" stop-color="#f88b00"/><stop offset="0.51" stop-color="#f89500"/><stop offset="1" stop-color="#f7a231"/></linearGradient><clipPath id="clip-path"><path class="cls-1" d="M33.81,78.56s-6.29,7.09-1.35,14.27c0,0,3.54,4.54,10.72,3.7l1.94-.38L67.2,91l7.72-15.79s-16.43-12-16.61-12.22-8.66-7.08-8.83-7.08-9.59-3-9.83-2.81-4.27,8-4.27,8.19S33.81,78.56,33.81,78.56Z"/></clipPath><linearGradient id="linear-gradient-12" x1="36.31" y1="66.37" x2="44.42" y2="66.37" gradientTransform="matrix(1, 0, 0, 1, 0, 0)" xlink:href="#linear-gradient-6"/><linearGradient id="linear-gradient-13" x1="36.18" y1="66.31" x2="44.54" y2="66.31" xlink:href="#linear-gradient-7"/><linearGradient id="linear-gradient-14" x1="46.41" y1="67.41" x2="52.44" y2="67.41" gradientTransform="matrix(1, 0, 0, 1, 0, 0)" xlink:href="#linear-gradient-6"/><linearGradient id="linear-gradient-15" x1="46.29" y1="67.36" x2="52.57" y2="67.36" xlink:href="#linear-gradient-7"/><linearGradient id="linear-gradient-16" x1="43" y1="111.98" x2="43" y2="72.21" gradientUnits="userSpaceOnUse"><stop offset="0" stop-color="#f89500"/><stop offset="0.04" stop-color="#ea8a08"/><stop offset="0.13" stop-color="#d47915"/><stop offset="0.23" stop-color="#c36b1f"/><stop offset="0.35" stop-color="#b86226"/><stop offset="0.52" stop-color="#b15c2a"/><stop offset="1" stop-color="#af5b2b"/></linearGradient><linearGradient id="linear-gradient-17" x1="38.65" y1="79.03" x2="65.67" y2="79.03" gradientUnits="userSpaceOnUse"><stop offset="0" stop-color="#f89500"/><stop offset="0.14" stop-color="#f89a0f"/><stop offset="0.41" stop-color="#f9a635"/><stop offset="0.77" stop-color="#fbba72"/><stop offset="1" stop-color="#fcc89c"/></linearGradient><linearGradient id="linear-gradient-18" x1="37.17" y1="78.89" x2="65.9" y2="78.89" xlink:href="#linear-gradient-11"/></defs><title>Mesa de trabajo 1</title><g class="cls-2"><g id="Capa_1" data-name="Capa 1"><path class="cls-3" d="M109,62.63a4,4,0,0,0,.83,2.3q1.14,1.21,4.2,1.21a6.43,6.43,0,0,0,2.86-.53,1.71,1.71,0,0,0,1.06-1.6,1.72,1.72,0,0,0-.85-1.56,35,35,0,0,0-6.35-1.83,13.19,13.19,0,0,1-5.58-2.45A5.31,5.31,0,0,1,103.54,54a7.24,7.24,0,0,1,2.53-5.53q2.53-2.31,7.12-2.31a13.09,13.09,0,0,1,7.1,1.74q2.74,1.74,3.15,6h-6.07A3.59,3.59,0,0,0,116.7,52a4.17,4.17,0,0,0-3.42-1.24,4.92,4.92,0,0,0-2.83.62,1.78,1.78,0,0,0-.84,1.45,1.58,1.58,0,0,0,.9,1.51,38.87,38.87,0,0,0,6.34,1.68,11.64,11.64,0,0,1,5.44,2.58A5.86,5.86,0,0,1,124.08,63a7.05,7.05,0,0,1-2.57,5.64q-2.57,2.18-8,2.18t-8.1-2.31a7.51,7.51,0,0,1-2.62-5.89Z"/><path class="cls-3" d="M143.47,47.29a9.46,9.46,0,0,1,4,3.44,11.42,11.42,0,0,1,1.85,4.8,29.78,29.78,0,0,1,.2,4.61H132.62q.14,3.49,2.43,4.9a6.17,6.17,0,0,0,3.35.87A4.72,4.72,0,0,0,143,63.24h6.2a7.57,7.57,0,0,1-2.25,4.2q-3.12,3.39-8.74,3.39A12.66,12.66,0,0,1,130,68q-3.54-2.86-3.54-9.3,0-6,3.2-9.26A11.2,11.2,0,0,1,138,46.2,13.23,13.23,0,0,1,143.47,47.29Zm-9.08,5.25a6.3,6.3,0,0,0-1.62,3.59h10.46a5.06,5.06,0,0,0-1.62-3.67A5.32,5.32,0,0,0,138,51.2,4.81,4.81,0,0,0,134.39,52.53Z"/><path class="cls-3" d="M166.28,55.15a5.36,5.36,0,0,0-.87-2.34,3.68,3.68,0,0,0-3.18-1.41,4.19,4.19,0,0,0-4.21,3,12.63,12.63,0,0,0-.6,4.29,11.62,11.62,0,0,0,.6,4.1,4.06,4.06,0,0,0,4.1,2.9,3.62,3.62,0,0,0,3-1.15,5.71,5.71,0,0,0,1.09-3h6.2a10.16,10.16,0,0,1-2,5.24q-2.86,4-8.47,4t-8.25-3.32a13.42,13.42,0,0,1-2.64-8.62q0-6,2.92-9.3A10.18,10.18,0,0,1,162,46.26a12.15,12.15,0,0,1,7.16,2q2.78,2,3.29,6.92Z"/><path class="cls-3" d="M182.49,46.82v14a7.37,7.37,0,0,0,.47,3,3.23,3.23,0,0,0,3.24,1.77,4.24,4.24,0,0,0,4.24-2.51,9.17,9.17,0,0,0,.59-3.6V46.82h6.16V70h-5.9V66.76c-.06.07-.2.28-.43.64a4.3,4.3,0,0,1-.81.94,8.42,8.42,0,0,1-2.75,1.75,9.35,9.35,0,0,1-3.11.47q-5.14,0-6.93-3.71a14.22,14.22,0,0,1-1-6v-14Z"/><path class="cls-3" d="M215.78,46.27l.52,0v6.22q-.58-.06-1-.09l-.72,0q-3.67,0-4.92,2.39a9.28,9.28,0,0,0-.7,4.13V70h-6.11V46.82h5.8v4a12.89,12.89,0,0,1,2.45-3.18,6.67,6.67,0,0,1,4.43-1.43Z"/><path class="cls-3" d="M234.77,47.29a9.46,9.46,0,0,1,4,3.44,11.42,11.42,0,0,1,1.85,4.8,29.78,29.78,0,0,1,.2,4.61H223.92q.14,3.49,2.43,4.9a6.17,6.17,0,0,0,3.35.87,4.72,4.72,0,0,0,4.62-2.66h6.2a7.57,7.57,0,0,1-2.25,4.2q-3.12,3.39-8.74,3.39A12.66,12.66,0,0,1,221.35,68q-3.54-2.86-3.54-9.3,0-6,3.2-9.26a11.2,11.2,0,0,1,8.31-3.22A13.23,13.23,0,0,1,234.77,47.29Zm-9.08,5.25a6.3,6.3,0,0,0-1.62,3.59h10.46a5.06,5.06,0,0,0-1.62-3.67,5.32,5.32,0,0,0-3.6-1.25A4.81,4.81,0,0,0,225.69,52.53Z"/><path class="cls-3" d="M269.83,69.88q0,.35-.53.77a1.59,1.59,0,0,1-.89.41h-4.64l-.28,0-.28,0a3.87,3.87,0,0,1-.57-.06,4,4,0,0,0-.57-.06,8,8,0,0,1-2.12-.31q-1.53-.43-1.53-1t.65-.85a2.38,2.38,0,0,1,1.16-.37,5,5,0,0,1,.94.18,5,5,0,0,0,.94.18h.28a.16.16,0,0,0,0-.12q0-.71-4.84-8.26-.59-1-2.12-3.62a33.59,33.59,0,0,0-3.26,3.18c0,.21-.22.41-.67.61s-.68.39-.71.57t-.31,5.07a3.3,3.3,0,0,1-.1.63,3.23,3.23,0,0,0-.1.67,4.21,4.21,0,0,0,0,.86c.08.18.32.28.72.28l.62,0,.62,0a2.08,2.08,0,0,1,.91.24,1,1,0,0,1,.56.83,1,1,0,0,1-.67.94q-.08,0-1.77.16-2.09.16-3,.16a22.22,22.22,0,0,1-3.22-.39q-3-.51-3-1.18,0-.35.65-.81a2,2,0,0,1,1-.45q-.08,0,3.42.67a.43.43,0,0,0,.16-.16q.12-.79.31-4.4l.2-2.12V51.88q0-.71.39-4.52l-.16-.16a9.21,9.21,0,0,1-2.24-.2q-2.2-.35-2.2-1.14c0-.08.1-.24.31-.49s.34-.37.39-.37l3.58.16a5.92,5.92,0,0,0,.81-.08,6,6,0,0,1,.77-.08c.05,0,.09,0,.1,0s0,0,.1,0q4,0,4,1.22,0,.71-1.26.9l-1.3.08a7.15,7.15,0,0,0-.28,2,20.42,20.42,0,0,1-.12,2.12v6l.12.12q1.68-1.69,6.21-6,1.26-1,4.4-3.7l-1.3,0-.9.08a3.73,3.73,0,0,1-1.3-.28q-.94-.32-.94-.67,0-.63,1.61-1a10,10,0,0,1,2.08-.28l6.68-.24a1.85,1.85,0,0,1,1,.41,1.1,1.1,0,0,1,.57.83q0,.7-1.5.81-1,.1-1.81.15a51.94,51.94,0,0,0-4.23,3.4q-3.86,3.23-3.86,3.62a27.87,27.87,0,0,0,2.56,4.49l3.22,5.12q.67,1.1,1.3,2.24a8.62,8.62,0,0,1,1,2.36,7.56,7.56,0,0,0,2,.16,1.36,1.36,0,0,0,.39-.1,1.39,1.39,0,0,1,.39-.1,1.27,1.27,0,0,1,.79.37A1,1,0,0,1,269.83,69.88Z"/><path class="cls-3" d="M281,67.47a35.37,35.37,0,0,1-4-.33,35.38,35.38,0,0,0-4-.33,1.31,1.31,0,1,1,0-2.62,19.29,19.29,0,0,1,2.44.17q0-2.23-.09-6.7t-.09-6.7l-1.57.48a6.69,6.69,0,0,1-1.48.35q-1.27,0-1.27-1.35a1.42,1.42,0,0,1,1-1.31q.92-.22,1.83-.48a9.84,9.84,0,0,1,2.44-.44q1.61,0,1.61,1.27,0,2.44.09,7.64t.09,7.55l2.58.09q1.61.22,1.61,1.4A1.16,1.16,0,0,1,281,67.47ZM277.65,41.2a1.31,1.31,0,1,1-1.31-1.31A1.16,1.16,0,0,1,277.65,41.2Z"/><path class="cls-3" d="M297.63,63.32q-2.86,5.06-7.89,5.06-2.64,0-4.38-3a9.39,9.39,0,0,1-1.43-4.76,11.82,11.82,0,0,1,2.14-7.37,8.25,8.25,0,0,1,6.9-3.05,8.4,8.4,0,0,1,5.1,1.79q0-3.84.22-11.48a28.92,28.92,0,0,1-3.14.44q-1.4.13-1.4-1.31A1.17,1.17,0,0,1,295,38.36a20.71,20.71,0,0,0,4.41-.79,1.87,1.87,0,0,1,.48-.09q1.35,0,1.18,1.53a44.09,44.09,0,0,0-.22,5q0,2.58-.13,7.69,0,2.93-.09,7.73,0,.57-.18,2.49t-.17,3.28v.22l4.32-1.5a1.27,1.27,0,0,1,.48-.11q1.26,0,1.26,1.35a1.16,1.16,0,0,1-.87,1.18q-2.31.78-5.8,2.14a1.54,1.54,0,0,1-.74.22q-1.27,0-1.27-3.53Zm0-7.07a2.57,2.57,0,0,1-.18-.7q-.09-1.09-1.79-2a6.14,6.14,0,0,0-2.71-.74q-6.41,0-6.41,7.81a6.85,6.85,0,0,0,.91,3.1q1.09,2,2.3,2a5.9,5.9,0,0,0,4.82-2.53,24.39,24.39,0,0,0,2.57-5A5.92,5.92,0,0,0,297.63,56.25Z"/><path class="cls-3" d="M324,46.43a43.92,43.92,0,0,0-.61,8.25q0,1.44-1.31,1.44-1.09,0-1.31-1.22a7.68,7.68,0,0,0-1.57-3.49,4.17,4.17,0,0,0-3.32-1.7,2,2,0,0,0-1.75.63,3.77,3.77,0,0,0-.48,2,2.63,2.63,0,0,1,.22.57,9,9,0,0,0,3,2.49,22.05,22.05,0,0,1,4,3,6.38,6.38,0,0,1,2,4.58,5.29,5.29,0,0,1-1.5,3.62,4.57,4.57,0,0,1-3.47,1.66q-3.84,0-6.68-4,0,1-.22,3.62a1.13,1.13,0,0,1-1.27,1.09q-1.48,0-1.35-1.53l.26-3.71a7.66,7.66,0,0,1,1-3.49c.35-.52.68-.79,1-.79s1,.52,1.66,1.57a21.59,21.59,0,0,0,2.18,3,4.7,4.7,0,0,0,3.41,1.61,2.09,2.09,0,0,0,1.64-.87,2.8,2.8,0,0,0,.72-1.79,4.49,4.49,0,0,0-2.09-3.49l-4-2.79a6.52,6.52,0,0,1-2.71-2.92l-.35-1.18c0-.2,0-.54,0-1a4.62,4.62,0,0,1,1.44-3.25,4.78,4.78,0,0,1,3.36-1.2,6.71,6.71,0,0,1,5.11,2.4,33.23,33.23,0,0,1,.48-3.58,1.15,1.15,0,0,1,1.22-1,1.3,1.3,0,0,1,1.07.46A1.29,1.29,0,0,1,324,46.43Z"/><circle class="cls-4" cx="43.9" cy="60.09" r="43.4"/><circle class="cls-5" cx="43.9" cy="60.09" r="43.4"/><circle class="cls-5" cx="43.9" cy="60.09" r="43.4"/><circle class="cls-6" cx="44.31" cy="59.5" r="43.27"/><path class="cls-7" d="M87.58,59.5l-.17-3c0-.5,0-1.05-.12-1.66l-.31-2c-.12-.71-.21-1.48-.39-2.29L85.93,48A42,42,0,0,0,80.4,35.86,42.82,42.82,0,0,0,68.22,23.71,44,44,0,0,0,49.16,17c-.89-.13-1.81-.1-2.72-.15l-1.37-.05-.69,0-.67,0a41.7,41.7,0,0,0-5.62.54,41.59,41.59,0,0,0-11,3.29L24.42,21.9c-.88.45-1.69,1-2.54,1.53l-1.27.79c-.4.29-.79.6-1.19.9-.78.62-1.61,1.19-2.37,1.85a46.58,46.58,0,0,0-8,9.09,45.42,45.42,0,0,0-5.2,11.16A46.74,46.74,0,0,0,2,59.5a49.6,49.6,0,0,0,.49,6.23l.23,1.52.11.76.19.75.76,3A45.41,45.41,0,0,0,9,82.93,46.29,46.29,0,0,0,17.06,92c.76.66,1.58,1.23,2.37,1.85.4.3.79.61,1.19.9l1.27.79c.85.51,1.66,1.09,2.54,1.53l2.64,1.31a41.55,41.55,0,0,0,11,3.3,41.73,41.73,0,0,0,5.58.53l.67,0,.7,0,1.39-.05c.92-.06,1.85,0,2.74-.16a44,44,0,0,0,19-6.74A42.8,42.8,0,0,0,80.4,83.13,42,42,0,0,0,85.93,71l.67-2.55c.18-.81.26-1.58.39-2.29l.31-2c.09-.6.08-1.16.12-1.66Zm0,0-.14,3c0,.5,0,1.06-.11,1.66l-.29,2c-.12.71-.19,1.49-.37,2.3L86,71a42.14,42.14,0,0,1-5.44,12.21,45.08,45.08,0,0,1-12.11,12.4,44.6,44.6,0,0,1-19.23,7.26c-.92.15-1.83.14-2.75.22l-1.39.09-.7,0c-.28,0-.49,0-.73,0a42.82,42.82,0,0,1-5.73-.42A42.82,42.82,0,0,1,26.5,99.68l-2.76-1.29c-.92-.44-1.77-1-2.66-1.53l-1.33-.79c-.42-.29-.84-.61-1.26-.91-.83-.62-1.7-1.2-2.5-1.87a47.19,47.19,0,0,1-8.47-9.37A47.24,47.24,0,0,1,2,72.32l-.82-3.14L1,68.39l-.13-.81L.59,66a22.74,22.74,0,0,1-.37-3.22L0,59.5A48.66,48.66,0,0,1,2,46.68a47.24,47.24,0,0,1,5.53-11.6A46.92,46.92,0,0,1,16,25.71c.8-.67,1.67-1.25,2.5-1.87.42-.3.83-.62,1.26-.91l1.33-.79c.89-.51,1.75-1.08,2.66-1.53l2.76-1.29A42.8,42.8,0,0,1,38,16.18a42.71,42.71,0,0,1,5.7-.42c.25,0,.44,0,.73,0l.71,0,1.4.09c.93.08,1.86.07,2.77.22a44.63,44.63,0,0,1,19.21,7.26,45.06,45.06,0,0,1,12.11,12.4A42.14,42.14,0,0,1,86,48l.65,2.56c.17.81.25,1.58.37,2.3l.29,2c.09.61.07,1.16.11,1.66Z"/><circle class="cls-5" cx="43.9" cy="60.09" r="43.4"/><path class="cls-8" d="M79.68,42.11c0,15.2-15.87,25.59-35.44,25.59S8.79,58.52,8.79,42.11C8.79,28,24.66,16.52,44.24,16.52S79.68,28,79.68,42.11Z"/><path class="cls-9" d="M18.7,31S-7.42,44.87,4.81,77.83c0,0,10.63,26.61,45.84,23.56,0,0-37.61-19.68-13.44-52L18,37.28"/><path class="cls-10" d="M60.93,44.19c-7.71-6.07-15.85-11.6-25-15.31-3.26-1.33-6.84-2.41-10.37-1.63a23.89,23.89,0,0,0-10.35,5.43L16,32c-1,.77-1.88,1.58-2.8,2.39a7.68,7.68,0,0,0-1.86,1.79,15.33,15.33,0,0,1,1.61-1.1,18.77,18.77,0,0,0-2.55,3.05,2.73,2.73,0,0,1,1.1-.85s8-9.43,17.59-8.92C42.41,29.11,63.84,46.48,60.93,44.19Z"/><path class="cls-11" d="M16.71,32.14S-.75,44.23,0,61.54c0,0,0-3.44.5-4.59,0,0-.52,9.43,1.15,14.35a46.8,46.8,0,0,1-.31-5.45s1.38,17,12.38,25.89c0,0-3-2.89-3.51-5.41,0,0,3.53,10.33,21.65,15.26a23.79,23.79,0,0,1-5-2.52s9.21,4.08,23.73,2.26c0,0-31.49-.27-41.57-20.18C9,81.15-7.88,54.46,16.71,32.14Z"/><path class="cls-12" d="M30.6,79.43S26.1,66,33.22,56.93L16.37,50.64s10.69,26.3,11.93,28.23A7.84,7.84,0,0,1,30.6,79.43Z"/><path class="cls-13" d="M24.92,55.11A12.52,12.52,0,0,0,25.56,61c0-.23.23-.58.26-.76a17.65,17.65,0,0,1,.91,4,2.74,2.74,0,0,0,.93-.94,11.82,11.82,0,0,0,.55,1.74,14.41,14.41,0,0,0,1.35-2.41,11.94,11.94,0,0,1-.06,1.4,8.79,8.79,0,0,0,2.18-3.27,2.35,2.35,0,0,1,.06,1c1.2-1.31,2.1-4.4,2.65-6.18a4.79,4.79,0,0,0-.72-4.79c-1.25-1.67-4.56-3.27-6.47-1.84-2.64,2-3.12,4.57-2.72,7.59"/><path class="cls-14" d="M23.79,30.4c-1.88-2.57-9.95-8.52-7.16-19.26S24.17-4.62,27.16,6.54,26,28.46,26,28.46Z"/><path class="cls-15" d="M23.79,30.4c-.86-1.05-1.85-2-2.75-3a25,25,0,0,1-2.5-3.22,16.84,16.84,0,0,1-1.8-3.67,15.86,15.86,0,0,1-.56-2c-.12-.67-.22-1.35-.28-2a16.56,16.56,0,0,1,.25-4.1,31.6,31.6,0,0,1,1-4,32,32,0,0,1,1.46-3.83,12.9,12.9,0,0,1,2.21-3.49A3.37,3.37,0,0,1,22.69,0a2.38,2.38,0,0,1,2,.76,9.79,9.79,0,0,1,2,3.62,30.13,30.13,0,0,1,1.06,4,36.13,36.13,0,0,1,.54,4.06c.09,1.36.1,2.72,0,4.09s-.18,2.72-.38,4.06a38.44,38.44,0,0,1-2,7.9h0Zm0,0,2.2-2v0a34.65,34.65,0,0,0,1.07-3.91c.27-1.33.52-2.65.68-4s.27-2.69.31-4,0-2.7-.11-4a36.08,36.08,0,0,0-.56-4,29.69,29.69,0,0,0-1.07-3.89,9.39,9.39,0,0,0-1.92-3.42A1.89,1.89,0,0,0,22.77.52a3,3,0,0,0-1.58.95,12.47,12.47,0,0,0-2.14,3.34A31.53,31.53,0,0,0,17.6,8.58a31.21,31.21,0,0,0-1,3.9,16.92,16.92,0,0,0-.3,4c0,.67.13,1.33.24,2A15.55,15.55,0,0,0,17,20.41a17.19,17.19,0,0,0,1.71,3.64,24.83,24.83,0,0,0,2.39,3.27C22,28.37,23,29.33,23.79,30.4Z"/><path class="cls-16" d="M32.62,31.42c1.52-1.8,7.78-5.78,6.27-13.85s-4.76-12-7.54-3.93-.28,16.23-.28,16.23Z"/><path class="cls-17" d="M32.62,31.42c.66-.76,1.42-1.42,2.11-2.15A18.34,18.34,0,0,0,36.65,27a12.76,12.76,0,0,0,1.44-2.6,11.14,11.14,0,0,0,.75-2.86,12.58,12.58,0,0,0,0-3,23,23,0,0,0-.56-2.92,23.26,23.26,0,0,0-.88-2.84A9.17,9.17,0,0,0,36,10.25a2.13,2.13,0,0,0-1.08-.76,1.33,1.33,0,0,0-1.17.36,6.88,6.88,0,0,0-1.57,2.4c-.2.45-.38.91-.54,1.38s-.26,1-.4,1.43l-.39,1.45c-.12.48-.15,1-.23,1.47l-.22,1.47c-.05.49-.05,1-.08,1.49s-.05,1-.06,1.49l.06,1.5c0,1,.18,2,.27,3a28.91,28.91,0,0,0,.57,2.94v0Zm0,0L31,29.9h0a29,29,0,0,1-.69-2.94A28.38,28.38,0,0,1,30,24l-.09-1.51c0-.5,0-1,0-1.51s0-1,.05-1.51l.19-1.51c.08-.5.11-1,.23-1.5l.38-1.45c.13-.49.24-1,.4-1.47s.34-1,.55-1.42a7.28,7.28,0,0,1,1.69-2.59A1.82,1.82,0,0,1,35,9a2.55,2.55,0,0,1,1.35.93,9.61,9.61,0,0,1,1.46,2.71,23.72,23.72,0,0,1,.88,2.91,23.44,23.44,0,0,1,.55,3,12.22,12.22,0,0,1,0,3,11.48,11.48,0,0,1-.84,2.93,12.41,12.41,0,0,1-1.53,2.62,18.51,18.51,0,0,1-2,2.24C34.1,30.06,33.31,30.69,32.62,31.42Z"/><path class="cls-18" d="M61.23,44.57A104.87,104.87,0,0,0,36,29.56c-3.26-1.33-6.84-2.41-10.37-1.63-3.08.68-5.69,2.51-8.46,4a21.54,21.54,0,0,0-2,1.62,11.83,11.83,0,0,1,1-.85s-4.5,3.74-4.76,4.25A15.33,15.33,0,0,1,13,35.8a18.77,18.77,0,0,0-2.55,3.05,2.73,2.73,0,0,1,1.1-.85A14.45,14.45,0,0,0,9.8,40.85s.1-.22.95-.65a4.67,4.67,0,0,0-1.16,2.25,5.12,5.12,0,0,1,.81-.89s-1.19,1.85-1,2.44a2.85,2.85,0,0,1,.79-1,3.81,3.81,0,0,0-.52,2.77A3.57,3.57,0,0,1,10.5,44a9.81,9.81,0,0,0,6.09,8.81c3.66,1.4,7.81.91,11.63.69a68.38,68.38,0,0,1,9.51,0c4.61.38,9.07,1.82,13.68,2.1,3.72.23,8.59,0,11.47-2.7C66.24,49.73,64.14,46.86,61.23,44.57Z"/><path class="cls-19" d="M61.23,44.57A104.87,104.87,0,0,0,36,29.56c-3-1.23-6.36-2.33-9.65-1.77a21.73,21.73,0,0,0-5.61,1.78,25.08,25.08,0,0,0-5,3.21C15,33.4,14.29,34,13.57,34.7a15.44,15.44,0,0,0-2.22,2.2A15.33,15.33,0,0,1,13,35.8a11.09,11.09,0,0,0-.84.92c-.55.66-.91,1-1.62,2l1-.73a11,11,0,0,0-1.72,2.71s.11-.2,1-.62a5.42,5.42,0,0,0-1.15,2.37,5.12,5.12,0,0,1,.81-.89,9.71,9.71,0,0,0-1,2.44,2.85,2.85,0,0,1,.79-1,3.81,3.81,0,0,0-.52,2.77A3.57,3.57,0,0,1,10.5,44c1.15,4.29,10.78,5.18,25.5,3,12.62-1.88,23.35,9.2,26.88,5.94S64.14,46.86,61.23,44.57Z"/><path class="cls-20" d="M22.35,3.23a27,27,0,0,0,.5,5.09c.55,2.85-2.48,9.42.29,16.52C23.14,24.84,12.48,16.86,22.35,3.23Z"/><path class="cls-21" d="M32.3,26s-2.63-8,1.17-12C33.47,14,36.17,20.42,32.3,26Z"/><path class="cls-22" d="M42.35,38.06a2.8,2.8,0,0,1-2.8,2.79c-1.54,0-4.29-1.44-4.29-3s2.74-2.61,4.29-2.61A2.8,2.8,0,0,1,42.35,38.06Z"/><circle class="cls-23" cx="40.72" cy="37.2" r="0.86"/><ellipse class="cls-24" cx="61.48" cy="49.16" rx="5.67" ry="3.86"/><path class="cls-25" d="M65.89,49.55a.39.39,0,0,1-.34-.2,4.62,4.62,0,0,0-2.61-1.79.39.39,0,1,1,.19-.75A5.36,5.36,0,0,1,66.23,49a.39.39,0,0,1-.34.58Z"/><path class="cls-25" d="M61.35,47.28H61a.39.39,0,0,1,0-.78h.31a.39.39,0,1,1,0,.78Z"/><g class="cls-26"><path class="cls-27" d="M42.95,75.27c-1.46-1.32-7.14-4-6.61-10.64s2.93-10.13,6-3.84a22.74,22.74,0,0,1,1.74,13.1Z"/><path class="cls-28" d="M42.95,75.27c-.64-.52-1.34-1-2-1.46a15.52,15.52,0,0,1-1.88-1.61,10,10,0,0,1-1.53-2,9.42,9.42,0,0,1-1-2.28,10.13,10.13,0,0,1-.32-2.47A18.24,18.24,0,0,1,36.41,63a18.65,18.65,0,0,1,.47-2.44,7.65,7.65,0,0,1,1-2.3,2.13,2.13,0,0,1,1-.84,1.46,1.46,0,0,1,1.28.16,5.44,5.44,0,0,1,1.67,1.87,12.45,12.45,0,0,1,1.08,2.24,13.3,13.3,0,0,1,.81,2.34l.31,1.2c.11.4.13.82.2,1.22l.18,1.23.07,1.24a22.62,22.62,0,0,1,0,2.48,22.87,22.87,0,0,1-.3,2.46h0Zm0,0,1.15-1.4h0a22.81,22.81,0,0,0,.24-2.46c0-.82,0-1.65,0-2.46l-.08-1.23L44,66.51c-.07-.4-.1-.82-.21-1.21l-.32-1.19a13.13,13.13,0,0,0-.82-2.32,12.23,12.23,0,0,0-1.08-2.2A5.25,5.25,0,0,0,40,57.81a1.22,1.22,0,0,0-1.08-.14,2,2,0,0,0-.87.75,7.44,7.44,0,0,0-1,2.22,18.45,18.45,0,0,0-.49,2.41,18.07,18.07,0,0,0-.2,2.45,10,10,0,0,0,.29,2.42,9.27,9.27,0,0,0,1,2.25,10.33,10.33,0,0,0,1.49,1.95A15.43,15.43,0,0,0,41,73.76C41.63,74.28,42.32,74.73,42.95,75.27Z"/><path class="cls-29" d="M47.28,74c1.09-.93,5.26-2.71,5.16-7.72s-1.67-7.72-4.15-3.12a17.88,17.88,0,0,0-1.79,9.75Z"/><path class="cls-30" d="M47.28,74c.47-.39,1-.71,1.49-1.08a11.22,11.22,0,0,0,1.39-1.19,7.86,7.86,0,0,0,1.13-1.42A6.84,6.84,0,0,0,52,68.68a9.65,9.65,0,0,0,.24-3.61,13.85,13.85,0,0,0-.25-1.8,5.61,5.61,0,0,0-.59-1.69,4.07,4.07,0,0,0-.26-.35,1.24,1.24,0,0,0-.33-.23.85.85,0,0,0-.77.09,4.43,4.43,0,0,0-1.2,1.3c-.16.25-.31.52-.47.78L48,64l-.38.83c-.12.28-.19.58-.29.86l-.28.87c-.08.29-.13.6-.19.89s-.13.6-.18.9l-.11.91c-.09.6-.08,1.22-.13,1.83a17.65,17.65,0,0,0,.06,1.83h0Zm0,0-.79-1.08h0a17.72,17.72,0,0,1-.12-1.84,16.87,16.87,0,0,1,.09-1.84l.1-.92c0-.3.11-.6.17-.91s.11-.61.19-.9l.27-.89c.1-.29.17-.6.29-.88l.38-.84c.13-.28.24-.55.38-.84s.3-.54.47-.8A4.61,4.61,0,0,1,50,60.89a1.09,1.09,0,0,1,1-.12,1.35,1.35,0,0,1,.42.28,4.06,4.06,0,0,1,.29.39,5.82,5.82,0,0,1,.6,1.77,14.05,14.05,0,0,1,.23,1.84,9.83,9.83,0,0,1-.28,3.67,7,7,0,0,1-.79,1.68,7.52,7.52,0,0,1-1.17,1.43A11.3,11.3,0,0,1,48.8,73C48.3,73.34,47.76,73.64,47.28,74Z"/><path class="cls-13" d="M39,59.33a15.65,15.65,0,0,0,.88,3c.66,1.63-.49,5.84,2,9.75C41.92,72,34.4,68.46,39,59.33Z"/><path class="cls-31" d="M47.63,70.71s-1.09-4.48,1.79-6.33A6.57,6.57,0,0,1,47.63,70.71Z"/><path class="cls-32" d="M48.69,72.21C20,74.52,29.55,112,29.55,112H58c-5.27-1.76-19.52-8.57-14.76-24.21A17.57,17.57,0,0,1,45,84.52"/><path class="cls-33" d="M41.55,74.45l.37-.26a12.14,12.14,0,0,1,4.88-2.07,7,7,0,0,1,1.61,0c2.61.24,4.94,1.53,7.18,2.81A67.62,67.62,0,0,1,64,80.45c1.45,1.14,2.5,2.57.82,4.17s-5.89,1.57-8,1a23,23,0,0,0-6.59-.89c-2.28,0-4.53.51-6.82.33A4.86,4.86,0,0,1,39,82.24a5.93,5.93,0,0,1-.23-3.3,7.25,7.25,0,0,1,2.78-4.49Z"/><ellipse class="cls-24" cx="64.04" cy="82.8" rx="2.51" ry="1.71"/><path class="cls-25" d="M66,83a.17.17,0,0,1-.15-.09,2,2,0,0,0-1.16-.79.17.17,0,1,1,.08-.33,2.37,2.37,0,0,1,1.37,1,.17.17,0,0,1-.06.23Z"/><path class="cls-25" d="M64,82h-.14a.17.17,0,0,1,0-.34H64A.17.17,0,1,1,64,82Z"/><path class="cls-22" d="M54.41,77.26a1.53,1.53,0,0,1-1.53,1.53c-.84,0-2.06-.72-2.06-1.56s1.21-1.5,2.06-1.5A1.53,1.53,0,0,1,54.41,77.26Z"/><circle class="cls-23" cx="53.52" cy="76.79" r="0.47"/></g><path class="cls-34" d="M61.52,25.73c-4.67-.26-8.16,1.82-7.8,4.63s4.44,5.31,9.1,5.56S71,34.1,70.62,31.29,66.19,26,61.52,25.73Z"/><path class="cls-20" d="M20.29,79c2.37,0,8.45-.77,10.37.54s4.77,11.66,1.18,11.92c-2.84.21-.75-5.84-3.25-7.12-3.94-2-8.22.77-8.3-5.38"/><path class="cls-35" d="M65.15,81.34a7.36,7.36,0,0,0-1-.95A54.53,54.53,0,0,0,51,72.59a9.39,9.39,0,0,0-5-.92l-.18,0-.2,0-.24.08a11.29,11.29,0,0,0-2.3.78,13,13,0,0,0-2.58,1.67c-.39.32-.78.65-1.15,1s-.63.57-.92.89a1.69,1.69,0,0,0-.24.26,8,8,0,0,1,.84-.57,9.76,9.76,0,0,0-1.32,1.59l.06-.07.51-.37a5.74,5.74,0,0,0-.9,1.41.34.34,0,0,1,.08-.08l-.08.15s.06-.1.4-.29a2.62,2.62,0,0,0-.51,1.12,2.66,2.66,0,0,1,.42-.46s-.62,1-.53,1.27a1.48,1.48,0,0,1,.41-.55A2,2,0,0,0,37.32,81a1.86,1.86,0,0,1,.44-.89,5.1,5.1,0,0,0,3.17,4.58c1.9.73,4.06.47,6,.36a35.56,35.56,0,0,1,4.95,0c2.39.2,4.71.95,7.11,1.09,1.94.12,4.47,0,6-1.4A2.17,2.17,0,0,0,65.15,81.34Z"/><path class="cls-22" d="M54.32,77a1.45,1.45,0,0,1-1.45,1.45c-.8,0-2.23-.75-2.23-1.55s1.43-1.36,2.23-1.36A1.46,1.46,0,0,1,54.32,77Z"/><circle class="cls-23" cx="53.47" cy="76.56" r="0.45"/><ellipse class="cls-24" cx="64.27" cy="82.78" rx="2.95" ry="2.01"/><path class="cls-25" d="M66.56,83a.2.2,0,0,1-.18-.1A2.4,2.4,0,0,0,65,82a.2.2,0,1,1,.1-.39,2.79,2.79,0,0,1,1.61,1.13.2.2,0,0,1-.08.28Z"/><path class="cls-25" d="M64.2,81.81H64a.2.2,0,0,1,0-.4h.16a.2.2,0,1,1,0,.4Z"/></g></g></svg>