<?xml version="1.0" encoding="UTF-8"?>
<!DOCTYPE svg PUBLIC "-//W3C//DTD SVG 1.1//EN" "http://www.w3.org/Graphics/SVG/1.1/DTD/svg11.dtd">
<!-- Creator: CorelDRAW 2018 (64 Bit) -->
<svg xmlns="http://www.w3.org/2000/svg" xml:space="preserve" width="74mm" height="83mm" version="1.1" style="shape-rendering:geometricPrecision; text-rendering:geometricPrecision; image-rendering:optimizeQuality; fill-rule:evenodd; clip-rule:evenodd"
viewBox="0 0 610.23 684.45"
 xmlns:xlink="http://www.w3.org/1999/xlink">
 <defs>
  <style type="text/css">
   <![CDATA[
    .fil25 {fill:none}
    .fil3 {fill:#003797}
    .fil24 {fill:#003998}
    .fil21 {fill:#007DE1}
    .fil6 {fill:#00B8F0}
    .fil13 {fill:#013D9B}
    .fil23 {fill:#0168C8}
    .fil4 {fill:#019BFD}
    .fil7 {fill:#01A4DA}
    .fil19 {fill:#053F9D}
    .fil8 {fill:#06B9F0}
    .fil14 {fill:#214DA0}
    .fil5 {fill:#214EA0}
    .fil15 {fill:#379DE1}
    .fil0 {fill:#8AD9E7}
    .fil16 {fill:#9AC9E7}
    .fil10 {fill:#9DD0E7}
    .fil11 {fill:#C5EAFC}
    .fil18 {fill:#CEC395}
    .fil1 {fill:#D0EEFE}
    .fil22 {fill:#F2F6FA}
    .fil9 {fill:#FAFDFF}
    .fil12 {fill:#FDFCFB}
    .fil20 {fill:#FEC577}
    .fil2 {fill:#FFAC3A}
    .fil17 {fill:#FFF5E9}
   ]]>
  </style>
 </defs>
 <g id="Capa_x0020_1">
  <metadata id="CorelCorpID_0Corel-Layer"/>
  <g id="_1601820421952">
   <g>
    <path class="fil0" d="M163.44 174.55c0.67,0.57 1.35,1.36 1.9,1.78 1.2,0.91 0.83,0.53 1.75,1.07 1.52,0.88 1.73,0.97 3.19,2.31 1.47,1.35 4.99,5.02 5.77,6.28 0.09,0.14 0.18,0.32 0.26,0.47 0.08,0.14 0.16,0.33 0.24,0.47 0.07,0.14 0.15,0.33 0.22,0.47 0.07,0.14 0.14,0.33 0.21,0.46l2.55 3.58c1.96,2.74 2.51,6.71 3.37,10.65 1.11,5.06 0.17,6.38 -1.2,9.95 -4.63,12.05 -8.86,12.66 -19.17,15.69l-0.12 37.35 104.81 -0.05c2.09,0.36 2.14,0.29 4.25,1.43 2.95,1.59 3.15,2.31 3.98,4.17 0.23,0.52 1.27,2.89 1.27,2.9 1.29,3.71 0.51,11.81 0.51,16.2 -0,11.17 0.01,22.34 -0.05,33.51 -0.12,22.55 -0.09,45.17 -0.07,67.72 0.01,11.72 -0.42,20.17 -13.63,20.58 -29.35,0.92 -70.33,-0.17 -100.79,-0.11 0.84,26.25 0.04,53.7 0.02,80.07 -0,5.25 -0.47,57.95 0.38,60.56 1.68,5.17 9.19,4.86 15.67,4.12 2.79,-14.83 -2.98,-68.9 1.73,-77.32 4.19,-7.49 16.85,-5 27.83,-4.99l112.41 0.2c6.86,0.08 59.61,-0.49 64.44,0.53 4.23,0.89 3.45,1.7 6.24,3.41l-0.27 2.31c1.12,0.58 0.8,0.01 1.64,1.27 1.52,2.26 0.72,33.5 0.72,36.45 0,5.13 -1.08,36.08 0.83,38.25 2.69,0.48 15.15,0.65 17.86,0.21 6.03,-0.97 5.21,-7.31 5.2,-14.03 -0.02,-14.84 -0.53,-106.21 0.22,-112.82 0.99,-8.79 0.5,-61.77 0.47,-74.99 -0.03,-12.02 0.76,-68.77 -0.24,-75.41 -23.87,-1.31 -49.9,0.22 -74.09,-0.19 -3.47,-0.06 -7.58,-0.74 -9.88,-3.15l-1.28 -1.5c-0.09,-0.11 -0.24,-0.25 -0.33,-0.36 -2.71,-3.3 -1.27,-13.01 -1.26,-18.53 0.01,-9.11 -0.73,-89.52 0.41,-92.17l1.63 -2.46c1.04,-1.56 0.35,-1.9 5.74,-3.72 1.55,-0.52 2.4,-0.45 4.25,-0.46 24.95,-0.08 50.19,0.55 75.09,0.01 0.34,-5.12 1.52,-23.09 -1.81,-27.42l-0.85 -0.95c-1.54,-1.76 -32.13,-2.42 -35.29,0.15l-2.6 3.88c-1.44,2.32 -0.95,0.58 -2.53,3.44 -5.67,5.28 -5.93,11.75 -21.59,16.96 -9.93,3.3 -25.13,1.58 -36.91,1.59 -25.59,0.02 -51.23,0.08 -76.82,-0.05 -4.34,-0.02 -5.18,-0.29 -8.45,-1.27 -4.67,-1.41 -2.68,-1.55 -6.95,-2.64 -5.61,-1.44 -7.14,-4.31 -10.83,-8.26 -0.1,-0.1 -0.24,-0.25 -0.34,-0.35 -0.1,-0.1 -0.25,-0.25 -0.34,-0.35 -0.14,-0.15 -0.55,-0.57 -0.69,-0.73 -0.03,-0.04 -0.84,-1.03 -0.97,-1.19l-6.23 -8.33c-5.18,-5.48 -3.71,-5.69 -13.35,-5.64 -6.51,0.03 -13.11,-0.14 -19.6,-0.07 -7.05,0.08 -8.49,3.51 -8.46,10.65 0.06,12.78 0.02,25.67 -0.07,38.45z"/>
    <path class="fil1" d="M505.83 581.19c-2.35,2.03 -3.18,3.79 -5.66,5.44 -4.21,2.8 -23.17,5.28 -27.24,1.91 0.69,-1.69 0.1,-1.47 3.04,-3.4 7.26,-4.78 3.53,-1.31 7.85,-7.2 0.01,-0.02 0.68,-0.78 1.04,-1.18 0.14,-0.15 0.58,-0.55 0.71,-0.7 0.56,-0.65 0.51,-0.22 0.96,-1.53l1.77 -11.89c0.49,-6.73 2.15,-0.16 2.07,-11.11 -0.02,-3.04 0.12,-4.38 0.63,-6.64l2.66 -11.37c0.55,-1.98 0.91,-2.56 0.96,-5.02 0.35,-16.85 1.37,-7.26 3.01,-18.19 1.03,-6.84 -0.45,-4.88 -11.42,-4.88l-36.31 0c0,2.56 -0.01,5.12 0,7.68 0.02,2.87 0.37,5.86 -0.75,8.38 -0.78,9.04 0.05,20.59 -0.11,30.02 -0.13,7.88 -0.63,8.03 -3.04,14.6l-2.62 5.32c-0.12,0.17 -0.45,0.61 -0.6,0.76 -1.91,1.9 -0.28,1.17 -3.17,1.68l-3.63 3.47c-9.48,7.6 -16.64,8.29 -28.66,8.29 -23.25,0 -10.15,1.09 -15.15,9.54l-0.94 0.9c1.03,2.97 0.12,3.31 -2.35,5.46l-3.95 2.39 -99.1 0.16c-7.1,-0.03 -94.93,0.99 -99.41,-0.65 -3.55,-1.29 -6.14,-3.98 -5.92,-7.4 -1.11,-1.46 -0.52,0.22 -1.14,-2.61 -1.51,-6.94 3.29,-8.52 -6.62,-8.32 -5.36,0.1 -12.18,-0.14 -17.43,-2.17 -5.99,-2.32 -4.49,-2.1 -8.36,-4.91 -1.2,-0.87 -3.24,-1.57 -4.4,-2.63 -1.43,-1.31 -1.13,-1.93 -2.66,-3.5 -1.54,-1.03 -4.34,-5.3 -4.48,-6.75 -0.3,-0.18 -1.48,-0.07 -2.53,-2.63l-2.13 -10.29c-0.65,-10.6 1.14,-41.79 -0.42,-47.98l-38.06 -0.01c-1.02,-3.08 -2.3,-6.41 -1.7,-10.43l40.22 -0.23 -0.18 -20.38 -33.98 -0.16c-1.45,-2.21 -1.25,-1.04 -2.19,-3.6 -0.98,-2.46 -2.19,-4.32 -3.43,-6.48 -1.99,-3.46 -0.67,-4.8 -3.7,-6.71l-0.25 3.04c1.16,0.8 5.62,9.83 6.12,11.68 -7.21,0 -6.92,-0.42 -9.64,1.18l-6.06 7.06c-0.42,1.42 -0.49,3.08 -0.41,4.6 0.23,4.57 1.39,2.89 2.07,7.71 2.38,0.5 2.5,1.07 4.29,1.85 6.19,2.7 5.14,-1.8 5.93,7.86 0.26,3.16 1.07,2.49 1.87,4.6 0.75,1.97 0.44,4.39 0.74,6.54 0.39,2.89 0.75,1.85 1.29,4.96 0.72,4.12 0.3,8.53 1.48,12.54 2.21,7.46 2.24,15.07 4.29,22.62 2.37,8.69 1.71,19.14 6.54,27.04 2.14,3.51 2.03,2.69 1.41,3.33 -1.92,1.28 -11.53,2.45 -14.88,3.23 -2.55,0.6 -2.11,0.89 -3.49,1.24l-15.56 2.82c-3.16,0.79 0.22,0.13 -2.76,1.26l-27.81 8.76c-10.85,3.98 -25.33,16.33 -12.49,26.93 0.16,0.13 0.63,0.5 0.79,0.63 0.12,0.09 0.29,0.21 0.41,0.3l14.73 7.7c6.74,4.02 7.82,2.38 18.12,6.27l21.83 5.4c2.51,0.6 4.5,0.66 6.93,1.42l31.06 5.24c6.27,0.24 17.26,2.31 23.5,3.55l16.3 1.23c5.98,0.22 3.76,0.99 7.66,1.33 5.45,0.48 12.7,-0.27 17.9,0.57 3.45,0.56 3.07,1.39 7.2,1.51 10.58,0.29 17.6,2.21 24.48,2.42 22.28,0.67 162.4,1.28 178.87,-1.07l29.23 -1.6c2,-0.42 -0.68,1.32 0.91,-0.81 0.04,-0.05 0.19,-0.21 0.22,-0.41 0.03,-0.22 0.12,-0.32 0.23,-0.46l35.76 -3.44c3.13,-0.56 5.92,-0.08 8.86,-0.85 12.4,-3.23 11.71,-1.19 17.17,-2.44l32.5 -6.45c3.79,-1.46 4.07,-0.78 8.04,-1.72l23.07 -6.33c8.09,-2.44 22.5,-8.9 27.82,-16.09 1.01,-1.37 1.21,-1.36 1.53,-3.16 1.19,-6.78 -2.67,-10.14 -6.16,-13.04 -6.03,-5.01 -9.74,-5.41 -15.92,-8.49l-18.36 -6.07c-1.79,-0.38 -2.55,-0.21 -4.19,-0.8 -7.84,-2.85 -2.53,-0.7 -7.92,-1.87l-27.38 -6.13 0.69 -2.28z"/>
    <path class="fil2" d="M62.28 375c-1.29,-5.47 -0.92,-11.95 -0.55,-17.58 0.64,-9.86 4.3,-12.1 12.1,-14.57 15.03,-4.76 20.25,-6.41 37.31,-0.16 13.61,4.99 12.45,10.7 12.52,22.42 0.05,8.69 1.56,10.16 -6.8,10.16l-54.57 -0.27zm88.05 -14.77c-1.3,-6.95 1.63,-7.14 7.72,-7.14l44.64 0c16.02,0 22.06,-2.09 20.79,7 -2.44,1.57 -3.86,2.16 -7.48,2.16l-57.95 0.01c-3.98,0 -4.83,-0.17 -7.72,-2.03zm-0.14 -22.37c-0.7,-7.03 14.65,-4.26 19.73,-4.26 11.26,-0.01 58.68,-0.74 63.01,0.62 1.59,5.58 0.83,3.15 -1.72,7.54l-76.06 0.06c-1.18,-0.12 -2.76,-0.19 -4.08,-1.91 -0.85,-1.11 -0.7,-0.17 -0.89,-2.04zm-61.99 -37.14c4.47,-1.3 10.18,-0.76 13.5,2.09 9.39,8.06 9.08,18.31 1.46,26.29l-1.02 1.1c-1.9,1.85 -8.47,3.81 -12.29,3.04 -1.66,-0.33 -0.39,-0.08 -1.53,-0.5 -2.04,-0.75 2.05,0.8 -0.98,-0.42l-4.2 -2.01c-7.94,-5.53 -10.39,-25.09 5.07,-29.6zm68.46 20.48c-4.32,0 -7.12,0.22 -6.63,-4.96 0.42,-4.39 3.46,-3.48 7.33,-3.47l78.9 0c8.56,-0 16.02,-1.28 20.09,2.14 0.51,6.21 -0.94,6.28 -6.82,6.29l-92.86 -0zm-70.2 90.78c6.97,0.18 43.33,1.11 46.62,-0.78l127.61 -1c6.95,0.01 10.26,-0.51 13.08,-5.45 2.17,-3.81 1.14,-92.7 1.15,-109.46 0.01,-12.51 2.29,-23.42 -4.6,-27.56 -1.09,-0.66 -2.3,-1.22 -3.08,-2.72l-107.08 -0.3c-17.82,-0.39 -35.86,0.38 -53.76,0.28 -17.68,-0.1 -35.38,0.01 -53.06,-0.01 -5.77,-0.01 -8.61,-0.73 -12.22,1.98 -2.66,1.99 -5,4.48 -5.42,8.08l-0.07 107.54c-0,14.09 -1.83,17.61 3.23,25.72 3.34,5.35 15.45,3.4 20.77,3.44 8.47,0.07 18.62,-0.45 26.85,0.26z"/>
    <path class="fil3" d="M248.66 585.09c1.43,-1.38 2.26,-2.32 5.02,-2.44 3.61,-0.16 4.16,0.27 5.19,2.67l-0.23 -0.11 99.08 0.06c5.53,0 17.62,-2.34 12.08,6.24 -7.1,0.79 -51.96,0.24 -63.04,0.25 -5.6,0 -44.38,-1.02 -47.75,0.72 -2.6,1.33 -5.19,4.24 -9.74,-0.61 -10.5,-0.65 -26.7,-0.09 -38.23,-0.12 -4.17,-0.01 -6.54,-1.45 -6.35,-5.29 7.53,-3.17 33.13,-0.22 43.97,-1.36zm37.15 -87.08c8.26,-0.02 17.55,3.02 22.47,8.69 7.19,8.27 8.72,11.82 8.69,22.49 -0.02,7.43 -0.14,9.83 -3.6,15 -0.39,0.58 -0.14,0.17 -0.82,1.22 -7.46,11.55 -20.18,17.28 -33.8,13.64 -5.87,-1.57 -9.19,-2.84 -14.47,-8.36 -12.83,-13.41 -12.38,-32.07 -0.03,-43.75l8.05 -5.87c3.84,-2.17 9.17,-3.05 13.5,-3.06zm-105.33 98.04c-0.22,3.43 2.36,6.11 5.92,7.4 4.49,1.64 92.32,0.62 99.41,0.65l99.1 -0.16 3.95 -2.39c2.46,-2.15 3.38,-2.5 2.35,-5.46 -0.3,-2.56 -0.47,-5.65 -0.17,-8.34 1.07,-9.5 2.76,7.68 2.72,-20.16 -0.02,-15.38 -1.25,-7.19 -2.46,-12.64 -0.67,-3.01 0.13,-11.1 0.19,-14.59l-0.37 -60.05 -0.73 -0.59c-0.08,-0.07 -0.26,-0.22 -0.36,-0.31 -1.16,-1.02 -2.68,-2.61 -4.29,-3.07l-173.94 -0.41c-15.99,-0.01 -28.81,-3.13 -30.2,6.44 -1.65,11.36 0.78,66.89 -0.37,73.35 -1.16,3.47 -2.08,-1.48 -2.1,6.98 0.01,5.59 -0.3,11.99 -0.02,17.46 0.28,5.45 1.96,8.46 1.37,15.88z"/>
    <path class="fil4" d="M400.31 257.01c-2.66,0 -6.55,0.24 -9.07,-0.05 -7.59,-0.86 -9.69,-12.24 2.79,-12.24l57.95 0c9.6,0 19.4,-1.44 24.86,2.6 1.04,8.55 -1.32,9.71 -9.5,9.7l-67.03 -0.01zm13.96 -29.13c-5.29,0 -11.75,1.19 -13.54,-3.58 -1.48,-3.97 1.2,-8.33 7.22,-8.68 11.37,-0.66 29.18,0 41.92,-0 14.94,-0.01 13.14,7.52 10.11,10.74 -1.89,2.01 -2.76,1.53 -5.93,1.53l-39.8 0.01zm-34.23 -39.42l0 0zm-5.01 -52.66c1.58,-2.86 1.09,-1.12 2.53,-3.44l2.6 -3.88c3.16,-2.57 33.74,-1.91 35.29,-0.15l0.85 0.95c3.33,4.33 2.15,22.3 1.81,27.42 -24.9,0.53 -50.14,-0.09 -75.09,-0.01 -1.86,0.01 -2.7,-0.06 -4.25,0.46 -5.39,1.82 -4.7,2.16 -5.74,3.72l-1.63 2.46c-1.14,2.65 -0.4,83.06 -0.41,92.17 -0.01,5.52 -1.45,15.23 1.26,18.53 0.09,0.11 0.24,0.25 0.33,0.36l1.28 1.5c2.3,2.41 6.41,3.09 9.88,3.15 24.19,0.41 50.22,-1.13 74.09,0.19 1,6.64 0.21,63.39 0.24,75.41 0.03,13.22 0.53,66.2 -0.47,74.99 -0.75,6.62 -0.24,97.98 -0.22,112.82 0.01,6.72 0.83,13.06 -5.2,14.03 -2.71,0.44 -15.16,0.26 -17.86,-0.21 2.38,1.29 14.92,0.98 18.43,0.38 5.61,-0.96 5.96,-7.29 5.92,-12.09l0.02 -113.82c0.05,-10.2 -0.92,-146.13 0.64,-152.03l27.06 0.05c1.9,0.49 0.57,-0.63 1.51,1.46 4.37,-1.95 60.97,-0.79 71.11,-0.76 3.63,0.01 5.43,0.39 7.9,-1.4 1.35,-0.98 3.2,-3.29 3.81,-5.33 0.96,-3.23 0.36,-80.55 0.36,-89.84 0,-3.75 0.47,-15.17 -0.22,-18.05 -0.39,-1.63 -2.49,-4.38 -3.77,-5.35 -5.6,-4.26 -67.17,-0.1 -75.65,-1.86l-1.76 -1.08c-0.05,-0.12 -0.18,-0.35 -0.23,-0.5 -0.05,-0.16 -0.14,-0.35 -0.19,-0.54 -1,-3.82 1.25,-28.54 -2.22,-34.66 1.13,7.12 2.55,30.97 0.06,36.84 -4.87,0.01 -25.12,0.77 -27.83,-0.64 -1.75,-3.61 -0.76,-15.83 -0.74,-20.97 0.03,-7.14 -1.72,-10.42 -11.2,-10.35 -9.45,0.07 -25.26,-2.04 -28.78,3.17 -0.97,1.43 -1.02,2.22 -1.87,3.79 -1.05,1.92 -0.97,0.48 -1.64,3.1z"/>
    <path class="fil5" d="M133.32 157.84c2.36,3.02 2.98,2.87 5.19,6.74 1.17,2.05 1.06,1.59 2.13,4.11 0.67,1.58 1.13,3.28 2.04,4.48 3.96,-0 7.94,-0.29 11.91,-0.08 5.84,0.31 4.08,2.23 8.85,1.45 0.08,-12.78 0.13,-25.67 0.07,-38.45 -0.04,-7.14 1.41,-10.58 8.46,-10.65 6.49,-0.07 13.08,0.11 19.6,0.07 9.64,-0.05 8.17,0.17 13.35,5.64l6.23 8.33c0.13,0.16 0.93,1.15 0.97,1.19 0.14,0.16 0.55,0.58 0.69,0.73 0.1,0.11 0.25,0.25 0.34,0.35 0.1,0.1 0.24,0.25 0.34,0.35 3.69,3.95 5.22,6.82 10.83,8.26 4.27,1.1 2.28,1.24 6.95,2.64 3.27,0.98 4.12,1.25 8.45,1.27 25.59,0.12 51.22,0.07 76.82,0.05 11.78,-0.01 26.98,1.72 36.91,-1.59 15.66,-5.21 15.92,-11.68 21.59,-16.96 0.67,-2.63 0.58,-1.19 1.64,-3.1 0.86,-1.57 0.9,-2.35 1.87,-3.79 3.52,-5.21 19.33,-3.1 28.78,-3.17 9.48,-0.07 11.23,3.21 11.2,10.35 -0.02,5.13 -1.01,17.36 0.74,20.97 2.71,1.41 22.96,0.65 27.83,0.64 2.49,-5.87 1.07,-29.72 -0.06,-36.84 -1.34,-1.52 -2.86,-5.77 -4.37,-8.21 -5.25,-8.5 -9.07,-9.95 -16.12,-12.62 -2.09,-0.79 0.26,-0.01 -1.76,-0.94 -4.1,-1.89 -45.94,-2.03 -53.79,-2.03l-198.98 -0.24c-10.17,-0.03 -20.71,2.33 -27.76,10.18 -2.59,2.89 -3.53,3.08 -5.59,6.25 -7.58,11.72 -4.84,27.78 -5.33,44.6z"/>
    <path class="fil5" d="M394.32 556.27c-1.91,-2.18 -0.83,-33.12 -0.83,-38.25 0,-2.94 0.8,-34.18 -0.72,-36.45 -0.84,-1.25 -0.52,-0.68 -1.64,-1.27l0.37 60.05c-0.06,3.48 -0.86,11.57 -0.19,14.59 1.21,5.45 2.44,-2.74 2.46,12.64 0.04,27.84 -1.66,10.66 -2.72,20.16 -0.3,2.69 -0.13,5.78 0.17,8.34l0.94 -0.9c5,-8.45 -8.1,-9.54 15.15,-9.54 12.02,0 19.18,-0.69 28.66,-8.29l3.63 -3.47c1.61,-3.34 3.54,-5.43 5,-8.83 0.67,-1.57 2.81,-9.49 2.96,-10.96 1.45,-14.75 -0.87,-65.17 0.37,-82.7 -0.37,-17.59 -0,-35.58 0,-53.22 0,-8.84 0.01,-17.69 0,-26.53 -0,-7.21 -0.57,-19.47 0.43,-25.68l0.13 -21.81c11.98,-0.89 41.11,-0.23 55.9,-0.19 4.58,0.01 10.45,-1.38 13.38,-4.95l-2.94 -0.42c-1.46,3.45 -1.25,1.93 -6.26,2.39 -8.7,0.8 -56.11,0.64 -60.68,0.09l0.01 -37.39c0.82,-2.67 1.23,2.23 3.78,-6.88 0.19,-0.67 0.87,2.15 0.63,-2.92 -5.03,2.85 -0.78,3.97 -3.81,5.41 -1.48,-3.64 -0.15,-14.27 -0.58,-19.06 -0.94,-2.09 0.39,-0.96 -1.51,-1.46l-27.06 -0.05c-1.57,5.9 -0.59,141.83 -0.64,152.03l-0.02 113.82c0.04,4.8 -0.31,11.13 -5.92,12.09 -3.51,0.6 -16.05,0.92 -18.43,-0.38z"/>
    <path class="fil4" d="M133.15 227.59l29.38 0.13c10.31,-3.03 14.54,-3.64 19.17,-15.69 1.38,-3.58 2.31,-4.89 1.2,-9.95 -0.86,-3.94 -1.42,-7.91 -3.37,-10.65l-2.55 -3.58c-0.07,-0.13 -0.14,-0.33 -0.21,-0.46 -0.07,-0.14 -0.15,-0.33 -0.22,-0.47 -0.08,-0.14 -0.16,-0.33 -0.24,-0.47 -0.08,-0.14 -0.17,-0.33 -0.26,-0.47 -0.78,-1.26 -4.31,-4.93 -5.77,-6.28 -1.46,-1.34 -1.66,-1.43 -3.19,-2.31 -0.93,-0.54 -0.56,-0.16 -1.75,-1.07 -0.55,-0.42 -1.23,-1.21 -1.9,-1.78 -4.76,0.77 -3.01,-1.14 -8.85,-1.45 -3.97,-0.21 -7.94,0.08 -11.91,0.08 -0.92,-1.2 -1.37,-2.89 -2.04,-4.48 -1.07,-2.52 -0.96,-2.06 -2.13,-4.11 -2.21,-3.87 -2.82,-3.73 -5.19,-6.74 -1.37,0.4 -4.25,-2.21 -8.53,-4.48 -5.01,-2.66 -17.91,-1.48 -21.86,0.38 -5.35,2.52 -11.43,7.53 -14.06,12.9l-3.71 8.2c-9.93,-0.5 -11.75,-0.19 -19.75,2.31 -2.11,0.66 -4.43,1.84 -5.67,3.61 -5.06,7.22 -3.72,2.52 -6.21,8.39l-2 5.93c-3.3,8.35 -0.5,18.7 4.26,24.41 1.95,2.34 3.42,3.68 6.25,5.04 3.07,1.47 4.58,2.57 7.96,2.75 11.8,0.65 58.1,-1.16 63.14,0.3z"/>
    <path class="fil5" d="M139.87 571.91c1.54,1.57 1.23,2.19 2.66,3.5 1.16,1.06 3.21,1.76 4.4,2.63 3.87,2.81 2.37,2.59 8.36,4.91 5.25,2.03 12.07,2.27 17.43,2.17 9.91,-0.19 5.11,1.39 6.62,8.32 0.61,2.82 0.03,1.15 1.14,2.61 0.59,-7.43 -1.08,-10.44 -1.37,-15.88 -0.29,-5.47 0.02,-11.88 0.02,-17.46 0.02,-8.46 0.94,-3.52 2.1,-6.98 1.15,-6.46 -1.27,-62 0.37,-73.35 1.39,-9.57 14.22,-6.45 30.2,-6.44l173.94 0.41c1.61,0.46 3.13,2.05 4.29,3.07 0.09,0.08 0.27,0.23 0.36,0.31l0.73 0.59 0.27 -2.31c-2.79,-1.71 -2.01,-2.51 -6.24,-3.41 -4.83,-1.02 -57.58,-0.45 -64.44,-0.53l-112.41 -0.2c-10.98,-0.01 -23.64,-2.5 -27.83,4.99 -4.71,8.42 1.05,62.49 -1.73,77.32 -6.47,0.74 -13.98,1.05 -15.67,-4.12 -0.85,-2.61 -0.38,-55.32 -0.38,-60.56 0.02,-26.38 0.82,-53.83 -0.02,-80.07l-29.62 -0.21c1.18,26.9 0.36,56.61 0.16,83.77 -0.06,8.57 -1.14,58.22 1.17,64.62 0.53,1.48 0.1,0.1 0.77,2.04 1.52,4.43 2.92,5.49 4.69,10.26z"/>
    <path class="fil6" d="M448.35 365.96c-0.99,6.22 -0.43,18.47 -0.43,25.68 0,8.84 -0,17.69 -0,26.53 -0,17.64 -0.37,35.63 -0,53.22 4.03,-1.39 33.5,-0.51 40.61,-0.52 1.3,-2.63 2.14,-4.31 3.33,-7.22 0.91,-2.24 2.15,-4.12 3.18,-6.6 1.84,-4.42 2.37,-11.05 3.73,-15.84 3.11,-10.98 -1.78,-35.27 -6.14,-42.83 -5.91,-10.23 -11.65,-20.14 -21.16,-27.64l-11.81 -8.16c-5.01,0.36 -7.13,2.44 -11.3,3.37z"/>
    <path class="fil5" d="M324.35 37.07c-9.81,-1.96 -17.05,1.65 -22.79,8.66 -4.26,5.21 -4.74,11.79 -3.66,18.44l3.6 7.37c5.37,7.82 14.59,6.74 24.11,6.75 1.67,0 60.03,1.41 65.65,-1.54 5.32,-2.79 8.63,-8.08 8.73,-13.93 0.07,-4.35 0.31,-7.72 -1.3,-10.92 -1.4,-2.8 -2.15,-4.81 -4.04,-7.17 -2.75,-3.43 -9.97,-8.28 -13.97,-8.94 -3.47,-0.58 -8.12,-0.01 -11.79,-0.25 -11.1,-25.22 -35.41,-16.78 -41.31,-5.02l-3.24 6.56z"/>
    <path class="fil3" d="M452.3 293.87c0.24,5.07 -0.44,2.26 -0.63,2.92 -2.56,9.11 -2.96,4.2 -3.78,6.88l-0.01 37.39c4.57,0.55 51.97,0.71 60.68,-0.09 5.01,-0.46 4.8,1.06 6.26,-2.39l2.94 0.42c1.22,-0.46 -0.24,0.68 1.54,-0.88 0.74,-0.65 0.46,-0.46 0.96,-1.12 6.86,-9.12 3.4,-14.79 2.64,-18.2 -0.75,-3.41 -1.11,-4.6 -2.8,-7.18 -8.53,-12.94 -18.21,-11.17 -27.62,-11.51 -1.26,-1.85 -0.37,-1.16 -1.23,-2.94 -3.07,-6.37 -8.88,-11.95 -16.22,-13.25 -7.45,-1.32 -9.92,0.44 -14.48,2.34 -2.74,1.14 -8.03,4.35 -8.24,7.62z"/>
    <path class="fil7" d="M459.64 362.6l11.81 8.16c9.51,7.5 15.25,17.41 21.16,27.64 4.37,7.56 9.25,31.85 6.14,42.83 -1.35,4.78 -1.89,11.42 -3.73,15.84 -1.03,2.48 -2.27,4.36 -3.18,6.6 -1.19,2.91 -2.02,4.58 -3.33,7.22l27.47 0.01c2.05,-4.05 1.92,-0.1 2.91,-6.03l1.95 -0.39c0.26,-1.92 -0.88,0.14 0.63,-1.97 1.41,-1.97 0.18,-0.54 1.79,-1.52 -0.25,-1.52 3.55,-12.91 4.16,-17.55 3.49,-26.65 -5.12,-54.49 -25.98,-71.88 -6.89,-5.74 -13.47,-10.35 -22.21,-10.84l-19.59 1.9z"/>
    <path class="fil8" d="M86.44 411.98c-7.3,25.11 1.49,40.44 0.84,44.29 3.03,1.91 1.7,3.25 3.7,6.71 1.24,2.16 2.45,4.02 3.43,6.48 3.02,1.49 3.71,1.74 8.46,1.7 3.26,-0.03 6.52,-0.01 9.78,-0.01 5.03,0 19.23,-1.29 20.01,1.77l0.29 1.15c1.05,6.85 -1.46,74.32 0.93,85.72 0.72,3.42 1.15,1.14 1.5,5.37 0.14,1.45 2.94,5.73 4.48,6.75 -1.76,-4.78 -3.17,-5.84 -4.69,-10.26 -0.67,-1.94 -0.24,-0.56 -0.77,-2.04 -2.31,-6.4 -1.23,-56.06 -1.17,-64.62 0.19,-27.16 1.02,-56.87 -0.16,-83.77 -3.29,1.89 -39.65,0.95 -46.62,0.78z"/>
    <path class="fil9" d="M275.84 525.7c-0,-3.86 0.13,-4.42 1.66,-6.83 5.83,-0.39 8.63,1.93 12.01,3.87l2.39 1.75c2.77,1.92 2.89,0.27 4.94,2.75 1.27,1.54 0.98,-1.52 1.05,2.62 0.06,3.2 -1.67,3.01 -3.95,4.09 -5.41,2.55 -9.57,6.98 -16.48,6.34 -2.48,-5.39 -1.63,-6.31 -1.64,-14.59zm9.97 -27.69c-4.33,0.01 -9.66,0.88 -13.5,3.06l-8.05 5.87c-12.35,11.68 -12.8,30.35 0.03,43.75 5.29,5.52 8.61,6.79 14.47,8.36 13.62,3.64 26.34,-2.09 33.8,-13.64 0.68,-1.05 0.43,-0.64 0.82,-1.22 3.46,-5.17 3.58,-7.57 3.6,-15 0.02,-10.68 -1.5,-14.22 -8.69,-22.49 -4.92,-5.66 -14.21,-8.7 -22.47,-8.69z"/>
    <path class="fil10" d="M488.52 470.88c-7.11,0.01 -36.58,-0.87 -40.61,0.52 -1.24,17.53 1.08,67.95 -0.37,82.7 -0.15,1.47 -2.29,9.4 -2.96,10.96 -1.46,3.4 -3.39,5.49 -5,8.83 2.9,-0.51 1.26,0.22 3.17,-1.68 0.15,-0.15 0.48,-0.59 0.6,-0.76l2.62 -5.32c2.41,-6.57 2.91,-6.72 3.04,-14.6 0.16,-9.44 -0.67,-20.99 0.11,-30.02l0.06 -16.76c1.68,-0.53 48.12,-1.66 50.02,0.24 1.75,1.75 -0.12,4.31 -0.67,8.14 -0.54,3.76 0.2,7.05 -1.06,9.96 -2.15,4.95 -0.7,7.79 -2.02,14.31 -0.65,3.22 -0.71,0.83 -1.28,4.29 -0.55,3.32 0.05,6.92 -0.84,9.55 -3.34,9.84 0.4,4.49 -2.69,14.05 -0.78,2.42 -0.47,2.37 -0.81,4.98 -0.53,3.99 -2.35,2.68 -2.02,9.2 0.87,0.66 0.43,0.43 1.75,0.98 0.23,0.1 1.59,0.54 1.73,0.57 2.3,0.53 11.74,0.69 13.05,0 6.61,-6.11 3.85,-11.39 6.37,-19.83 1.19,-3.98 11.14,-65.07 10.71,-67.16 -9.97,-0.21 -67.69,1.36 -71.54,-0.65 -0.75,-1.05 -0.45,-0.25 -0.87,-1.9 -0.25,-0.97 -0.27,-1.74 -0.29,-2.76l0.05 -15.11c12.31,-1 45.47,-0.28 61.18,-0.2 5.66,0.03 5.95,0.75 9.28,-4.92 1.55,-2.63 1.41,-1.26 1.61,-4.03l-1.95 0.39c-0.99,5.93 -0.85,1.98 -2.91,6.03l-27.47 -0.01z"/>
    <path class="fil11" d="M520.84 464.47c-0.2,2.77 -0.06,1.39 -1.61,4.03 -3.33,5.68 -3.62,4.95 -9.28,4.92 -15.71,-0.08 -48.87,-0.8 -61.18,0.2l-0.05 15.11c0.02,1.01 0.05,1.79 0.29,2.76 0.42,1.65 0.12,0.84 0.87,1.9 3.85,2.02 61.57,0.45 71.54,0.65 0.42,2.09 -9.52,63.18 -10.71,67.16 -2.53,8.44 0.24,13.72 -6.37,19.83 -1.31,0.69 -10.75,0.53 -13.05,-0 -0.14,-0.03 -1.5,-0.47 -1.73,-0.57 -1.32,-0.55 -0.88,-0.32 -1.75,-0.98 -0.33,-6.52 1.49,-5.2 2.02,-9.2 0.35,-2.61 0.03,-2.55 0.81,-4.98 3.09,-9.55 -0.65,-4.2 2.69,-14.05 0.89,-2.63 0.29,-6.22 0.84,-9.55 0.57,-3.46 0.63,-1.07 1.28,-4.29 1.32,-6.51 -0.13,-9.36 2.02,-14.31 1.26,-2.91 0.52,-6.21 1.06,-9.96 0.55,-3.84 2.43,-6.4 0.67,-8.14 -1.91,-1.9 -48.34,-0.77 -50.02,-0.24l-0.06 16.76c1.12,-2.52 0.77,-5.51 0.75,-8.38 -0.02,-2.56 -0,-5.12 -0,-7.68l36.31 0c10.97,-0 12.45,-1.96 11.42,4.88 -1.65,10.92 -2.67,1.34 -3.01,18.19 -0.05,2.46 -0.41,3.04 -0.96,5.02l-2.66 11.37c-0.5,2.26 -0.65,3.59 -0.63,6.64 0.08,10.95 -1.58,4.38 -2.07,11.11l-1.77 11.89c-0.45,1.31 -0.4,0.87 -0.96,1.53 -0.13,0.15 -0.57,0.55 -0.71,0.7 -0.36,0.39 -1.02,1.16 -1.04,1.18 -4.32,5.89 -0.59,2.42 -7.85,7.2 -2.94,1.93 -2.35,1.72 -3.04,3.4 4.08,3.38 23.03,0.9 27.24,-1.91 2.48,-1.65 3.31,-3.41 5.66,-5.44 6.6,-5.34 6.53,-21.91 7.39,-25.83 3.89,-17.73 5.22,-32.8 8.14,-50.31 0.4,-2.39 0.89,-2.66 1.36,-4.82 0.42,-1.91 0.43,-3.98 0.73,-5.95 0.25,-0.13 13.35,-2.59 11.37,-13.03 -1.54,-8.12 -8.48,-9.8 -15.33,-9.77 0.37,-4.7 4.12,-6.01 3.78,-10.51 -1.62,0.98 -0.38,-0.45 -1.79,1.52 -1.52,2.11 -0.37,0.05 -0.63,1.97z"/>
    <path class="fil12" d="M63.41 373.14l58.61 0.06c1.36,-4.28 2.45,-20.69 -5.02,-25.79 -4.15,-2.83 -8.07,-3.19 -10.74,-4.48 -12.43,-6 -31.7,-0.67 -37.53,4.12 -7.69,6.32 -7.07,21.02 -5.32,26.09z"/>
    <path class="fil13" d="M400.31 257.01l67.03 0.01c8.18,0 10.54,-1.15 9.5,-9.7 -5.46,-4.04 -15.26,-2.6 -24.86,-2.6l-57.95 0c-12.48,0 -10.37,11.38 -2.79,12.24 2.52,0.29 6.4,0.05 9.07,0.05z"/>
    <polygon class="fil14" points="162.41,265.07 162.53,227.72 133.15,227.59 133.42,264.92 "/>
    <path class="fil12" d="M156.65 321.2l92.86 0c5.88,-0 7.34,-0.08 6.82,-6.29 -4.07,-3.43 -11.53,-2.15 -20.09,-2.14l-78.9 -0c-3.87,-0 -6.91,-0.92 -7.33,3.47 -0.49,5.18 2.31,4.96 6.63,4.96z"/>
    <path class="fil12" d="M88.19 300.72c-15.46,4.51 -13.01,24.06 -5.07,29.6l4.2 2.01c3.04,1.21 -1.06,-0.33 0.98,0.42 1.14,0.42 -0.12,0.16 1.53,0.5 3.82,0.77 10.39,-1.19 12.29,-3.04l1.02 -1.1c7.62,-7.98 7.93,-18.23 -1.46,-26.29 -3.32,-2.85 -9.03,-3.4 -13.5,-2.09z"/>
    <path class="fil15" d="M248.66 585.09c-3.07,3.44 -1.36,4.12 0.61,6.77 4.55,4.86 7.14,1.95 9.74,0.61 3.37,-1.73 42.15,-0.72 47.75,-0.72 11.08,-0 55.94,0.55 63.04,-0.25 5.54,-8.58 -6.55,-6.24 -12.08,-6.24l-99.08 -0.06c3.07,7.62 -6.07,9.57 -8.27,5.8 -1.22,-2.09 -1.51,-8.58 5.21,-7.15l3.28 1.46c-1.04,-2.41 -1.58,-2.84 -5.19,-2.67 -2.76,0.12 -3.59,1.06 -5.02,2.44z"/>
    <path class="fil13" d="M414.28 227.88l39.8 -0.01c3.17,-0 4.03,0.48 5.93,-1.53 3.03,-3.21 4.82,-10.74 -10.11,-10.74 -12.74,0.01 -30.55,-0.66 -41.92,0 -6.02,0.35 -8.71,4.71 -7.22,8.68 1.78,4.77 8.24,3.59 13.54,3.58z"/>
    <path class="fil16" d="M135.39 565.15c-0.36,-4.23 -0.79,-1.95 -1.5,-5.37 -2.39,-11.4 0.11,-78.87 -0.93,-85.72l-0.29 -1.15c-0.77,-3.07 -14.97,-1.77 -20.01,-1.77 -3.26,-0 -6.52,-0.01 -9.78,0.01 -4.75,0.04 -5.44,-0.21 -8.46,-1.7 0.94,2.56 0.73,1.38 2.19,3.6l33.98 0.16 0.18 20.38 -40.22 0.23c-0.6,4.02 0.68,7.36 1.7,10.43l38.06 0.01c1.56,6.18 -0.23,37.38 0.42,47.98l2.13 10.29c1.05,2.56 2.23,2.44 2.53,2.63z"/>
    <path class="fil12" d="M231.21 341.75c2.55,-4.39 3.31,-1.96 1.72,-7.54 -4.33,-1.36 -51.75,-0.62 -63.01,-0.62 -5.08,0 -20.42,-2.77 -19.73,4.26 0.18,1.87 0.04,0.94 0.89,2.04 1.32,1.72 2.9,1.79 4.08,1.91l76.06 -0.06z"/>
    <path class="fil17" d="M150.32 360.23c2.89,1.86 3.74,2.03 7.72,2.03l57.95 -0.01c3.62,0 5.04,-0.59 7.48,-2.16 1.27,-9.09 -4.77,-7 -20.79,-7l-44.64 -0c-6.09,0 -9.02,0.19 -7.72,7.14z"/>
    <path class="fil18" d="M133.07 411.21l29.62 0.21c30.46,-0.06 71.44,1.03 100.79,0.11 13.2,-0.41 13.64,-8.87 13.63,-20.58 -0.03,-22.55 -0.06,-45.17 0.07,-67.72 0.06,-11.17 0.05,-22.34 0.05,-33.51 0,-4.39 0.78,-12.49 -0.51,-16.2 -0,-0.01 -1.04,-2.37 -1.27,-2.9 -0.83,-1.86 -1.03,-2.58 -3.98,-4.17 -2.11,-1.14 -2.16,-1.07 -4.25,-1.43 0.78,1.5 1.99,2.06 3.08,2.72 6.89,4.14 4.6,15.05 4.6,27.56 -0.01,16.76 1.02,105.65 -1.15,109.46 -2.82,4.95 -6.13,5.46 -13.08,5.45l-127.61 1z"/>
    <path class="fil19" d="M275.84 525.7c0,8.28 -0.84,9.2 1.64,14.59 6.9,0.64 11.07,-3.79 16.48,-6.34 2.28,-1.07 4,-0.89 3.95,-4.09 -0.08,-4.15 0.21,-1.09 -1.05,-2.62 -2.05,-2.48 -2.17,-0.83 -4.94,-2.75l-2.39 -1.75c-3.38,-1.94 -6.18,-4.26 -12.01,-3.87 -1.53,2.41 -1.67,2.97 -1.66,6.83z"/>
    <path class="fil20" d="M63.41 373.14c-1.75,-5.07 -2.37,-19.76 5.32,-26.09 5.83,-4.79 25.1,-10.12 37.53,-4.12 2.67,1.29 6.59,1.64 10.74,4.48 7.48,5.1 6.38,21.51 5.02,25.79l-58.61 -0.06zm-1.13 1.86l54.57 0.27c8.36,0 6.86,-1.47 6.8,-10.16 -0.07,-11.72 1.09,-17.43 -12.52,-22.42 -17.06,-6.25 -22.28,-4.6 -37.31,0.16 -7.8,2.47 -11.46,4.71 -12.1,14.57 -0.37,5.63 -0.73,12.11 0.55,17.58z"/>
    <path class="fil21" d="M249.27 591.86c-1.97,-2.65 -3.68,-3.33 -0.61,-6.77 -10.84,1.14 -36.44,-1.81 -43.97,1.36 -0.19,3.85 2.17,5.29 6.35,5.29 11.52,0.03 27.73,-0.53 38.23,0.12z"/>
    <path class="fil22" d="M258.65 585.2l0.23 0.11 -3.28 -1.46c-6.72,-1.43 -6.43,5.06 -5.21,7.15 2.19,3.76 11.33,1.81 8.27,-5.8z"/>
    <path class="fil23" d="M380.04 188.45l0 0zm0 0l0 0z"/>
    <line class="fil24" x1="380.04" y1="188.45" x2="380.04" y2= "188.45" />
   </g>
   <rect class="fil25" y="-0" width="610.23" height="684.45"/>
  </g>
 </g>
</svg>
