<?xml version="1.0" encoding="UTF-8"?>
<!DOCTYPE svg PUBLIC "-//W3C//DTD SVG 1.1//EN" "http://www.w3.org/Graphics/SVG/1.1/DTD/svg11.dtd">
<!-- Creator: CorelDRAW 2018 (64 Bit) -->
<svg xmlns="http://www.w3.org/2000/svg" xml:space="preserve" width="74mm" height="83mm" version="1.1" style="shape-rendering:geometricPrecision; text-rendering:geometricPrecision; image-rendering:optimizeQuality; fill-rule:evenodd; clip-rule:evenodd"
viewBox="0 0 348.3 390.66"
 xmlns:xlink="http://www.w3.org/1999/xlink">
 <defs>
  <style type="text/css">
   <![CDATA[
    .fil17 {fill:none}
    .fil7 {fill:#003998}
    .fil3 {fill:#009CFE}
    .fil9 {fill:#0257B4}
    .fil11 {fill:#16A6FD}
    .fil15 {fill:#18458D}
    .fil5 {fill:#2552A3}
    .fil2 {fill:#272977}
    .fil10 {fill:#5A87C3}
    .fil14 {fill:#64CAF9}
    .fil6 {fill:#8CDAE8}
    .fil1 {fill:#C4EAFE}
    .fil0 {fill:#D9ECED}
    .fil16 {fill:#E79C48}
    .fil13 {fill:#FC9593}
    .fil4 {fill:#FDAA3C}
    .fil8 {fill:#FEB6B2}
    .fil12 {fill:white}
   ]]>
  </style>
 </defs>
 <g id="Capa_x0020_1">
  <metadata id="CorelCorpID_0Corel-Layer"/>
  <g id="_1601820467488">
   <path class="fil0" d="M136.09 76.34c-1.16,4.71 1.45,11.79 -6.2,13.84 -1.27,0.34 -2.27,0.32 -3.76,0.32l-23.91 -0.01c-9.96,0.02 -6.15,0.85 -13.1,2.31 -2.57,0.54 -16.18,5.94 -20.64,7.27l-23.66 8.26c-1.01,0.52 -0.96,0.97 -1.69,1.5 1.09,2.28 0.8,6.37 0.83,9.57 0.07,8.04 0.88,0.27 1.17,9.19 0.09,2.84 0.71,1.19 1.09,3.93l1.12 6.81c0.13,0.58 0.21,1.49 0.28,2.11 0.49,4.15 3.74,15.96 4.51,20.63 0.91,5.52 3.52,10.7 3.83,16.35 2.71,0.8 0.26,0.89 4,0.42 0.61,-0.08 1.83,-0.16 2.43,-0.04l1.53 0.62c0.08,-0.1 0.25,0.14 0.37,0.23 3.87,4.62 2.36,6.06 1.22,11.66l-2.96 12.16 2.21 7.78c0.86,-0.94 1.32,-1.79 2.6,-2.46 1.44,-0.76 2.8,-0.6 3.94,-1.17 0.88,-10.19 -3,-26.74 5.83,-27.81 3.02,-0.37 3.34,0.82 3.72,1.49l0.95 0.72c0.5,0.45 0.8,0.8 1.18,1.24 1.78,2.06 1.77,2.98 3.02,5.69l1.47 3.17c1.28,-1.25 3.45,-8.92 4.12,-10.87l4.7 -10.03c1.4,-2.87 4.31,-6.97 7.69,-8.55l0.83 -0.39c0.09,-0.04 0.19,-0.09 0.27,-0.13 1.09,-0.43 2.01,-0.5 3.15,-0.11 0.09,0.03 0.19,0.08 0.28,0.11l0.8 0.39c0.8,0.41 0.53,0.21 1.21,0.75 3.55,2.79 3.09,7.83 1.71,11.48 -0.74,1.96 -0.15,1.76 -1.94,5.68l-11.43 22.04c-0.74,1.23 -2,3.79 -2.12,5.24 3.18,1.13 5.4,-0.91 8.27,-3.03l5.56 -3.59c1.96,-1.01 4,-2.47 6.86,-0.9 7.39,4.06 1.61,10.69 -2.81,14.46 -3.41,2.91 -9.57,6.97 -12.3,9.24 -0.81,0.67 -1.11,0.82 -1.86,1.33 -0.14,0.09 -0.77,0.53 -0.94,0.67l-6.63 4.51c-3.71,2.65 -1.78,1.23 -2.99,3.24 4.59,0.1 21.56,-9.29 21.93,-1.11 0.18,3.98 -4.88,6.5 -6.87,7.96 -2.48,1.82 -3.89,3.04 -6.64,4.49 -1.29,0.68 -0.93,0.79 -2.11,1.11 -0.51,1.44 -0.09,1.06 -3.71,3.18 3.45,5.4 4.95,-0.72 11.8,2.13 3.81,1.59 3.78,6.48 2.31,8.98 -0.34,0.58 -0.32,0.42 -0.79,1.21 -0.4,0.67 -1.36,0.98 1.36,3.4 0.71,0.63 1.62,1.31 2.42,1.96l9.95 7.62c4.03,2.94 3.53,2.31 7.06,4.18l3.62 2.28c0.07,0.05 0.16,0.13 0.23,0.18l12.08 5.86c2.33,1.23 4.51,1.65 6.67,2.56l0.62 -0.68c0.49,-0.39 -0.06,-0.19 1.13,-0.7 0.87,-2.75 2.21,-5 3.61,-7.33 2.53,-4.24 9.86,-3.49 12.79,-4.11 1.87,-0.39 1.35,-0.82 4.54,-1.01l9.57 -1.32c1.21,-1.86 -0.2,-2.1 -1.98,-5.7 -1.01,-2.05 -1.95,-3.78 -2.96,-5.78l-2.13 -6.27c-3.3,-9.19 -3.05,-11.87 1.74,-20l6.14 -10.95c0.61,-1.17 0.61,-1.57 1.17,-2.85 0.38,-0.86 1.17,-2 1.53,-2.8l2.46 -6.33c0.97,-2.28 1.35,-3.71 2.65,-5.77 2.07,-3.25 4.84,-5.86 8.21,-7.71 0.5,-0.28 0.25,-0.14 0.84,-0.43 5.31,-2.55 2.75,-2.78 11.79,-5.24l7.02 -1.98 4.26 -0.03 -2.74 -4.82c-1.44,-2.52 0.04,-3.92 -2.42,-5.22 -2.24,-1.18 -2.94,-0.82 -4.09,-3.05 -1.33,-2.56 -0.48,-3.83 -0.19,-6.67 0.01,-4.47 -0.28,-8.68 -0.08,-13.27 0.14,-3.24 0.06,-6 4.31,-8.75 4.46,-2.88 1.61,-4.09 6.21,-6.87 3.62,-2.19 13.38,-1.55 18.45,-1.45 0.93,0.02 2.63,-0.01 3.49,0.16 1.73,0.34 5.05,1.87 6.81,3.04 0.71,0.47 1.12,0.75 1.8,1.38 4.58,4.25 4.88,16.85 4.69,24.95l-1.25 -0.06c1.57,0.66 2.23,3.26 1.64,5.88 -0.6,2.64 -2.17,3.67 -4.47,3.98 -0.27,1.54 -1.57,5.18 -2.35,6.43l-3.35 5.55c2.06,-0.92 0.14,-1.45 2.89,-1.2 1.12,0.1 1.96,0.66 3.65,0.88 2.81,0.37 4.08,1.36 6.53,1.42l1.64 -0.14 1.22 -2.62c0.23,-0.6 0.01,0.08 0.31,-0.87 0.46,-1.45 0.04,-0.86 0.82,-2.09 0.64,-1 0.43,-0.15 0.71,-1.44 0.16,-0.71 -0.03,-0.53 0.27,-1.43 0.04,-0.11 0.08,-0.21 0.13,-0.32 0.04,-0.1 0.1,-0.19 0.15,-0.28l8.88 -33.72c0.23,-1.95 0.79,-2.09 1.04,-3.68l1.41 -8.62c0.19,-1.46 0.6,-2.71 0.87,-4.31 0.67,-3.94 -0.45,-4.36 2.31,-4.64 0.53,-0.05 1.44,-0.02 2,-0.01 5.81,0.05 23.42,-0.37 26.52,0.29 2.73,0.61 15.46,0.12 19.31,0.12 16,-0.02 12.87,-3.43 12.9,-26.99 0.01,-3.69 0.56,-10.14 -0.92,-13.66 -0.53,-1.26 0.69,0.71 -0.44,-0.65l-2.37 -2.02c0.68,1.87 1.77,1.67 2.46,3.51 0.61,1.64 0.59,34.12 -0.09,35.53 -1.26,2.59 -3.2,3.72 -6.75,3.73l-113.98 -0.15c-7.06,-0 -15.08,1.56 -16.95,-4.21 -1.32,-4.06 -0.6,-23.34 -0.64,-30.45 -0.07,-11.59 9.42,-8.71 22.37,-8.71 27.63,0 55.71,0.48 83.29,-0.02l0 -0.64c-4.63,0.16 -83.69,0.82 -89.26,0.1 -1.44,-0.18 -3.67,-1 -4.83,-1.48 -1.99,-0.82 -2.74,-0.42 -4.61,-1.38 -2.47,-1.26 -4.65,-1.55 -6.78,-2.7 -2.39,-1.29 -18.1,-6.79 -21.14,-7.59l-13.49 -5.15c-1.18,-0.53 -1.04,-0.32 -2.43,-0.76 -1.45,-0.46 -1.13,-0.72 -2.24,-0.91 -1.17,-0.2 -1.59,0.15 -2.39,0.49l-11.36 4.18c-2.78,1 -11.95,3.6 -13.63,5.04z"/>
   <path class="fil1" d="M297.88 316.21c-1.7,0.33 -3.76,1.61 -5.57,2.4 -1.22,0.53 -1.18,0.58 -2.75,1.22l-3.73 1.52c-2.67,1.27 -6.95,2.53 -9.76,3.32l0.08 0.95c2.46,0.33 0.93,0.41 3.73,1.42 7.37,2.64 11.72,6.28 10.37,14.77 -0.6,3.75 -1.73,3.94 -4.07,6.18 -5.8,5.55 -13.53,0.84 -20.01,-1.66 -1.07,-0.41 -1,-0.24 -1.99,-0.78 -0.9,-0.5 -0.24,-0.36 -1.49,-0.78l-5.37 -2.21c-0.9,-0.41 -0.91,-0.22 -1.92,-0.75 -2.72,-0.2 -1.22,0.72 -2.91,0.92 -1.64,0.19 -5.37,-1.48 -7.23,-1.73l-5.67 -1.24c-1.3,-0.4 -0.7,-0.49 -2.53,-0.98 -0.59,-0.16 -2.01,-0.53 -2.58,-0.57 -1.8,-0.11 -11.71,2.67 -13.73,3.34 -1.01,0.33 -0.79,0.43 -2.45,0.77 -4.26,0.88 -2.72,-0.57 -5.05,-0.85 -1.31,1.11 -12.36,5.12 -16.65,7.4l-5.13 1.72c-3.38,0.48 -6.27,-0.2 -8.35,-1.62 -4.93,-3.36 -5.66,-7.34 -4.69,-12.89 0.06,-0.35 0.11,-0.69 0.21,-1.03 1.24,-4.19 4.21,-5.74 7.42,-7.08l5.13 -2.34 0.11 -1.12c-2.9,-0.18 -5.25,-2.24 -6.88,-2.11 -2.31,-0.01 -1.89,-1 -4.55,-1.39 -3.72,-0.55 -1.84,0.26 -6.73,1.09 -2.59,0.44 -1.12,0.4 -2.07,0.8 -0.84,0.35 -3.3,0.26 -4.54,0.66 -5.59,1.8 -3.65,0.69 -8.53,-0.2 -2.48,-0.45 -2.45,0.1 -4.62,-0.86 -0.08,-0.04 -0.18,-0.09 -0.27,-0.13l-2 -0.48c-1,-0.2 -1.05,-0.27 -1.8,-0.53l-12.6 -3.86c-5.45,-1.8 -9.08,-3.89 -14.02,-6.26 -0.95,-0.46 -0.09,-0.01 -0.79,-0.36l-3.38 -1.56c-0.07,-0.15 -0.23,-0.11 -0.35,-0.15 1.13,2.74 3.39,1.19 4.17,3.53 -1.74,1.23 -19.69,1.93 -23.15,2.27l-6.8 0.29c-0.03,-0.08 -0.16,-0.02 -0.24,-0.04 -1.15,-2.38 1.86,-12.82 2,-16.07 0.13,-2.86 -0.49,-4.07 2.26,-3.78 -1.11,-1.4 -1.5,-1.24 -2.3,-1.57 -0.43,1.33 -1.13,6.02 -1.4,7.43l-2.66 19.31c-0.24,1.14 -0.75,1.67 -0.91,3.34 -0.46,4.69 -0.21,3.21 -1.39,7.45 -0.52,1.84 -2.44,3.5 -3.99,4.75 -3.67,2.94 -5.9,2.52 -10.62,2.56l-3.99 -0.42c0.09,-0.06 0.22,-0.1 0.28,-0.13l2.31 -1.28c6.03,-4.39 5.22,-9.34 6.08,-13.49l1.95 -13.78c0.16,-2.42 1.14,-3.67 1.33,-6 0.25,-3.12 0.69,-4.37 0.99,-7.12 0.32,-2.93 1.25,-2.8 0.97,-6.34 -7.28,-0.62 -45.32,0.94 -48.16,-0.68l-0.1 -4.05c0.23,-1.52 -0.48,0.12 0.32,-0.74 1.64,-1.28 31.7,-0.4 36.45,-0.4 6.11,-0.01 12.22,0 18.33,0 7.08,-0 11.5,0.84 13.28,-5.21 0.68,-2.31 -0.26,-3.7 -1.59,-5.07l-1.03 -0.99c-1.99,-1.65 -4.94,-1.98 -8.26,-1.31 -5.75,1.16 -28.13,0.42 -35.88,0.52 -3.68,0.05 -11.01,0.42 -14.42,-0.48 -2.92,-0.77 -1.48,0.14 -2.52,-0.97 -0.02,-0.03 -0.35,-0.4 -0.4,-0.46 -0.09,-0.11 -0.35,-0.2 -0.41,-0.49 -0.04,-0.17 -0.16,-0.18 -0.24,-0.28 -1.2,-0.15 -0.56,-0.29 -2.32,-0.69 0.99,2.22 0.64,0.56 1.78,2.23 -4.46,0.01 -9.05,-0.36 -10.63,4.57 -0.62,1.95 -0.42,4.66 0.76,6.19 1.24,1.62 2.63,2.14 5.25,2.64 0.27,3.12 1.43,5.99 2.12,9.14l2.99 19.76c0.98,3.82 0.63,3.43 1.14,7.31 0.58,4.47 -0.9,3.4 -8.35,5.27l-5.53 2.02c-1.93,0.51 -1.95,0.09 -3.47,1.19 -2.06,1.49 -11.29,4.93 -11.11,10.72l0.72 2.92c0.26,0.75 0.25,0.93 0.54,1.4l5.64 4.14 7.69 3.13c1.09,0.49 1.88,0.6 2.98,0.98 1.56,0.54 4.33,1.27 5.92,1.67 2.38,0.6 3.57,0.9 6.23,1.37 3,0.53 5.92,1.71 8.88,2.22 1.21,0.2 2.15,0.19 3.47,0.54l26.29 4.04c4.86,0.62 8.67,1.33 13.67,1.42 5.22,0.1 8.49,1.12 13.95,1.19 2.45,0.03 5.01,-0.03 7.41,0.26 0.95,0.12 2.21,0.23 3.09,0.47 3.89,1.01 14.14,0.55 18.59,0.58 5.18,0.04 3.39,0.43 6.47,0.93 2.67,0.43 46.63,0.4 52.47,0.06 4.27,-0.25 10.14,-0.64 14.37,-0.75 4.5,-0.12 10.25,-0.19 14.45,-0.6 3.95,-0.39 18.9,-1.02 21.2,-1.54 2.72,-0.62 3.92,-0.45 7,-0.62l33.43 -4.45c2.46,-0.38 4.35,-1.02 6.11,-1.36 1.19,-0.23 2.32,-0.08 3.48,-0.22 1.8,-0.21 1.57,-0.68 2.9,-0.98 1.17,-0.27 1.94,-0.09 3.2,-0.44l6.02 -1.57c1.45,-0.39 2.12,-0.12 3.31,-0.65 1.49,-0.67 0.43,-0.6 2.93,-0.85 2.22,-0.22 1.44,-0.32 2.94,-0.9l4.11 -1.49c0.95,-0.41 0.37,-0.17 1.34,-0.63l0.56 -0.26c0.1,-0.04 0.2,-0.08 0.3,-0.11l2.11 -1c0.07,-0.05 0.17,-0.12 0.24,-0.17 1.46,-0.91 2.25,-1.83 3.85,-2.6 1.46,-0.7 1.1,-0.37 2.07,-1.71 0.05,-0.07 0.12,-0.17 0.18,-0.24 1.31,-1.77 2.02,-2.38 1.94,-4.99 -0.06,-2.09 -0.75,-2.19 -1.8,-3.51l-3.91 -3.53c-0.47,-0.24 -0.78,-0.27 -1.43,-0.56l-5.36 -2.33c-0.92,-0.55 -1.01,-0.72 -2.14,-1.33l-11.76 -3.32c-1.96,-0.34 -0.83,-0.59 -3.01,-0.97 -1.22,-0.22 -2.03,-0.06 -3.24,-0.45 -1.45,-0.46 -0.96,-0.5 -2.95,-0.92l-1.02 -0.26c-2.14,-0.73 -3.37,-0.86 -5.66,-0.89 0.08,-0.11 0.19,-0.41 0.24,-0.33l4.11 -2.26c1.64,-0.83 1.74,-0.12 2.76,-2.1z"/>
   <path class="fil2" d="M272.33 284.95c-0.92,1.21 -7.97,2.88 -11.81,5.07 -1.27,0.73 -2.47,0.94 -4.02,1.6 -2.76,1.16 -4.82,2.63 -8.82,2.69 -6.77,0.11 -42.71,0.59 -45.53,-0.75 -3.15,-1.5 -3.51,-6.55 -3.72,-7.29 -5.52,-1.19 -9.09,-4.48 -12.87,-7.92 -0.06,-0.05 -0.15,-0.14 -0.21,-0.19l-2.4 -3.57 -1.46 -0.06 -9.57 1.32c-3.2,0.18 -2.67,0.61 -4.54,1.01 -2.93,0.62 -10.25,-0.13 -12.79,4.11 -1.4,2.33 -2.74,4.59 -3.61,7.33 -0.59,5.2 -2.7,6.81 1.88,13.97 5.01,7.83 16.97,14.12 25.56,17.41l5.99 2.71c1.62,-0.12 3.98,1.94 6.88,2.11l-0.11 1.12 1.04 -0.87c0.54,-1.99 -1.1,1.59 0.05,-0.36 5.81,0.13 9.69,-4.72 15.14,-4.82 2.35,2.64 3.51,7.33 5.04,10.38 0.53,1.06 0.56,1.32 1.05,2.46 0.5,1.15 0.69,1.82 1.12,2.93 0.47,1.22 0.49,2.05 0.92,3.06 0.68,1.62 0.91,-0.08 0.69,2.64l-3 0.42c2.33,0.28 0.8,1.72 5.05,0.85 1.65,-0.34 1.44,-0.44 2.45,-0.77 2.02,-0.67 11.93,-3.44 13.73,-3.34 0.58,0.03 1.99,0.41 2.58,0.57 1.84,0.49 1.24,0.59 2.53,0.98l5.67 1.24c1.85,0.25 5.59,1.92 7.23,1.73 1.69,-0.19 0.19,-1.12 2.91,-0.92 -0.41,-0.93 -1.32,-0.63 -2.81,-0.98 -0.11,-2.14 2.06,-8.68 3.42,-9.81 0.58,-0.48 9.37,-3 10.62,-3.11l1.76 -0.42c0.83,-1.24 1.68,-0.75 4.04,-1.33 3.36,-0.82 1.96,-0.95 3.64,-1.48 2.81,-0.79 7.08,-2.04 9.76,-3.32l3.73 -1.52c1.57,-0.63 1.53,-0.69 2.75,-1.22 1.81,-0.79 3.87,-2.07 5.57,-2.4 0.95,-0.99 1.7,-1.16 3.15,-1.96 8.41,-4.64 18.01,-10.31 17.6,-21.92 -0.08,-2.18 -1.14,-4.74 -1.94,-6.41 -1.52,-3.2 -2.24,-6.21 -6.11,-7.85 -0.45,-0.19 -0.4,-0.14 -0.85,-0.36 -0.64,-0.31 -0.13,-0.21 -0.99,-0.54 -0.98,-0.37 -1.39,-0.24 -2.48,-0.28 -2.89,-0.1 -2.53,-0.81 -4.43,-1.09 -0.9,-0.13 -1.81,-0.03 -2.71,-0.15l-2.1 -0.69c-1.52,-0.62 -3.73,-0.48 -5.53,-0.52 -1.14,-0.11 -2.57,-0.78 -2.93,-0.8 -1.08,-0.07 -1.67,0.83 -2.16,1.56l-3.35 4.28c-2.68,2.68 -7.45,4.96 -10.71,5.44z"/>
   <path class="fil3" d="M181.5 274.51l1.46 0.06 2.4 3.57c0.06,0.06 0.15,0.14 0.21,0.19 3.78,3.45 7.36,6.73 12.87,7.92 0.57,-7.19 0.09,-25.11 0.08,-34.19 -0.01,-5.25 2.87,-4.65 3.72,-7.2 11.23,-0.67 24.06,-0.12 35.47,-0.12 2.25,-0 29.22,-0.32 30.74,0.25 0.12,0.05 1.08,0.55 1.61,0.8 1.62,0.75 0.85,-0.26 1.18,0.72 0.2,-0.07 -0.7,-0.4 -1.2,-0.07 2.66,1.71 2.3,3.6 2.29,7.65l0 30.85c3.26,-0.48 8.03,-2.77 10.71,-5.44l3.35 -4.28c0.49,-0.74 1.08,-1.63 2.16,-1.56 0.36,0.02 1.79,0.69 2.93,0.8 -1.01,-1.13 -0.9,-0.62 -2.39,-1.19 0.09,-1.27 0.44,-1.76 1.15,-2.94 1.6,-2.66 4.9,-9.44 5.59,-11.96l1.09 -3.24c0.46,-1.43 0.1,-2.6 0.54,-3.93 1.84,-5.44 0.99,-4.79 -0.18,-8.35 -0.14,-0.43 -0.05,-0.39 -0.27,-0.96l-6.62 -12.21c-0.74,-1.43 -0.81,-1.4 -1.45,-2.97 -0.53,-1.29 -1.16,-1.55 -1.02,-2.84l-1.34 -0.32c-0.13,-0.61 -0.17,-1.06 -0.41,-1.61 -0.04,-0.09 -0.1,-0.18 -0.14,-0.27l-7.83 -16.47c-1.74,-2.11 -6.66,-6.4 -9.35,-7.18 -0.93,-0.27 -1.42,-0.47 -2.44,-0.9 -1.32,-0.56 -1.02,-0.65 -2.17,-0.95 -1.68,-0.43 -2.14,0.45 -2.48,-1.17 -2.45,-0.07 -3.72,-1.05 -6.53,-1.42 -1.69,-0.22 -2.53,-0.78 -3.65,-0.88 -2.74,-0.25 -0.83,0.28 -2.89,1.2 -1.66,3.67 -0.24,6.01 -1.61,9.34 -0.39,2.11 -1.54,3.43 -2.74,5.31 -1.15,1.8 -2.46,2.27 -4.18,3.39 -3.41,2.24 -8.19,1.46 -10.53,-1.57 -2.38,-0.71 -4.22,-4.33 -5.08,-6.45l-0.5 -1.12c-0.8,-1.82 -0.53,-3.4 -0.51,-5.7 0.05,-5.25 -2.39,-4.57 -5.57,-4.39l-7.02 1.98c-9.05,2.46 -6.49,2.69 -11.79,5.24 -0.59,0.29 -0.34,0.15 -0.84,0.43 -3.36,1.85 -6.14,4.47 -8.21,7.71 -1.31,2.06 -1.69,3.49 -2.65,5.77l-2.46 6.33c-0.36,0.8 -1.14,1.93 -1.53,2.8 -0.57,1.29 -0.56,1.69 -1.17,2.85l-6.14 10.95c-4.79,8.13 -5.04,10.81 -1.74,20l2.13 6.27c1.02,1.99 1.95,3.72 2.96,5.78 1.78,3.6 3.19,3.84 1.98,5.7z"/>
   <path class="fil4" d="M338.53 87.92c-1.92,0.11 -0.99,-0.83 -6.78,-0.8l-23.52 0.02c-27.58,0.51 -55.65,0.03 -83.29,0.02 -12.95,-0 -22.44,-2.87 -22.37,8.71 0.04,7.11 -0.68,26.39 0.64,30.45 1.87,5.77 9.89,4.21 16.95,4.21l113.98 0.15c3.55,-0.01 5.49,-1.14 6.75,-3.73 0.68,-1.4 0.7,-33.88 0.09,-35.53 -0.69,-1.84 -1.78,-1.65 -2.46,-3.51z"/>
   <path class="fil5" d="M13.82 185.7c-1.5,1.2 -1.98,3.94 -1.16,6.51 1.18,3.69 1.81,5.36 4.55,9.01l6.75 8.77c1.82,2.04 8.72,10.08 9.08,12.02 0.36,1.92 -0.07,0.96 -0.34,1.26 -2.64,1.95 -7.25,-2.54 -8.8,-3.63 -1.59,-1.12 -2.27,-1.72 -3.8,-2.97 -2.66,-2.17 -4.97,-4.27 -8.17,-5.75 -2.06,-0.95 -3.87,-0.57 -5.09,1.56 -1.49,2.62 -1.3,4.52 0.11,6.97 2.35,4.1 4.66,6.55 8.26,9.63 6.55,5.6 12.17,9.36 19,15.69 1.25,1.16 2.6,2.62 2.19,4.83 -1.81,0.1 -2.81,0.22 -4.24,-0.41l-3.57 -1.23c-0.7,-0.33 -2.41,-1.31 -3.06,-1.59 -1.38,-0.6 -2.45,-0.42 -4.11,-1.12 -4.89,-2.07 -12.26,1.28 -8.02,7.61 1.94,2.9 7.55,7.12 10.69,8.8l9.63 5.93c1.57,1.05 0.71,0.85 2.35,1.14 1.76,0.4 1.12,0.54 2.32,0.69 1.61,0.14 0.7,-0 2.07,0.61 3.23,1.46 -1.61,-0.39 0.86,0.42 2.34,0.76 13.15,0.3 15.69,0.18 -0.33,-8.1 -3.43,-3.97 -7.82,-5.79l-10.18 -3.33c-3.16,-1.05 -17.24,-7.05 -17.54,-9.32 0.56,-0.23 1.11,-0.45 1.94,-0.13 1.5,0.58 -1.06,-0.69 0.68,0.43l16.91 7.83c2.28,0.87 4.19,1.79 6.58,2.19 1.8,0.3 1.14,0.39 2.3,0.83 1.59,0.6 3.94,0.41 5.72,0.37 -0.12,-1.57 -2.87,-8.78 -3.51,-11.21l-1.88 -5.32c-0.52,-1.15 -0.35,-1.79 -0.77,-2.84 -0.13,-0.33 -1.04,-1.94 -1.41,-2.66 -1.88,-0.29 -2.42,-0.78 -4.32,-1.55l-12.61 -6.54c-4.76,-2.96 -8.64,-6.07 -12.94,-9.38 -1.75,-1.35 -1.16,-0.08 -1.4,-2.26 3.03,0.16 5.26,3.17 7.53,4.84l11.47 7.59c1.08,0.67 0.1,0.15 0.96,0.57l8.54 3.95c1.04,0.44 1.01,0.81 2.28,0.73l-3.71 -13.84c-0.31,-2.38 -0.76,-1.54 -1.07,-3.35l-0.92 -3.98c-1.38,-3.39 0.71,-3.13 -2.99,-6.22l-7.12 -6.09c-2.44,-2.31 -10.46,-9.4 -11.03,-12.42 2.64,0 3.21,2.05 5.28,4.25 2.98,3.18 5.72,6.09 9.29,8.98l3.66 3.17c1.61,1.13 0.11,0.63 1.51,0.55l1.14 -1.61 0.43 2.66c0.24,1.57 0.63,0.98 0.89,2.63 0.38,2.32 0.35,2.84 1.33,5.07l0.43 0.91c0.04,0.07 0.1,0.21 0.17,0.3l1.64 -6.46c0.03,-0.07 0.08,-0.16 0.12,-0.23l0.45 -0.71c0.05,-0.09 0.1,-0.19 0.14,-0.29l1.22 -3.17c0.23,-0.54 0.24,-0.75 0.43,-1.2l5.84 -13.21c0.04,-0.08 0.09,-0.18 0.13,-0.27 0.04,-0.08 0.1,-0.18 0.14,-0.26 0.3,-0.55 0.14,-0.19 0.59,-1.03 0.77,-1.43 1.07,-2.65 2.93,-2.81 0.05,2.16 -2.79,6.19 -3.8,8.3 -0.62,1.3 -0.26,0.28 -0.69,1.27 -0.26,0.59 -0.32,0.98 -0.54,1.46l-5.75 14.8c-0.48,1.6 -0.55,0.96 -1.09,2.88 -0.58,2.05 -2,3.85 -0.91,6.76 0.67,1.8 0.61,0.45 0.89,2.9 0.32,2.76 0.5,1.5 1.02,3.29 0.53,1.84 -0.1,1.47 0.77,3.19 0.88,1.74 0.6,1.45 0.73,3.55l1.32 0.64c1.76,-0.81 7.27,-8.65 8.96,-11.19 0.05,-0.07 0.11,-0.17 0.16,-0.25l4.8 -6c0.78,-0.91 1.62,-1.83 2.43,-2.83 0.58,-0.72 0.77,-1.09 1.17,-1.52 1.48,-1.58 0.24,-0.81 2.36,-1.24 -0.25,2.72 -0.68,2.02 -2.16,3.76 -0.86,1 -1.63,1.99 -2.5,3.08 -1.74,2.19 -3.36,4.02 -4.8,5.95 -0.75,1 -1.5,1.9 -2.27,2.98l-7.06 9.06c-1.28,1.39 0.58,4.5 0.94,5.98l5.14 15.71c2.44,0.01 4.32,-3.57 5.72,-5.29 1.44,-1.77 3.65,-4.14 5.33,-6.27 2.29,-2.93 6.15,-7.94 9.04,-10.88 0.68,-0.69 0.79,-0.95 1.83,-1.17 0.9,1.7 -2.08,4.28 -4.38,6.98 -1.84,2.15 -3.62,4.37 -5.45,6.5l-5.58 6.72c-1.74,2.07 -3.69,4.31 -6.01,5.5l0.59 4.49c2.21,0.76 4.24,0.36 6.64,0.54 3.53,0.4 25.17,1.22 28.48,-0.31 1.92,-0.88 4.89,-2.37 5.92,-4.31 -1.17,0.25 -0.57,0.12 -1.35,0.55l-3.45 2.07c-2.04,1.43 -3.42,1.81 -6.26,1.81 -4.95,0 -10.37,0.18 -15.26,-0.15 1.63,-0.85 1.07,-0.88 2.95,-1.12l10.51 -2.92c1.45,-0.74 1.73,-0.45 3.44,-0.73 2.8,-0.47 0.38,-0.76 3.15,-1.12l5.47 -1.38c2.17,-0.78 0.82,0.8 1.29,-1.79 -2.15,-0.47 -2.38,-0.73 -4.49,0.24 -1.88,0.87 -1.87,0.21 -3.79,0.9 -1.42,0.51 -0.32,0.43 -1.6,0.77l-3.87 0.99c-1.17,0.47 -1,0.14 -2.23,0.38 -2.91,0.56 -0.27,0.76 -3.56,1.12 -1.74,0.19 -2.13,0.99 -4,1.19 -3.41,0.35 -2.12,0.76 -3.72,1.13 -0.89,0.21 -4,0.42 -4.85,0.21 -0.15,-1.62 2.16,-3.59 3.17,-4.78 1.08,-1.26 0.8,-1.65 1.62,-2.79l6.38 -10.36c0.04,-0.08 0.09,-0.19 0.13,-0.28l1.61 -3.07c0.71,-1.73 0.31,-1.1 2.13,-1.95 1.7,-0.8 1.64,-0.53 3.35,-1.09l3.26 -1.09c1.93,-0.49 0.53,-0.58 3.26,-1.13l6.65 -2.02c0.45,-0.16 7.11,-1.03 4.94,-3.08 -1.52,-0.69 -0.82,-0.17 -2.04,0.32 -1.36,0.54 -1.55,0.2 -3.06,0.59 -1.66,0.43 -0.55,0.54 -2.18,0.88 -1.56,0.32 -1.41,-0.1 -3,0.6 -1.51,0.66 -0.45,0.36 -2.48,0.72 -2.31,0.42 -1.12,0.48 -2.57,0.96l-2.76 0.82c-1.41,0.67 -1.46,0.58 -3.2,0.76 -0.02,-3.74 1.67,-8.04 -0.75,-10.72 -1.21,-1.35 -1.48,-0.84 -2.34,-2.09l1.26 -1.61c0.4,-0.31 1.42,-0.8 2.01,-1.14 1.26,-0.71 0.62,-0.22 1.69,-1.14 0,-0 0.55,-0.54 0.82,-0.79 2.47,-2.26 -2.12,1.28 0.84,-0.68l7.33 -5.02c3.25,-2.4 6.35,-4.13 9.88,-6.02 0.07,-0.04 0.18,-0.1 0.25,-0.14l3.39 -1.72c2.8,-0.91 1.67,0.46 2.08,-2.08 -2.81,-1.06 -3.76,0.27 -6.06,1.44 -0.2,0.1 -0.69,0.34 -0.84,0.42l-2.37 1.46c-0.09,0.04 -0.2,0.08 -0.28,0.13l-1.6 0.9c-1.66,0.94 -0.48,0.15 -1.65,1.08l-6.01 3.89c-2.59,1.34 -6.11,5.55 -8.9,5.92 0.6,-1.64 0.42,-1.98 1.1,-3.31l3.94 -9.7c0.04,-0.09 0.09,-0.2 0.13,-0.28l15.77 -31.88c0.62,-1.41 0.4,0.62 0.8,-2.35 -3.1,0.18 -2.75,1.59 -4.03,3.63l-3.74 6.7c-0.04,0.09 -0.07,0.2 -0.11,0.29 -0.48,1.08 -0.1,0.36 -0.49,1.04l-4.64 9.32c-0.04,0.07 -0.1,0.16 -0.14,0.24 -0.04,0.07 -0.11,0.16 -0.15,0.24l-0.88 1.94c-0.04,0.07 -0.1,0.17 -0.14,0.24l-1 2.25c-0.13,0.3 -0.35,0.53 -0.67,1.35l-2.66 6.09c-0.35,0.83 -0.25,0.65 -0.6,1.3 -0.65,1.22 0.11,-1.06 -0.55,1.16 -0.15,0.51 -0.17,1.15 -0.22,1.62 -1.43,-0.87 -0.86,-0.33 -1.15,-1.97 -0.43,-2.41 -0.78,-1.86 -1.07,-3.1 -0.36,-1.53 0.28,-1.59 -0.54,-3.51 -0.78,-1.82 -0.68,0.1 -0.73,-2.91 -0.07,-4.09 -1.26,-2.56 -1.2,-6.36 0.05,-3.12 0.51,-5.49 -2.38,-6.3 -0.07,0.1 -0.12,0.16 -0.13,0.34l0.16 6.78c0.22,2.18 0.79,2.16 1.04,3.02 0.33,1.13 0.02,2.53 0.2,3.75 0.35,2.35 0.81,1.48 1.07,2.89 0.32,1.78 -0.29,1.72 0.61,3.63 0.62,1.32 0.25,-0.08 0.56,1.18 0.78,3.2 1.3,2.31 1.3,4.97 0,1.19 0.07,2.86 -0.25,3.53 -0.03,0.07 -0.11,0.15 -0.14,0.22 -0.04,0.07 -0.12,0.15 -0.16,0.22 -0.45,0.8 0.15,-0.7 -0.45,0.84 -0.3,0.77 -0.21,0.99 -0.44,1.57 -0,0 -0.35,0.52 -0.67,1.34 -0.05,0.12 -0.27,1.16 -0.41,1.57 -0.36,1.07 -0.21,0.27 -0.6,1.18 -0.47,1.08 -0.14,0.82 -0.48,1.85 -0.51,1.55 -2.38,1.69 -4.39,3.66 -2.02,1.97 -2.07,2.51 -3.6,4.82l-0.34 -0.51c-2.13,-3.01 -3.47,-3.84 -1.72,-7.5l1.37 -3.02c0.46,-1.16 0.21,-0.26 0.67,-1.32 0.32,-0.74 0.28,-1.08 0.63,-1.79 0.54,-1.1 1.64,-1.63 1.92,-2.44 0.39,-1.11 0.05,-2.92 0.32,-3.87 0.41,-1.45 0.82,0.04 1.02,-2.69 0.07,-1 0.15,-3.36 -0.12,-4.24 -0.44,-1.41 -0.95,-1.57 -1.21,-3.07 -0.84,-4.96 -0.74,-11.92 -0.55,-17.04 0.09,-2.41 0.46,-3.28 1.07,-5.22 1.16,-3.66 3.95,-3.71 7.85,-3.37 -0.38,-0.68 -0.7,-1.86 -3.72,-1.49 -8.84,1.07 -4.96,17.62 -5.83,27.81 -1.14,0.56 -2.5,0.41 -3.94,1.17 -1.28,0.67 -1.74,1.52 -2.6,2.46l-2.21 -7.78 2.96 -12.16c1.14,-5.6 2.65,-7.04 -1.22,-11.66 -3.87,-0.23 -5.01,-0.75 -7.25,1.36 -2.03,1.9 -1.99,2.52 -3.27,5.07 -0.49,0.98 -0.94,2.13 -1.25,3.15 -0.59,1.88 -0.51,1.31 -1.18,2.75 -0.74,1.6 -1.53,4.26 -3.31,5.14 -2.32,-1.06 -1.42,-2.23 -1.81,-5.12 -0.23,-1.69 -0.78,-3.15 -0.93,-5.27 -0.58,-8.5 -1.71,-26.19 -7.36,-32.13 -2.21,-2.32 -6.4,-2.64 -9.02,-0.12 -3.3,3.19 -3.37,11.84 -2.49,16.88 0.42,2.39 0.8,2.57 1,5.43 0.21,2.94 0.64,1.79 1.2,5.19 0.53,3.23 0.96,0.93 1.01,5.9 -2.63,-0.25 -2.45,-0.09 -4.53,-1.33 -2.23,-1.34 -4.68,-2.37 -7.38,-2.18 -2.69,0.19 -1.45,0.74 -3.89,1.32z"/>
   <path class="fil6" d="M13.14 118.85c0.57,-2.44 -0.01,-4.74 -0.38,-6.71 -0.36,-1.96 -0.03,-5.29 -0.39,-7.6 -0.28,-1.86 -0.24,-5.03 -0.23,-7.47 0.02,-2.94 -0.4,-4.65 -0.4,-7.56l1.7 -0.83c0.11,-0.03 0.22,-0.05 0.34,-0.08 0.12,-0.03 0.22,-0.05 0.34,-0.09l1.9 -0.86c1.37,-0.38 1.39,0.18 3.09,-0.64l2.19 -0.89c0.11,-0.04 0.22,-0.07 0.33,-0.1l3.67 -1.68c0,-2.68 -0.57,-53.2 0.41,-55.12l2.09 -2.67c2.54,-3.57 8.6,-2.55 13.84,-2.55l78.51 0c2.52,0 5.56,-0.16 8.01,-0.01 3.39,0.2 5.92,2.59 6.17,5.71l-0.12 11.9c0.43,1.38 0.62,0.21 1.01,2.49 1.59,0 0.88,3.37 0.88,7.17l0 25.09c1.67,-1.45 10.84,-4.05 13.63,-5.04l11.36 -4.18c0.8,-0.34 1.22,-0.69 2.39,-0.49 1.12,0.19 0.79,0.46 2.24,0.91 1.38,0.43 1.24,0.23 2.43,0.76l13.49 5.15c3.04,0.8 18.75,6.3 21.14,7.59 2.13,1.15 4.31,1.44 6.78,2.7 1.87,0.95 2.61,0.56 4.61,1.38 1.16,0.48 3.39,1.29 4.83,1.48 5.57,0.71 84.63,0.06 89.26,-0.1 -0.95,-0.07 -0.75,-0.42 -2.07,-0.82l-29.58 -10.38c-1.32,-0.47 -1.67,-0.18 -2.88,-0.74l-7.29 -2.33c-0.08,-0.03 -0.17,-0.09 -0.25,-0.12 -0.08,-0.04 -0.17,-0.1 -0.25,-0.14l-8.43 -3.15c-1.17,-0.41 -0.84,-0.61 -2.65,-0.98 -2.35,-0.48 -0.91,-0.19 -2.48,-0.96 -4.17,-2.04 -13.87,-4.67 -18.66,-6.82 -2.44,-1.09 -0.85,0.25 -4.91,-1.5l-0.62 -0.23c-2.04,-0.71 -3.59,-1.46 -5.46,-2.11 -0.98,-0.34 -1.75,-0.34 -2.89,-0.76l-4.32 -1.58c-4.2,-2.02 -8.41,-3.26 -12.7,-4.82l-36.25 -12.77c-5.03,-2.23 -3.72,-1.05 -8.25,0.14 -2.96,0.78 -0.41,-0.46 -4.05,1.15l-9.46 3.3c-1.87,0.93 -7.11,2.68 -8.92,2.76 -0.08,-4.35 0.57,-13.32 -0.77,-16.18 -0.64,-1.36 -2.35,-2.92 -3.51,-3.55 -1.86,-1.02 -83.9,-0.43 -95.53,-0.44 -1.57,-0 -4.34,-0.24 -5.73,0.21l-3.67 2.2c-2.67,3.49 -1.98,4.61 -1.98,9.83 0,9.05 0.44,42.14 -0.16,48.28 -3.83,0.94 -8.69,3.13 -11.63,3.94 -1.37,0.38 -0.89,-0.26 -1.64,0.69 -1.78,1.53 0.26,13.07 0.36,15.21 0.23,4.83 -0.7,12.11 1.52,15.02z"/>
   <path class="fil1" d="M198.44 286.26c0.21,0.75 0.57,5.8 3.72,7.29 2.82,1.34 38.76,0.86 45.53,0.75 4,-0.06 6.06,-1.53 8.82,-2.69 1.55,-0.65 2.74,-0.87 4.02,-1.6 3.85,-2.19 10.9,-3.86 11.81,-5.07l-0 -30.85c0.01,-4.05 0.37,-5.93 -2.29,-7.65 0.49,-0.33 1.4,0.01 1.2,0.07 -0.33,-0.98 0.44,0.03 -1.18,-0.72 -0.53,-0.25 -1.49,-0.75 -1.61,-0.8 -1.52,-0.56 -28.49,-0.25 -30.74,-0.25 -11.4,0 -24.24,-0.55 -35.47,0.12 -0.85,2.55 -3.73,1.95 -3.72,7.2 0.01,9.07 0.49,26.99 -0.08,34.19z"/>
   <path class="fil3" d="M25.3 57.48c-0.19,5.66 -0.03,11.6 -0.03,17.29 -0,2 -0.36,6.59 0.25,8.19 0.08,0.21 1.34,2.23 1.57,2.67 2.2,4.28 3.65,3.73 9.37,3.73 8.9,-0 56.81,0.3 60.54,-0.1 10.33,-1.12 23.37,0.44 34.31,-0.36l1.07 -1.07c1.61,-1.33 1.95,-1.23 2.18,-4.69 0.58,-8.91 0.92,-17.16 0.42,-26.11 -8.84,0.46 -18.63,0.07 -27.57,0.08 -9.17,0.01 -18.33,-0.01 -27.5,-0 -6.97,0 -52.11,-0.67 -54.6,0.37z"/>
   <path class="fil6" d="M13.14 118.85c-0.3,2.17 2.78,21.98 3.56,26.66 0.44,2.62 1.42,5.88 1.98,8.25l1.61 8.3c0.32,1.49 0.69,2.45 1.05,4.13 0.66,3.12 0.95,0.79 1.2,3.81 0.2,2.51 1.46,6.26 2.05,8.2l2.2 8.05c-3.03,-0.28 -3.49,-3.01 -9.89,-2.42 -0.56,0.05 -1.27,0.1 -1.74,0.33 -1.35,0.65 -0.85,0.58 -1.34,1.54 2.44,-0.58 1.2,-1.13 3.89,-1.32 2.71,-0.19 5.15,0.84 7.38,2.18 2.08,1.25 1.9,1.08 4.53,1.33 -0.05,-4.98 -0.48,-2.68 -1.01,-5.9 -0.56,-3.4 -0.99,-2.25 -1.2,-5.19 -0.2,-2.87 -0.58,-3.04 -1,-5.43 -0.88,-5.04 -0.81,-13.7 2.49,-16.88 2.62,-2.53 6.81,-2.21 9.02,0.12 5.65,5.95 6.78,23.63 7.36,32.13 0.14,2.13 0.7,3.59 0.93,5.27 0.39,2.89 -0.51,4.05 1.81,5.12 1.78,-0.88 2.57,-3.54 3.31,-5.14 0.67,-1.44 0.59,-0.87 1.18,-2.75 0.32,-1.01 0.76,-2.17 1.25,-3.15 1.28,-2.55 1.24,-3.17 3.27,-5.07 2.24,-2.1 3.38,-1.59 7.25,-1.36 -0.11,-0.09 -0.28,-0.33 -0.37,-0.23l-1.53 -0.62c-0.6,-0.12 -1.81,-0.04 -2.43,0.04 -3.74,0.46 -1.29,0.37 -4,-0.42 -0.31,-5.65 -2.92,-10.84 -3.83,-16.35 -0.77,-4.66 -4.02,-16.47 -4.51,-20.63 -0.07,-0.62 -0.15,-1.54 -0.28,-2.11l-1.12 -6.81c-0.38,-2.74 -1,-1.1 -1.09,-3.93 -0.3,-8.92 -1.1,-1.16 -1.17,-9.19 -0.03,-3.2 0.26,-7.29 -0.83,-9.57 0.74,-0.54 0.68,-0.98 1.69,-1.5l23.66 -8.26c4.46,-1.33 18.07,-6.73 20.64,-7.27 6.95,-1.46 3.13,-2.29 13.1,-2.31l23.91 0.01c1.49,-0 2.49,0.02 3.76,-0.32 7.65,-2.05 5.05,-9.12 6.2,-13.84l0 -25.09c0,-3.8 0.72,-7.17 -0.88,-7.17 0.24,2.47 0.52,11.47 -0.24,12.94 0.5,8.95 0.17,17.2 -0.42,26.11 -0.23,3.46 -0.57,3.36 -2.18,4.69l-1.07 1.07c-10.93,0.81 -23.98,-0.75 -34.31,0.36 -3.73,0.4 -51.64,0.1 -60.54,0.1 -5.72,0 -7.17,0.55 -9.37,-3.73 -0.23,-0.44 -1.49,-2.46 -1.57,-2.67 -0.62,-1.6 -0.25,-6.19 -0.25,-8.19 0,-5.69 -0.16,-11.63 0.03,-17.29l0.03 -14.73c-0.08,-1.67 -0.32,-10.71 0.13,-12.13 0.41,-1.28 1.21,-3.55 2.34,-4.08l-2.09 2.67c-0.97,1.92 -0.41,52.44 -0.41,55.12l-3.67 1.68c-0.11,0.04 -0.22,0.07 -0.33,0.1l-2.19 0.89c-1.71,0.82 -1.73,0.26 -3.09,0.64l-1.9 0.86c-0.12,0.04 -0.22,0.06 -0.34,0.09 -0.11,0.03 -0.23,0.05 -0.34,0.08l-1.7 0.83c0,2.91 0.42,4.63 0.4,7.56 -0.01,2.43 -0.06,5.61 0.23,7.47 0.35,2.3 0.02,5.64 0.39,7.6 0.37,1.97 0.94,4.27 0.38,6.71z"/>
   <path class="fil6" d="M99.72 266.06c-1.03,1.94 -4,3.43 -5.92,4.31 -3.32,1.53 -24.95,0.71 -28.48,0.31l-6.34 0.37c-3.84,-0.32 -12.65,1.03 -19.53,-0.4 1.04,1.12 -0.4,0.21 2.52,0.97 3.41,0.89 10.74,0.53 14.42,0.48 7.75,-0.1 30.12,0.64 35.88,-0.52 3.32,-0.67 6.27,-0.34 8.26,1.31l1.03 0.99c1.34,1.37 2.27,2.76 1.59,5.07 -1.78,6.05 -6.21,5.21 -13.28,5.21 -6.11,0 -12.22,-0.01 -18.33,-0 -4.74,0.01 -34.81,-0.87 -36.45,0.4 -0.8,0.86 -0.09,-0.78 -0.32,0.74l0.1 4.05c2.84,1.61 40.87,0.06 48.16,0.68 0.29,3.54 -0.65,3.41 -0.97,6.34 -0.3,2.75 -0.74,4 -0.99,7.12 -0.19,2.33 -1.17,3.58 -1.33,6l-1.95 13.78c-0.86,4.15 -0.04,9.1 -6.08,13.49l-2.31 1.28c-0.06,0.03 -0.19,0.08 -0.28,0.13l3.99 0.42c4.72,-0.04 6.95,0.39 10.62,-2.56 1.55,-1.24 3.47,-2.9 3.99,-4.75 1.19,-4.25 0.93,-2.76 1.39,-7.45 0.17,-1.67 0.67,-2.2 0.91,-3.34l2.66 -19.31c0.28,-1.4 0.98,-6.1 1.4,-7.43 0.8,0.32 1.2,0.16 2.3,1.57 1.48,1.68 19.68,13.57 21.76,13.81 0.12,0.05 0.28,-0 0.35,0.15l3.38 1.56c0.7,0.35 -0.16,-0.1 0.79,0.36 4.94,2.37 8.57,4.46 14.02,6.26l12.6 3.86c0.75,0.26 0.8,0.33 1.8,0.53l2 0.48c0.09,0.04 0.19,0.09 0.27,0.13 2.17,0.96 2.15,0.42 4.62,0.86 4.88,0.88 2.95,2 8.53,0.2 1.24,-0.4 3.7,-0.31 4.54,-0.66 0.95,-0.4 -0.52,-0.36 2.07,-0.8 4.89,-0.83 3.01,-1.64 6.73,-1.09 2.66,0.39 2.24,1.38 4.55,1.39l-5.99 -2.71c-8.59,-3.29 -20.55,-9.58 -25.56,-17.41 -4.58,-7.16 -2.46,-8.77 -1.88,-13.97 -1.19,0.51 -0.64,0.31 -1.13,0.7l-0.62 0.68c-2.15,-0.92 -4.34,-1.34 -6.67,-2.56l-12.08 -5.86c-0.07,-0.05 -0.16,-0.13 -0.23,-0.18l-3.62 -2.28c-3.53,-1.87 -3.04,-1.23 -7.06,-4.18l-9.95 -7.62c-0.8,-0.64 -1.71,-1.32 -2.42,-1.96 -2.73,-2.43 -1.76,-2.73 -1.36,-3.4 0.47,-0.79 0.45,-0.63 0.79,-1.21 1.47,-2.49 1.5,-7.39 -2.31,-8.98 -6.85,-2.85 -8.36,3.28 -11.8,-2.13 3.62,-2.12 3.19,-1.74 3.71,-3.18 -2.14,0.62 -6.6,4.08 -10.99,6.14 -1.53,0.72 -4.68,2.61 -5.29,4.18 1.79,0.86 3.95,0.54 5.62,-0.27 4.37,-2.11 17.33,-7.44 20.55,-2 0.55,0.94 0.78,1.2 0.74,2.72 -0.06,2.55 -0.34,1.59 -0.93,2.5 -0.56,0.86 -3.43,6.69 -6.22,6.66z"/>
   <path class="fil7" d="M80.85 181.33c-3.9,-0.34 -6.69,-0.29 -7.85,3.37 -0.61,1.94 -0.98,2.81 -1.07,5.22 -0.19,5.12 -0.29,12.08 0.55,17.04 0.25,1.5 0.76,1.66 1.21,3.07 0.28,0.88 0.2,3.24 0.12,4.24 -0.2,2.73 -0.61,1.24 -1.02,2.69 -0.27,0.95 0.07,2.76 -0.32,3.87 -0.28,0.81 -1.38,1.34 -1.92,2.44 -0.35,0.71 -0.31,1.05 -0.63,1.79 -0.46,1.06 -0.21,0.16 -0.67,1.32l-1.37 3.02c-1.75,3.66 -0.41,4.5 1.72,7.5l0.34 0.51c1.52,-2.31 1.57,-2.85 3.6,-4.82 2.02,-1.97 3.88,-2.11 4.39,-3.66 0.34,-1.04 0.02,-0.77 0.48,-1.85 0.39,-0.91 0.24,-0.11 0.6,-1.18 0.14,-0.41 0.36,-1.45 0.41,-1.57 0.31,-0.83 0.67,-1.34 0.67,-1.34 0.22,-0.58 0.14,-0.79 0.44,-1.57 0.6,-1.55 -0,-0.04 0.45,-0.84 0.04,-0.07 0.12,-0.16 0.16,-0.22 0.04,-0.07 0.11,-0.15 0.14,-0.22 0.32,-0.67 0.25,-2.34 0.25,-3.53 -0,-2.66 -0.53,-1.77 -1.3,-4.97 -0.31,-1.27 0.06,0.14 -0.56,-1.18 -0.9,-1.91 -0.28,-1.85 -0.61,-3.63 -0.26,-1.41 -0.72,-0.54 -1.07,-2.89 -0.18,-1.21 0.13,-2.62 -0.2,-3.75 -0.25,-0.85 -0.83,-0.84 -1.04,-3.02l-0.16 -6.78c0.01,-0.18 0.06,-0.24 0.13,-0.34 2.88,0.81 2.43,3.18 2.38,6.3 -0.06,3.8 1.13,2.27 1.2,6.36 0.05,3 -0.05,1.08 0.73,2.91 0.82,1.92 0.18,1.97 0.54,3.51 0.29,1.24 0.64,0.69 1.07,3.1 0.29,1.63 -0.28,1.1 1.15,1.97 0.06,-0.47 0.07,-1.11 0.22,-1.62 0.67,-2.21 -0.09,0.06 0.55,-1.16 0.34,-0.65 0.25,-0.47 0.6,-1.3l2.66 -6.09c0.32,-0.82 0.55,-1.05 0.67,-1.35l1 -2.25c0.04,-0.07 0.1,-0.17 0.14,-0.24l0.88 -1.94c0.04,-0.07 0.11,-0.16 0.15,-0.24 0.04,-0.07 0.1,-0.16 0.14,-0.24l4.64 -9.32c0.39,-0.68 0.01,0.04 0.49,-1.04 0.04,-0.09 0.07,-0.2 0.11,-0.29l3.74 -6.7c1.28,-2.03 0.93,-3.45 4.03,-3.63 -0.4,2.97 -0.17,0.95 -0.8,2.35l-15.77 31.88c-0.04,0.09 -0.09,0.19 -0.13,0.28l-3.94 9.7c-0.69,1.33 -0.5,1.67 -1.1,3.31 2.8,-0.37 6.31,-4.58 8.9,-5.92l6.01 -3.89c1.17,-0.93 -0.01,-0.14 1.65,-1.08l1.6 -0.9c0.09,-0.04 0.2,-0.08 0.28,-0.13l2.37 -1.46c0.14,-0.08 0.63,-0.31 0.84,-0.42 2.3,-1.17 3.25,-2.5 6.06,-1.44 -0.4,2.54 0.72,1.17 -2.08,2.08l-3.39 1.72c-0.07,0.04 -0.18,0.1 -0.25,0.14 -3.53,1.89 -6.64,3.61 -9.88,6.02l-7.33 5.02c-2.95,1.96 1.64,-1.58 -0.84,0.68 -0.28,0.25 -0.82,0.79 -0.82,0.79 -1.07,0.91 -0.43,0.43 -1.69,1.14 -0.59,0.33 -1.62,0.83 -2.01,1.14l-1.26 1.61c0.85,1.25 1.12,0.74 2.34,2.09 2.41,2.67 0.73,6.98 0.75,10.72 1.73,-0.18 1.79,-0.09 3.2,-0.76l2.76 -0.82c1.45,-0.48 0.26,-0.55 2.57,-0.96 2.03,-0.36 0.97,-0.06 2.48,-0.72 1.59,-0.7 1.44,-0.28 3,-0.6 1.63,-0.34 0.51,-0.45 2.18,-0.88 1.51,-0.39 1.7,-0.05 3.06,-0.59 1.22,-0.49 0.52,-1 2.04,-0.32 2.16,2.05 -4.5,2.92 -4.94,3.08l-6.65 2.02c-2.73,0.55 -1.34,0.64 -3.26,1.13l-3.26 1.09c-1.71,0.56 -1.65,0.29 -3.35,1.09 -1.81,0.85 -1.42,0.22 -2.13,1.95l-1.61 3.07c-0.04,0.08 -0.09,0.19 -0.13,0.28l-6.38 10.36c-0.82,1.14 -0.54,1.53 -1.62,2.79 -1.02,1.18 -3.32,3.16 -3.17,4.78 0.85,0.21 3.96,-0 4.85,-0.21 1.6,-0.37 0.31,-0.77 3.72,-1.13 1.87,-0.19 2.26,-0.99 4,-1.19 3.29,-0.36 0.65,-0.56 3.56,-1.12 1.24,-0.24 1.07,0.09 2.23,-0.38l3.87 -0.99c1.28,-0.34 0.18,-0.26 1.6,-0.77 1.92,-0.69 1.92,-0.03 3.79,-0.9 2.11,-0.97 2.34,-0.71 4.49,-0.24 -0.47,2.6 0.88,1.02 -1.29,1.79l-5.47 1.38c-2.77,0.36 -0.36,0.65 -3.15,1.12 -1.72,0.29 -1.99,-0.01 -3.44,0.73l-10.51 2.92c-1.87,0.25 -1.32,0.27 -2.95,1.12 4.89,0.33 10.31,0.15 15.26,0.15 2.84,-0 4.22,-0.38 6.26,-1.81l3.45 -2.07c0.78,-0.42 0.18,-0.3 1.35,-0.55 2.8,0.03 5.67,-5.81 6.22,-6.66 0.59,-0.92 0.88,0.04 0.93,-2.5 0.03,-1.52 -0.19,-1.78 -0.74,-2.72 -3.22,-5.44 -16.18,-0.11 -20.55,2 -1.67,0.81 -3.84,1.13 -5.62,0.27 0.61,-1.57 3.76,-3.46 5.29,-4.18 4.39,-2.06 8.85,-5.52 10.99,-6.14 1.18,-0.31 0.82,-0.43 2.11,-1.11 2.74,-1.45 4.15,-2.67 6.64,-4.49 1.99,-1.46 7.05,-3.98 6.87,-7.96 -0.37,-8.18 -17.34,1.21 -21.93,1.11 1.21,-2.01 -0.72,-0.6 2.99,-3.24l6.63 -4.51c0.17,-0.13 0.81,-0.58 0.94,-0.67 0.76,-0.5 1.06,-0.66 1.86,-1.33 2.73,-2.27 8.89,-6.32 12.3,-9.24 4.41,-3.78 10.2,-10.4 2.81,-14.46 -2.86,-1.57 -4.9,-0.11 -6.86,0.9l-5.56 3.59c-2.88,2.12 -5.1,4.16 -8.27,3.03 0.12,-1.44 1.38,-4.01 2.12,-5.24l11.43 -22.04c1.79,-3.91 1.2,-3.72 1.94,-5.68 1.37,-3.65 1.84,-8.69 -1.71,-11.48 -0.68,-0.54 -0.42,-0.34 -1.21,-0.75l-0.8 -0.39c-0.09,-0.03 -0.19,-0.08 -0.28,-0.11 -1.14,-0.39 -2.06,-0.32 -3.15,0.11 -0.09,0.03 -0.19,0.09 -0.27,0.13l-0.83 0.39c-3.39,1.58 -6.3,5.69 -7.69,8.55l-4.7 10.03c-0.67,1.95 -2.84,9.62 -4.12,10.87l-1.47 -3.17c-1.25,-2.71 -1.24,-3.63 -3.02,-5.69 -0.38,-0.44 -0.68,-0.79 -1.18,-1.24l-0.95 -0.72z"/>
   <path class="fil6" d="M261.76 195.01c0.34,1.62 0.8,0.74 2.48,1.17 1.16,0.3 0.85,0.39 2.17,0.95 1.02,0.43 1.51,0.63 2.44,0.9 2.68,0.78 7.61,5.07 9.35,7.18l7.83 16.47c0.04,0.08 0.1,0.18 0.14,0.27 0.24,0.55 0.28,1 0.41,1.61l1.34 0.32c-1.12,-1.49 -0.6,-1.48 -1.55,-3.28l-0.29 -0.47c-0.81,-1.77 1.9,-6.9 2.9,-9.28l10.54 -30.54c0.4,-1.55 0.62,-1.52 0.96,-2.54 0.42,-1.24 0.19,-1.94 0.56,-3.09 1.16,-3.57 0.78,-3.6 1.7,-5.82 0.63,-1.54 0.23,-1.53 0.55,-3.13 0.28,-1.42 0.73,-1.12 1,-2.93 0.28,-1.87 -0.16,-1.35 0.6,-2.95 1.27,-2.66 -0.03,-1.82 1.43,-6.13 0.96,-2.84 -0.34,-1.77 1.19,-5.98l1.63 -9.99c0.03,-1.03 0,-2.55 0.17,-3.54 0.33,-1.95 0.77,-0.31 0.75,-3.08 -3.1,-0.66 -20.71,-0.24 -26.52,-0.29 -0.56,-0 -1.47,-0.04 -2,0.01 -2.76,0.27 -1.64,0.69 -2.31,4.64 -0.27,1.6 -0.68,2.85 -0.87,4.31l-1.41 8.62c-0.25,1.59 -0.81,1.73 -1.04,3.68l-8.88 33.72c-0.04,0.09 -0.11,0.18 -0.15,0.28 -0.04,0.11 -0.09,0.21 -0.13,0.32 -0.31,0.9 -0.12,0.72 -0.27,1.43 -0.29,1.29 -0.08,0.44 -0.71,1.44 -0.78,1.23 -0.36,0.63 -0.82,2.09 -0.3,0.95 -0.08,0.27 -0.31,0.87l-1.22 2.62 -1.64 0.14z"/>
   <path class="fil3" d="M27.8 26.55c-1.13,0.53 -1.93,2.8 -2.34,4.08 -0.45,1.42 -0.21,10.46 -0.13,12.13 0.53,-0.28 1.13,-1.12 1.97,-1.16l106.91 0 0.12 -11.9c-0.25,-3.12 -2.78,-5.52 -6.17,-5.71 -2.45,-0.14 -5.49,0.01 -8.01,0.01l-78.51 0c-5.24,0 -11.3,-1.02 -13.84,2.55z"/>
   <path class="fil2" d="M25.33 42.75l-0.03 14.73c2.49,-1.04 47.63,-0.37 54.6,-0.37 9.17,-0 18.33,0.01 27.5,0 8.94,-0.01 18.73,0.38 27.57,-0.08 0.76,-1.47 0.48,-10.47 0.24,-12.94 -0.38,-2.28 -0.58,-1.11 -1.01,-2.49l-106.91 -0c-0.83,0.05 -1.43,0.88 -1.97,1.16z"/>
   <path class="fil8" d="M212.8 172.91c-0.3,2.84 -1.14,4.11 0.19,6.67 1.16,2.23 1.85,1.87 4.09,3.05 2.46,1.3 0.98,2.7 2.42,5.22l2.74 4.82 -4.26 0.03c3.18,-0.18 5.62,-0.85 5.57,4.39 -0.02,2.3 -0.29,3.88 0.51,5.7l0.5 1.12c0.86,2.12 2.7,5.74 5.08,6.45 -0.6,-1.15 -1.45,-1.71 -2.24,-2.56 -2.93,-3.14 -3.45,-7.41 -2.45,-11.82 4.21,1.86 3.3,3.67 10.77,3.74 8.32,0.08 6.44,-1.62 11.4,-3.48l-0.02 6.99c1.36,-3.33 -0.06,-5.67 1.61,-9.34l3.35 -5.55c0.78,-1.25 2.08,-4.89 2.35,-6.43 2.3,-0.31 3.88,-1.34 4.47,-3.98 0.59,-2.63 -0.07,-5.23 -1.64,-5.88 -0.88,-0.43 -1.12,-0.54 -1.9,-0.98l-0.15 -4.19c-4.99,-2.69 -4.4,-4.67 -5.92,-7.36 -1.44,-0.11 -9.84,1.96 -13.15,1.95 -3.31,-0 -3.67,-0.74 -6.42,-0.99 -6.26,-0.58 -1.48,-1.46 -6.28,-1.13 -2.25,3.76 -0.84,4.91 -5.82,7.29 -0.05,2.71 0.7,3.77 -1.43,4.5 -3.69,1.25 -1.26,1.91 -3.36,1.78z"/>
   <path class="fil2" d="M212.8 172.91c2.1,0.13 -0.33,-0.53 3.36,-1.78 2.12,-0.72 1.38,-1.78 1.43,-4.5 4.98,-2.39 3.57,-3.54 5.82,-7.29 4.8,-0.33 0.02,0.56 6.28,1.13 2.74,0.25 3.11,0.99 6.42,0.99 3.31,0 11.72,-2.07 13.15,-1.95 1.52,2.69 0.93,4.67 5.92,7.36l0.15 4.19c0.78,0.45 1.02,0.56 1.9,0.98l1.25 0.06c0.19,-8.1 -0.12,-20.7 -4.69,-24.95 -0.67,-0.62 -1.08,-0.9 -1.8,-1.38 -1.76,-1.17 -5.08,-2.7 -6.81,-3.04 -0.85,-0.17 -2.56,-0.14 -3.49,-0.16 -5.07,-0.1 -14.83,-0.73 -18.45,1.45 -4.6,2.77 -1.75,3.99 -6.21,6.87 -4.25,2.75 -4.17,5.51 -4.31,8.75 -0.2,4.59 0.09,8.8 0.08,13.27z"/>
   <path class="fil9" d="M191.19 325.61l-5.13 2.34c-3.22,1.34 -6.19,2.89 -7.42,7.08 -0.1,0.34 -0.15,0.68 -0.21,1.03 -0.97,5.55 -0.24,9.53 4.69,12.89 2.09,1.42 4.97,2.1 8.35,1.62l5.13 -1.72c4.3,-2.28 15.34,-6.29 16.65,-7.4l3 -0.42c0.21,-2.72 -0.02,-1.01 -0.69,-2.64 -0.42,-1.02 -0.44,-1.84 -0.92,-3.06 -0.43,-1.11 -0.62,-1.78 -1.12,-2.93 -0.5,-1.14 -0.52,-1.41 -1.05,-2.46 -1.53,-3.04 -2.69,-7.74 -5.04,-10.38 -5.46,0.1 -9.33,4.95 -15.14,4.82 -1.15,1.95 0.5,-1.62 -0.05,0.36l-1.04 0.87z"/>
   <path class="fil10" d="M38.39 269.43c0.08,0.09 0.21,0.11 0.24,0.28 0.06,0.29 0.32,0.38 0.41,0.49 0.06,0.06 0.38,0.43 0.4,0.46 6.88,1.42 15.69,0.07 19.53,0.4l6.34 -0.37c-2.41,-0.19 -4.43,0.22 -6.64,-0.54l-0.59 -4.49c2.31,-1.19 4.26,-3.44 6.01,-5.5l5.58 -6.72c1.83,-2.13 3.61,-4.36 5.45,-6.5 2.31,-2.7 5.28,-5.28 4.38,-6.98 -1.04,0.22 -1.16,0.48 -1.83,1.17 -2.89,2.95 -6.75,7.96 -9.04,10.88 -1.67,2.13 -3.88,4.5 -5.33,6.27 -1.4,1.72 -3.28,5.3 -5.72,5.29l-5.14 -15.71c-0.36,-1.48 -2.22,-4.59 -0.94,-5.98l7.06 -9.06c0.77,-1.09 1.52,-1.98 2.27,-2.98 1.44,-1.93 3.06,-3.76 4.8,-5.95 0.87,-1.09 1.65,-2.08 2.5,-3.08 1.48,-1.74 1.91,-1.05 2.16,-3.76 -2.12,0.43 -0.88,-0.35 -2.36,1.24 -0.4,0.43 -0.58,0.81 -1.17,1.52 -0.82,1 -1.65,1.92 -2.43,2.83l-4.8 6c-0.05,0.07 -0.11,0.17 -0.16,0.25 -1.69,2.53 -7.2,10.38 -8.96,11.19l-1.32 -0.64c-0.13,-2.1 0.14,-1.81 -0.73,-3.55 -0.87,-1.72 -0.24,-1.35 -0.77,-3.19 -0.52,-1.79 -0.7,-0.53 -1.02,-3.29 -0.28,-2.45 -0.21,-1.1 -0.89,-2.9 -1.09,-2.91 0.32,-4.71 0.91,-6.76 0.54,-1.91 0.62,-1.28 1.09,-2.88l5.75 -14.8c0.22,-0.48 0.28,-0.87 0.54,-1.46 0.43,-0.99 0.07,0.03 0.69,-1.27 1.01,-2.11 3.85,-6.13 3.8,-8.3 -1.86,0.16 -2.16,1.38 -2.93,2.81 -0.45,0.84 -0.3,0.48 -0.59,1.03 -0.04,0.08 -0.1,0.18 -0.14,0.26 -0.04,0.08 -0.09,0.18 -0.13,0.27l-5.84 13.21c-0.19,0.45 -0.21,0.66 -0.43,1.2l-1.22 3.17c-0.04,0.1 -0.1,0.2 -0.14,0.29l-0.45 0.71c-0.03,0.07 -0.09,0.16 -0.12,0.23l-1.64 6.46c-0.07,-0.09 -0.13,-0.23 -0.17,-0.3l-0.43 -0.91c-0.98,-2.23 -0.96,-2.75 -1.33,-5.07 -0.27,-1.65 -0.65,-1.06 -0.89,-2.63l-0.43 -2.66 -1.14 1.61c-1.4,0.09 0.1,0.58 -1.51,-0.55l-3.66 -3.17c-3.57,-2.89 -6.3,-5.8 -9.29,-8.98 -2.07,-2.21 -2.64,-4.25 -5.28,-4.25 0.57,3.02 8.59,10.11 11.03,12.42l7.12 6.09c3.7,3.09 1.61,2.83 2.99,6.22l0.92 3.98c0.31,1.81 0.76,0.97 1.07,3.35l3.71 13.84c-1.27,0.07 -1.24,-0.29 -2.28,-0.73l-8.54 -3.95c-0.86,-0.42 0.12,0.09 -0.96,-0.57l-11.47 -7.59c-2.27,-1.67 -4.5,-4.67 -7.53,-4.84 0.24,2.18 -0.36,0.91 1.4,2.26 4.3,3.31 8.18,6.42 12.94,9.38l12.61 6.54c1.9,0.77 2.43,1.26 4.32,1.55 0.37,0.72 1.28,2.33 1.41,2.66 0.42,1.05 0.25,1.69 0.77,2.84l1.88 5.32c0.64,2.43 3.39,9.64 3.51,11.21 -1.78,0.05 -4.12,0.23 -5.72,-0.37 -1.17,-0.44 -0.51,-0.53 -2.3,-0.83 -2.38,-0.4 -4.29,-1.32 -6.58,-2.19l-16.91 -7.83c-1.74,-1.12 0.82,0.14 -0.68,-0.43 -0.83,-0.32 -1.38,-0.1 -1.94,0.13 0.31,2.28 14.38,8.27 17.54,9.32l10.18 3.33c4.39,1.82 7.5,-2.31 7.82,5.79 -2.54,0.12 -13.35,0.58 -15.69,-0.18 -2.48,-0.81 2.36,1.04 -0.86,-0.42 -1.36,-0.62 -0.46,-0.48 -2.07,-0.61z"/>
   <path class="fil7" d="M212.69 111.03l0.19 12.43c6.67,0.68 11.25,0.36 18.04,0.34 5.69,-0.01 4.45,-2.2 4.45,-13.17 0,-5.45 -4.24,-3.93 -15.61,-3.93 -6.81,0 -7.08,-0.49 -7.08,4.33z"/>
   <path class="fil11" d="M213.8 337.03c-0.01,-3.13 -0.39,-1.69 -1.07,-3.74 -1.01,-3.05 -2.73,-7.68 -4.12,-10.12 -3.36,-0.07 -2.9,0.89 -7.24,2.3l-8.83 3.54c-5.93,2.42 -7.6,9.43 -3.3,13.39 0.8,0.73 1.76,1.34 3,1.77 3.42,1.2 10.1,-2.42 14.48,-4.31l4.86 -2.22c0.82,-0.3 1.47,-0.3 2.2,-0.59z"/>
   <path class="fil9" d="M268.39 327.47c4.13,-0.17 10.11,3.03 11.32,4.56 1.18,1.48 1.03,4.76 0.85,6.98 -0.35,4.32 -4.79,6.2 -9.91,4.48l-13.4 -5.69c-1.43,-0.61 -1.55,-0.37 -2.52,-1.22 0,-3.36 0.42,-0.19 1.37,-4.72l10.53 -3.97c-1.24,0.11 -10.04,2.63 -10.62,3.11 -1.36,1.12 -3.53,7.67 -3.42,9.81 1.49,0.35 2.4,0.05 2.81,0.98 1.01,0.53 1.02,0.34 1.92,0.75l5.37 2.21c1.24,0.41 0.58,0.28 1.49,0.78 0.99,0.55 0.92,0.37 1.99,0.78 6.49,2.5 14.21,7.21 20.01,1.66 2.34,-2.24 3.48,-2.43 4.07,-6.18 1.35,-8.49 -3,-12.13 -10.37,-14.77 -2.8,-1.01 -1.27,-1.09 -3.73,-1.42l-0.08 -0.95c-1.68,0.54 -0.27,0.66 -3.64,1.48 -2.36,0.58 -3.21,0.1 -4.04,1.33z"/>
   <path class="fil12" d="M118.16 309.15c-2.07,-0.24 -20.27,-12.13 -21.76,-13.81 -2.75,-0.29 -2.13,0.92 -2.26,3.78 -0.15,3.25 -3.15,13.69 -2,16.07 0.08,0.03 0.2,-0.04 0.24,0.04l6.8 -0.29c3.46,-0.35 21.41,-1.05 23.15,-2.27 -0.78,-2.34 -3.04,-0.79 -4.17,-3.53z"/>
   <path class="fil11" d="M266.63 327.9l-10.53 3.97c-0.96,4.53 -1.37,1.35 -1.37,4.72 0.97,0.85 1.1,0.6 2.52,1.22l13.4 5.69c5.12,1.72 9.56,-0.16 9.91,-4.48 0.18,-2.22 0.33,-5.49 -0.85,-6.98 -1.21,-1.53 -7.19,-4.73 -11.32,-4.56l-1.76 0.42z"/>
   <path class="fil13" d="M229.64 210.37c2.34,3.03 7.12,3.8 10.53,1.57 1.72,-1.12 3.02,-1.6 4.18,-3.39 1.2,-1.88 2.35,-3.2 2.74,-5.31l0.02 -6.99c-4.96,1.87 -3.08,3.56 -11.4,3.48 -7.47,-0.07 -6.55,-1.88 -10.77,-3.74 -1,4.42 -0.48,8.69 2.45,11.82 0.79,0.85 1.64,1.41 2.24,2.56z"/>
   <path class="fil14" d="M233.03 262.46c-2.01,1.22 -1.63,-0.65 -3.92,3.01 -3.97,6.32 2.96,13.03 8.57,10.9 3.63,-1.38 6.28,-4.38 5.03,-9.3 -0.74,-2.94 -2.86,-4.31 -5.83,-5.16l-2.75 -0.04c-0.79,0.26 -0.67,0.32 -1.1,0.58z"/>
   <path class="fil2" d="M97.66 66.6c-0.1,1.81 0.31,3 0.3,3.61 4.16,0.57 27.58,0.72 30.5,-0.28l0.19 -3.21c-2.93,-2.03 -11.24,-1.18 -15.28,-1.18l-12.39 -0.02c-2.65,0.11 -1.38,0.3 -3.33,1.07z"/>
   <path class="fil2" d="M124.13 80.38c2.32,-0.01 2.71,-0.06 4.34,-0.86 0.79,-5.57 -1.85,-4.32 -12.71,-4.32 -4.68,0 -4.85,4.29 -1.89,5.03 1.68,0.42 8.1,0.14 10.26,0.15z"/>
   <path class="fil15" d="M217.38 104.46c1.98,-1.09 0.18,-3.9 1.7,-6.56 0.59,-1.03 3.82,-2.49 5.43,-2.34 1.65,0.16 4.05,1.88 4.62,3.31 1.26,3.18 -1.62,5.99 2.53,5.69 2.8,-14.38 -17.06,-14.36 -15.36,-1.85 0.39,2.88 -0.47,1.07 1.08,1.75z"/>
   <path class="fil15" d="M318.82 106.46c-1.37,0.97 -3.53,2.02 -2.38,5.14 0.73,1.98 3.58,3.24 5.82,1.93 0.77,-0.45 1.57,-1.52 1.87,-2.15 0.64,-1.37 0.39,-1.76 -0.15,-3l-1.9 -1.95c-2.77,-1.22 -3.05,-0.1 -3.26,0.04z"/>
   <path class="fil15" d="M289.16 106.25c-5.57,3.2 -2.38,8.91 2.25,7.84 2.57,-0.6 2.92,-3.29 2.49,-5.44 -0.37,-1.82 -3.1,-3.34 -4.75,-2.39z"/>
   <path class="fil15" d="M258.43 114l3.99 0.09c1.07,-1.72 1.38,-0.95 1.77,-2.85 0.32,-1.53 -0.16,-2.57 -0.44,-3.95 -0.76,-0.22 -4.42,-2.35 -6.44,0.22 -2.27,2.87 0.79,6.02 1.12,6.49z"/>
   <path class="fil15" d="M304.2 106.54c-1.52,0.52 -3.53,1.39 -2.93,4.33 0.35,1.7 2.35,3.64 4.95,3.11 4.85,-0.99 3.52,-9.33 -2.02,-7.44z"/>
   <path class="fil7" d="M277.73 106.95l-5.06 -0.05c-0.69,1.54 -1.51,2.93 -0.86,4.64 1.24,3.25 5.86,3.46 7.22,-0.31 0.76,-2.13 -0.4,-2.86 -1.3,-4.27z"/>
   <path class="fil16" d="M222.35 119.98l3.54 -0.01c0.23,-1.95 -0.12,-3.43 0.2,-5.32 0.44,-2.55 0.51,-1.92 -0.73,-3.99 -1.08,-0.1 -2.93,-0.61 -3.76,1.45 -0.76,1.89 0.65,1.17 0.68,4.48 0.01,1.33 -0.17,2.01 0.05,3.39z"/>
   <path class="fil6" d="M201.98 340.36c0.28,-1.63 -1.68,-6.09 -2.49,-7.85 -0.32,-0.69 -0.86,-1.58 -1.18,-2.29 -1.83,0.24 -2.35,0.46 -1.53,2.23 0.04,0.08 0.1,0.18 0.14,0.26l2.53 5.89c0.68,1.47 0.57,2.11 2.53,1.77z"/>
  </g>
  <rect class="fil17" y="-0" width="348.3" height="390.66"/>
 </g>
</svg>
