<?xml version="1.0" encoding="UTF-8"?>
<!DOCTYPE svg PUBLIC "-//W3C//DTD SVG 1.1//EN" "http://www.w3.org/Graphics/SVG/1.1/DTD/svg11.dtd">
<!-- Creator: CorelDRAW 2018 (64 Bit) -->
<svg xmlns="http://www.w3.org/2000/svg" xml:space="preserve" width="74mm" height="83mm" version="1.1" style="shape-rendering:geometricPrecision; text-rendering:geometricPrecision; image-rendering:optimizeQuality; fill-rule:evenodd; clip-rule:evenodd"
viewBox="0 0 415 465.48"
 xmlns:xlink="http://www.w3.org/1999/xlink">
 <defs>
  <style type="text/css">
   <![CDATA[
    .fil13 {fill:none}
    .fil11 {fill:#0079DC}
    .fil8 {fill:#023D9B}
    .fil1 {fill:#049DFE}
    .fil6 {fill:#214EA0}
    .fil7 {fill:#282A77}
    .fil12 {fill:#66B9F6}
    .fil4 {fill:#8CDAE8}
    .fil10 {fill:#97D4FC}
    .fil5 {fill:#C8EBFE}
    .fil0 {fill:#D9ECEF}
    .fil3 {fill:#FFAB3A}
    .fil9 {fill:#FFB6B2}
    .fil2 {fill:white}
   ]]>
  </style>
 </defs>
 <g id="Capa_x0020_1">
  <metadata id="CorelCorpID_0Corel-Layer"/>
  <g id="_1601824706704">
   <path class="fil0" d="M115.27 57.91c1.72,8.73 1.19,8.03 1.19,17.48 0,7.98 0.33,50.7 -0.17,54.94 -1.63,-0.39 -7.72,-6.86 -9.57,-8.67 -12.99,-12.77 -5.65,-8.68 -17.35,-8.69l-25.17 -0.03c-8.64,-0.08 -25.69,0.9 -32.56,-1.21 -1.8,-0.55 -4.01,-1.85 -5.53,-3l-3.55 -3.06c-2.7,-2.56 -4.46,-5.41 -6.09,-8.64 -3.14,-6.23 -1.96,-27.2 -1.68,-35.84 -0.18,0.33 -0.33,0.54 -0.52,1.36l-0.17 23.76c-0.01,11.7 4.67,19.88 14.1,24.58 2.7,1.34 6.39,2.75 9.88,2.81 8.51,0.14 17.12,-0.18 25.62,0.08 -0.34,1.51 -0.86,2.08 -1.39,3.48l-4.08 11.03c-1.29,4.85 -3.97,11.35 -3.98,16.28 2.19,-1.6 0.55,-1.41 2.73,-7.41 0.51,-1.39 0.29,-2.68 0.96,-4.39 1.75,-4.47 4.59,-14.76 6.72,-17.95 1.9,-2.85 15.46,-1.22 19.5,-1.22 3.15,-0 6.35,0.06 9.5,-0.04 6.59,-0.22 3.86,0.43 7.43,2.83 -0.05,3.92 -0.52,2.63 -1.76,5.39l-4.4 9.45c-0.07,0.13 -0.28,0.5 -0.34,0.62 -1.59,2.93 -4.53,14.77 -5.3,16.95 -0.3,0.84 -0.72,1.21 -0.91,2.21 -0.29,1.51 -0.33,5.26 -0.41,6.99l1.71 0.5 6.54 -1.76c9.41,-2.05 15.7,3.48 22.56,-2.29 0.41,-1.47 2.17,-3.22 3.05,-4.4 2.08,-2.8 3.09,-0.12 4.29,-3.46 1.09,-3.02 2.84,-5.79 4.54,-8.64l4.01 -5.39c1.15,-1.54 1.91,-3.07 3.12,-4.54l9.37 -9.13c0.9,-0.71 1.42,-0.88 2.24,-1.57 3.7,-3.14 10.51,-6.71 13.81,-8.94 4.34,-2.93 18.73,-7.47 22.84,-7.13 0.63,3.41 1.28,14.18 0.08,17.35 -1.35,0.87 -1.01,0.5 -2.7,0.82 -1.81,0.34 -1.82,0.51 -3.4,0.97l-9.21 3.62c-0.14,0.07 -0.97,0.54 -1.21,0.69l-11.57 7.86c-1.83,1.29 -3.17,2.7 -4.49,4.14 -2.98,3.26 -8.44,10.95 -10.11,15.11 -1.83,4.56 -3.49,6.8 -4.32,12.8 -0.39,2.81 -1.2,3.26 -1.31,7.15 -0.63,21.82 3.66,25.65 3.83,26.02 0.57,1.22 0.36,1.93 1.42,3.16 3.31,0.02 5.38,-1 8.31,-1.64 2.67,-0.58 3.98,-1.54 5.81,-3.39 2.76,-2.79 8.24,-7.67 9.06,-9.99l1.5 -0.25 17.24 -19.44c0.33,-0.28 0.46,-0.38 0.82,-0.67l0.62 -0.48c0.07,-0.06 0.21,-0.16 0.32,-0.25 2.14,0.94 3.72,2.5 6,3.72l0.64 0.32c2.31,1.28 2.5,2.5 5.26,2.8l0 -0.27c-1.29,-0.49 -10.09,-6.2 -10.94,-7.22 -0.01,-2.03 3.27,-8.23 4.3,-10.35 2.2,-4.52 2.26,-5.42 4.1,-4.86 1.94,0.59 0.72,0.25 1.15,1.04 0.59,1.08 0.24,1.91 0.83,2.8 1.16,-2.21 -0.99,-0.55 1.61,-2.02l-1.92 0.65 -0.02 -45.19c-0,-4.32 -0.98,-10.91 0.82,-14.26 2.21,-4.12 8.25,-3.09 8.83,1.03l0 45.65c2.55,1.19 0.24,0.87 2.65,1.77 0.19,3.35 0.44,8.61 -0.08,11.48 -0.3,1.69 -0.32,1.16 -0.65,2.15l-1.87 7.49 -0.03 17.38c0.16,2.74 2.04,3.64 5.09,6.92l26.86 26.8c0.3,0.32 9.02,7.66 1.75,10.78 -2.14,0.92 -3.46,0.18 -4.91,-0.97 -3.4,-2.68 -26.32,-26.07 -29.74,-29.63 -7.12,-7.41 -8.64,-4.96 -8.76,-15.51 -1.71,0.11 -1.17,-0.63 -1.8,0.8l-14.1 20.09c-1.73,2.35 -8.31,10.1 -8.53,11.32l-3.11 3.62c-4.01,3.96 -12.84,5.13 -13.54,6.46 -0.9,1.71 2.06,2.89 3.33,4.05 0.07,0.07 0.17,0.16 0.24,0.23 1.69,1.54 4.33,2.45 5.85,3.68 4.64,3.75 7.59,4.4 13.42,6.55 2.02,0.75 0.94,0.84 3.39,1.21 8.39,1.27 2.12,1.73 16.66,1.48 7.56,-0.13 13.2,-1.41 20.27,-4.36l8.11 -4.04 6.21 6.06c1.06,1.26 2.14,1.76 3.28,2.9l3.62 2.75c-1.07,2.74 -5.32,4.5 -7.97,5.89l-3.92 1.76c-0.14,0.06 -0.55,0.25 -0.68,0.32 -0.11,0.05 -0.23,0.12 -0.33,0.18l-4.09 1.51c-1.96,0.63 -0.24,0.17 -1.66,0.71 -2.11,0.8 -2.8,1.47 -5.24,1.72 -6.42,0.65 -7.36,1.55 -16.17,2.04 -10.54,0.58 -18.85,-1.02 -28.31,-3.55 -6.39,-1.71 -19.92,-10.45 -25.85,-15.27l-8.98 -9.19c-1.36,-0.73 -6.37,1.63 -7.13,2.03l-0.65 38.96c-0.08,5.79 3.39,6.26 5.67,8.23l12.37 7.97c0.09,0.05 0.21,0.12 0.3,0.17l6.09 3.47c2.51,1.64 -1.94,-0.47 1.15,0.61l24.77 8.43 11.6 1.72c8.07,0.76 16.65,1.9 25.43,0.92 8.19,-0.91 17.47,-2.02 24.8,-4.93l12.51 -4.18c1.51,-0.69 2.86,-1.24 4.16,-2.29 0.04,-1.49 -0.25,-2.75 0.21,-4.03 0.53,-1.48 -0.27,-0.31 0.8,-1.4 0.9,0.24 2.68,1.38 3.6,1.9 2.28,0.77 3.01,0.32 4.66,-0.68 2.26,-1.37 7.18,-4.25 9.12,-6.07 0.34,-0.32 0.49,-0.5 0.69,-0.72l1 -1.08c0.16,-4.89 0,-9.83 0.19,-14.73l2.26 -12.11c3.84,1.17 8.05,7.61 8.38,9.58 0.41,1.45 1.57,2.38 2.27,3.49l2.43 1.77 14.78 -18.26c0.49,-0.84 1.02,-1.57 1.46,-2.29l11.22 -22.72 5.46 -15.66c0.28,-1.31 0.16,-2.59 0.45,-3.95 0.84,-4.01 0.67,0.74 1.19,-6.83 0.21,-3.1 1.27,-3.48 1.32,-11.36 0.07,-13.15 -0.17,-12.18 -1.41,-23.7l-1.47 -7c-0.55,-2.81 -3.83,-14.48 -5.34,-17.86 -0.2,-0.44 -0.24,-0.63 -0.41,-1.06 -0.69,-1.7 -1.69,-3.96 -2.54,-6.05 -0.97,-2.37 -3.57,-8.3 -5.24,-10.3l-5.67 -8.72c-0.05,-0.1 -0.11,-0.22 -0.16,-0.32 -0.05,-0.09 -0.11,-0.22 -0.16,-0.31l-1.2 -1.54c-2.52,-2.92 -5.8,-8.03 -8.04,-8.95 -3.56,-1.46 -15.92,0.08 -19.74,-1.04 -1.38,-0.4 -1.63,-0.72 -3.14,-0.99 -2.38,-0.43 -5.34,-1.2 -5.92,-3.28 -0.63,-0.44 -2.35,-1.09 -3.49,-1.94 -3.5,-2.6 -7.35,-8.03 -8.03,-8.57 -4.66,-4.11 -4.75,-15.3 -5.36,-16.14 -0.48,-0.66 -5.65,-2.07 -6.48,-2.43 -3.52,-1.53 -16.74,-4.51 -21.09,-5.02 -15.89,-1.88 -17.86,-0.86 -32.61,-0.19 -9.38,0.43 -19.36,4.39 -27.98,6.82 -2.13,0.6 -2.55,0.94 -4.29,1.47l-11.32 5.59c-2.48,1.73 -2.62,1.2 -3.96,1.85l-7.08 4.78c-0.11,0.07 -1.69,1.01 -1.72,1.03 -1.93,1.56 -0.48,1.35 -4.84,3.8 -1.1,0.62 -0.71,0.31 -1.6,1.14 -0.76,0.71 -0.77,0.78 -1.44,1.42l-11.49 11c-0.05,-0.09 -0.21,0.16 -0.31,0.23 -0.45,-6.97 -0.18,-21.89 -0.13,-30.06 0.02,-3.54 0.58,-6.06 -1.45,-7.99z"/>
   <path class="fil0" d="M348.08 398.99l-0.96 0 -0.07 3.73c-0.08,2.44 -0.56,4.1 -0.61,6.94 -0.06,3.33 -1.04,6.03 -2.82,8.76 -1.2,1.83 -3.05,3.38 -4.9,4.56l-0.86 0.55c-6.8,3.75 -19.49,0.92 -27.67,0.99 -4.9,0.04 -10.54,0.29 -13.7,-1.66 -2.39,-1.48 -4.26,-3.18 -5.61,-5.75 -0.21,-0.4 -0.84,-1.94 -1,-2.36 -0.96,-2.51 -0.39,-4.31 -1.1,-6.55 -0.89,-2.81 -0.8,-3.35 -0.78,-7.09 0.03,-4.91 -0.68,-3 -1.16,-6.11 -0.46,-2.97 0.74,-4.48 -1.48,-5.8 0.32,4.89 3.61,11.51 -1.11,11.39 -0.02,0 -2.05,-0.31 -2.07,-0.31l-31.34 -1.83c-24.84,-0.36 -51,-0.03 -75.97,-0.03 -12.87,0 -24.1,1.4 -36.6,1.48 -0.37,-1.81 -0.21,-3.15 -1.47,-4.52l0.01 3.66 1.26 17c0.13,0.07 0.3,0.12 0.41,0.15 3.81,1.19 8.02,1.15 9.6,3.3 2.31,0.19 4.16,1.28 6.2,2.3 2.06,1.02 4.14,1.84 5.02,3.27 3.53,1 3.35,5.33 -1.96,5.37 -7.22,0.06 -30.52,0.33 -34.88,-0.15 -0.8,-3.74 -0.22,-9.06 -0.33,-13.02 -0.08,-2.89 -0.86,-2.9 -1.15,-5.69 -0.37,-3.58 0.21,-1.31 -1.05,-3.94l-4.69 -16.66c-0.32,-1.21 -0.34,-1.39 -0.76,-2.49l-1.05 -2.11c-0.88,3.97 2.84,9.56 2.72,14.76 -1.33,0.98 -3.25,1.04 -4.87,1.17l-14.82 1.7c-1.83,0.23 -3.63,0.05 -5.46,0.32 -7.8,1.16 -3.22,0.53 -10.6,0.98 -2.11,0.13 -2.51,0.63 -4.54,0.97l0.98 -4.19c0.04,-0.1 0.11,-0.21 0.15,-0.32 0.43,-1.08 -0.15,0.95 0.37,-1.11 0.85,-3.38 4.85,-12.09 4.15,-14.35l-3.14 7.61c-0.6,1.72 -0.84,1.78 -1.42,3.72l-7.14 18.2c0.77,0.66 2.17,1.17 3.19,1.55 1.88,0.69 4.32,0.63 8.68,2.33 0.11,0.04 0.24,0.1 0.35,0.14 2.34,1.01 15.9,6.32 11.37,9.46 -1.36,0.94 -36.74,0.65 -38.19,-0.11 -0.38,-0.63 -0.14,0.13 -0.4,-1.1 -0.46,-2.16 -0.25,-13.3 0.27,-14.75 0.81,-2.26 0.56,-1.04 0.75,-4.2 0.25,-4.22 0.95,-1.61 1.34,-4.31 0.63,-4.34 -0.79,-1.92 1.01,-10.09 0.31,-1.39 0.38,-3.23 0.48,-4.62 0.39,-5.37 1.03,-0.12 1.43,-9.48 0.14,-3.36 0.56,-2.15 1.16,-4.63 0.42,-1.75 0.16,-3.12 0.28,-4.88 0.21,-3 0.64,-1.83 1.17,-4.58 0.33,-1.71 0.21,-3.13 0.27,-4.88 0.14,-3.89 1.15,-5.33 1.24,-9.96 -0.95,1.18 -0.89,3.45 -1.6,5.12 -0.76,1.79 -0.08,-1.68 -0.66,1.97 -0.28,1.73 0.13,1.92 -0.43,3.72 -1.17,3.77 -0.25,6.44 -1.69,11.14 -0.67,2.18 -0.45,5.58 -1.16,7.86 -0.64,2.07 -0.38,5.33 -0.73,7.94 -0.31,2.36 -0.97,4.66 -1.37,7.18l-2.93 14.54c-2.47,0.16 -4.92,1.08 -7.16,2.08 -0.1,0.04 -0.21,0.12 -0.31,0.16l-18.85 6.34c-4.78,2.22 -13.95,6.45 -10.96,13.16l5.06 4.82c3,2.37 6.56,3.46 10.02,5.17 3.9,1.93 4.23,1.4 7.2,2.74 2.99,1.35 12.13,2.67 16.41,4.04 1.45,0.46 3.4,0.47 4.59,0.69 1.17,0.21 1,0.16 1.78,0.54l4.64 1.48c3.15,1.02 10.11,1.96 13.84,2.24 2.25,0.17 2.81,0.83 4.04,1.14 2.1,0.52 5.84,-0.74 7.36,1.33l0.1 0.33c0.18,0.85 0.03,0.28 -0.1,0.2 4.54,0.03 7.6,-0.1 11.29,0.79 3.56,0.86 6.98,0.42 11.07,0.75 1.98,0.16 2.75,0.64 4.73,0.98 3.98,0.67 13.6,0.86 17.42,0.91 -1.24,1.43 0.19,0.64 -1.68,1.13 -1.6,0.42 -0.89,-0.1 -1.08,-0.3l26.53 0.55c-1.31,1.54 0.23,0.65 -1.7,1.17 -1.58,0.43 -0.91,-0.12 -1.08,-0.3 25.81,0 51.62,0.12 77.43,0.06 6.63,-0.01 12.28,-0.39 19,-0.44 3.84,-0.03 5.62,-0.48 8.56,-0.81 5.8,-0.64 18.33,0.5 23.06,-1.05l22.53 -2.6c3.33,-0.31 23.66,-2.2 25.91,-3.04 2.04,-0.76 1.51,-0.5 3.96,-0.81 3.06,-0.39 1.09,-0.91 3.83,-1.28 1.35,-0.18 3.32,-0 4.76,-0.13l16.43 -3.04c1.13,-0.24 2.19,-0.86 3.6,-1.12 2.66,-0.48 5.57,-0.97 7.93,-2.01 2.21,-0.98 0.87,-0.51 3.74,-1.04 1.32,-0.25 2.04,-0.63 3.64,-1.14 1.87,-0.6 1.59,-0.64 3.25,-1.42l3.59 -1.61c3.75,-1.52 7.34,-3.58 10.28,-6.35 1.06,-0.99 0.64,-0.51 1.24,-1.61 1.79,-3.26 2.31,-4.53 -1,-8.12l-4.14 -3.46c-0.91,-0.52 -1.84,-1.27 -2.91,-1.82 -1.23,-0.63 -2.38,-0.91 -3.7,-1.54 -2.3,-1.11 -4.6,-2.16 -7.69,-2.29 0.31,-0.9 0.17,-0.36 0.49,-0.76 1.07,-1.34 0.47,0.47 0.38,-0.35 -3.48,-0.3 -9.06,-2.58 -14.24,-3.11l-14.04 -3.84c-1.34,-0.3 -3.67,0.09 -4.59,-0.74 -1.15,-1.04 -0.05,-7.53 0.03,-8.91z"/>
   <path class="fil1" d="M263.83 10.1c-1.2,2.89 -3.06,3.58 -4.64,6.25 -5.98,10.11 -5.19,15.18 -5.2,25.8 -0,4.64 -0.31,22.11 0.33,26.05l2.81 8.94c1.1,2.28 1.07,0.8 1.28,3.47 0.68,0.54 4.53,5.97 8.03,8.57 1.14,0.84 2.86,1.5 3.49,1.94 8.86,3.97 10.59,3.83 20.77,3.83 8.22,-0 16.45,0.14 24.69,0.15l42.7 -0.38c2.33,-0.35 2.49,-1.19 5.24,-1.11 4.07,0.16 13.55,-7.86 16.65,-12.94 5.26,-8.62 4.41,-14.11 4.41,-26.17 0,-6.49 0.74,-25.25 -0.7,-29.92 -1.1,-3.56 -2.79,-7.53 -4.99,-10.13 -0.67,-0.79 -1.09,-1.61 -1.6,-2.24l-3.74 -3.76c-9.59,-6.42 -15.73,-6.79 -27.12,-6.79l-64.56 0.09 -8.92 2.52c-5.95,2.44 -7.5,5.34 -8.95,5.83z"/>
   <path class="fil2" d="M136.78 395.36c1.26,1.37 1.1,2.7 1.47,4.52 12.5,-0.08 23.73,-1.48 36.6,-1.48 24.97,-0 51.14,-0.33 75.97,0.03l31.34 1.83c0.02,0 2.06,0.31 2.07,0.31 4.72,0.12 1.43,-6.49 1.11,-11.39 -0.34,-1.23 -0.15,-2.57 -0.52,-4.02 -1.95,-7.55 -0.37,-4.11 -1.95,-10.83 -0.58,-2.45 -0.19,-5.11 -1.23,-7.42 -1.48,-3.27 -0.59,-3.99 -1.43,-7.11 -1.82,-1.14 -3.2,-0.72 -4.99,-2.08 -1.24,-0.94 -2.5,-2.55 -2.76,-4.54 -0.95,-7.3 3.46,-7.56 4.93,-9.05 -0.72,-2.83 -1.87,-0.65 -1.22,-4.64 -0.28,-1.54 -1.47,-2.76 -2.83,-5.51l-1.27 -2.47c-1.24,-2.6 -2.21,-6.28 -3.69,-8.38 -1.83,-0.49 -2.82,-0.33 -4.94,0.49 -4.36,1.67 -7.11,2.21 -11.2,4.33l-17.05 3.78c-4.67,0.64 -0.73,1.02 -9.56,1.34 -3.31,0.12 -6.11,0.74 -9.27,1.12 -3.68,0.45 -17.24,0.4 -20.12,-0.23 -3.74,-0.82 -5.84,-0.67 -10,-1.01 -2.26,-0.19 -1.56,-0.55 -4.04,-1.05 -1.4,-0.28 -3.33,-0.16 -4.84,-0.46 -1.54,-0.31 -0.94,-0.68 -3.94,-1.19 -9.3,-1.58 -15.11,-4.56 -23.99,-7.35 -0.81,-0.25 -2.39,-1.04 -3.63,-1.55 -1.12,-0.46 -2.52,-1.03 -3.63,-1.58 -1.32,-0.66 -2.04,-0.81 -3.52,-1.67 -2.38,-1.38 -4.82,-3.09 -7.78,-3.29 0.09,3.69 0.04,7.34 0.92,10.6 0.81,3.01 0.55,6.73 0.73,10.21 0.2,3.97 1.16,4.96 1.25,9.46l2.15 29.79c0.89,4.17 1.1,15.58 0.85,20.48z"/>
   <path class="fil3" d="M14.79 61.18c-0.27,8.64 -1.45,29.61 1.68,35.84 1.63,3.23 3.39,6.08 6.09,8.64l3.55 3.06c1.52,1.15 3.73,2.45 5.53,3 6.87,2.11 23.93,1.13 32.56,1.21l25.17 0.03c11.7,0.01 4.36,-4.08 17.35,8.69 1.85,1.81 7.94,8.28 9.57,8.67 0.5,-4.24 0.17,-46.95 0.17,-54.94 -0,-9.45 0.52,-8.75 -1.19,-17.48 -1.47,-8.21 -9.91,-14.52 -18.07,-16.97 -6.97,-2.09 -40.04,-1.05 -51.51,-1.05 -8.64,-0 -14.08,0.16 -21.01,5.01l-3.67 3.88c-2.38,2.43 -4.44,5.58 -5.37,8.85 -0.49,1.75 -0.63,1.37 -0.85,3.57z"/>
   <path class="fil4" d="M125.22 289.17l3.95 18.41c0.23,2.53 0,5.13 0.19,7.58 0.18,2.28 0.9,3.69 1.09,6.19 0.87,11.37 2.55,24.61 3.01,35.16 0.31,7.14 1.23,12.46 1.48,21.36 0.08,2.92 0.54,4.12 0.75,6.64 0.2,2.38 0.33,4.8 0.42,7.11l0.52 7c0.02,-0.06 0.09,0.28 0.16,0.4l-0.01 -3.66c0.24,-4.9 0.04,-16.32 -0.85,-20.48l-2.15 -29.79c-0.1,-4.5 -1.05,-5.49 -1.25,-9.46 -0.17,-3.49 0.09,-7.2 -0.73,-10.21 -0.88,-3.27 -0.83,-6.92 -0.92,-10.6 2.96,0.2 5.41,1.91 7.78,3.29 1.48,0.86 2.19,1.01 3.52,1.67 1.12,0.56 2.51,1.12 3.63,1.58 1.24,0.51 2.82,1.3 3.63,1.55 8.87,2.78 14.68,5.77 23.99,7.35 3.01,0.51 2.4,0.89 3.94,1.19 1.52,0.3 3.44,0.18 4.84,0.46 2.48,0.5 1.77,0.86 4.04,1.05 4.15,0.34 6.26,0.19 10,1.01 2.88,0.63 16.44,0.68 20.12,0.23 3.16,-0.38 5.96,-1 9.27,-1.12 8.83,-0.32 4.89,-0.7 9.56,-1.34l17.05 -3.78c4.08,-2.12 6.84,-2.65 11.2,-4.33 2.13,-0.82 3.12,-0.97 4.94,-0.49 -0.6,-3.5 -1.04,-1.46 -1.73,-4.64 -1.05,-4.83 -3.8,-9.39 -4.27,-14.23 -0.28,-2.92 -0.99,-2.37 -1.32,-4.83 -0.27,-2 -0.06,-3.81 -0.5,-5.9 -0.87,-4.12 -0.94,-6.89 -0.66,-11.59 -1.08,1.09 -0.28,-0.08 -0.8,1.4 -0.46,1.28 -0.17,2.54 -0.21,4.03 -1.31,1.05 -2.65,1.6 -4.16,2.29l-12.51 4.18c-7.33,2.91 -16.61,4.02 -24.8,4.93 -8.78,0.97 -17.37,-0.16 -25.43,-0.92l-11.6 -1.72 -24.77 -8.43c-3.09,-1.08 1.35,1.03 -1.15,-0.61l-6.09 -3.47c-0.09,-0.05 -0.21,-0.12 -0.3,-0.17l-12.37 -7.97c-2.28,-1.97 -5.75,-2.44 -5.67,-8.23l0.65 -38.96c0.76,-0.4 5.77,-2.75 7.13,-2.03l8.98 9.19c5.93,4.82 19.46,13.56 25.85,15.27 9.46,2.53 17.77,4.13 28.31,3.55 8.81,-0.49 9.74,-1.39 16.17,-2.04 2.45,-0.25 3.13,-0.92 5.24,-1.72 1.43,-0.54 -0.3,-0.08 1.66,-0.71l4.09 -1.51c0.1,-0.06 0.22,-0.12 0.33,-0.18 0.13,-0.07 0.55,-0.25 0.68,-0.32l3.92 -1.76c2.65,-1.39 6.91,-3.15 7.97,-5.89l-3.62 -2.75c-1.14,-1.14 -2.21,-1.64 -3.28,-2.9l-6.21 -6.06 -8.11 4.04c-7.08,2.94 -12.71,4.23 -20.27,4.36 -14.55,0.25 -8.27,-0.21 -16.66,-1.48 -2.45,-0.37 -1.37,-0.47 -3.39,-1.21 -5.83,-2.15 -8.78,-2.8 -13.42,-6.55 -1.52,-1.23 -4.16,-2.14 -5.85,-3.68 -0.07,-0.07 -0.17,-0.16 -0.24,-0.23 -1.27,-1.16 -4.23,-2.34 -3.33,-4.05 0.7,-1.33 9.53,-2.5 13.54,-6.46l3.11 -3.62c-1.76,0.61 -1.31,0.42 -2.59,1.82 -5.02,5.49 -10.86,4.98 -15.33,7.38 -3.07,1.65 -14.43,4.77 -17.41,5.92 -0.11,0.04 -0.23,0.1 -0.35,0.14l-2.08 0.43c-2.69,0.56 -0.21,0.25 -2.58,1.11 -0.93,0.34 -1.77,0.31 -2.79,0.46 -1.92,2.78 -0.98,9.98 -0.99,14.28l-0.04 45.58 -2.72 1.15c-0.73,0.38 -0.75,0.51 -1.18,1.33z"/>
   <path class="fil4" d="M292.08 261.53l0.17 1.79c2.97,1.67 7.07,12.75 7.95,13.84 1.1,-1.28 1.13,-1.96 1.88,-3.29 0.11,-6.35 1.6,-9.35 2.77,-14.46 0.44,-1.92 0.2,-1.34 0.88,-2.8 0.43,-0.91 0.02,0.17 0.44,-0.96 2.06,-5.58 2.92,-8.15 6.42,-13.57l3.06 -4.04c2.14,-2.68 3.7,-8.29 8.04,4.15l1.27 0.24c0.3,4.94 0.35,0.25 1.65,6.25 0.44,2.04 0.26,0.78 0.83,2.14l3.29 13.08c0.15,3 0.04,2.68 0.79,5.14 0.82,2.67 -0.23,5.43 0.06,8.17 0.06,0.57 0.1,0.9 0.28,1.44 0.31,0.98 0.31,0.89 0.65,1.39 0.23,-10.84 -0.97,-4.97 3.54,-11.63 6.7,-9.9 8.35,-12.32 13.56,-23.04l8.37 -21.07c2.76,-8.04 4.22,-16.44 5.2,-24.92 0.25,-2.15 1.03,-2.14 1.25,-6.21 0.38,-7.1 1.04,-29.19 -0.92,-35.63 -0.65,-2.16 -0.33,-4.79 -0.55,-7.14 -0.23,-2.43 -0.95,-3.54 -1.3,-5.78 -0.8,-5.2 -6.36,-23.89 -8.77,-28.42l-2.45 -4.53c-1.36,-2.88 -7.1,-13.5 -7.08,-15.83 3.65,-0.18 7.3,0.01 10.95,-0.1 1.53,-0.05 3.25,-0.12 4.78,-0.32l3.34 -1.05c0.84,-0.57 0.28,-0.07 0.91,-0.77 -2.75,-0.08 -2.91,0.75 -5.24,1.11l-42.7 0.38c-8.24,-0.01 -16.47,-0.15 -24.69,-0.15 -10.18,0 -11.91,0.14 -20.77,-3.83 0.58,2.08 3.55,2.85 5.92,3.28 1.51,0.27 1.76,0.59 3.14,0.99 3.82,1.12 16.18,-0.42 19.74,1.04 2.24,0.92 5.52,6.03 8.04,8.95l1.2 1.54c0.05,0.09 0.11,0.22 0.16,0.31 0.05,0.09 0.11,0.22 0.16,0.32l5.67 8.72c1.67,2 4.27,7.93 5.24,10.3 0.85,2.1 1.86,4.35 2.54,6.05 0.17,0.43 0.21,0.62 0.41,1.06 1.51,3.38 4.8,15.05 5.34,17.86l1.47 7c1.24,11.53 1.48,10.56 1.41,23.7 -0.04,7.88 -1.11,8.26 -1.32,11.36 -0.51,7.56 -0.34,2.82 -1.19,6.83 -0.29,1.36 -0.16,2.64 -0.45,3.95l-5.46 15.66 -11.22 22.72c-0.43,0.71 -0.97,1.44 -1.46,2.29l-14.78 18.26 -2.43 -1.77z"/>
   <path class="fil1" d="M167.72 185.67c-0.72,2.24 -5.82,6.71 -7.55,8.45l-3.52 3.68c-2.98,3.24 -15.04,4.71 -19.33,4.92 -3.29,0.17 -3.81,0.97 -6.63,1.17 -1.37,0.09 -2.03,-0.08 -3.38,0.27 -2.1,0.55 -0.62,0.6 -3.14,1.07l-4.62 0.26c-1.27,1.77 -3.17,1.57 -5.95,1.6 -2.38,0.03 -4.76,0.07 -7.14,0.09 -12.72,0.12 -8.25,1.21 -12.8,1.34 -3.31,0.09 -3.87,0.34 -6.02,1.85l-1.98 1.85c-3.88,5.63 -4.65,4.89 -6.55,8.1l-1.04 2.26c3.04,-2.34 2.88,-4.43 5.59,-5.67 1.07,2.38 -0.64,3.67 -0.95,6.14l-2.34 12.86c-0.58,2.09 -0.63,4.23 -1.13,6.48 -0.53,2.36 -0.61,3.9 -1.03,6.68l-2.51 12.65c-0.37,2.24 -0.19,4.68 -1.54,5.88 -2.54,-0.78 -1.49,-4.78 -2.64,-1.82 0.74,0.94 0.45,0.7 1.03,1.64 0.95,1.53 -0.98,-1.45 0.37,0.6 0.05,0.08 0.14,0.19 0.2,0.27 2.55,3.79 -0.37,6.63 0.02,9.3 0.2,1.4 1.3,2.78 1.99,3.86l4.92 4.96c0.08,0.05 0.21,0.11 0.3,0.16 0.09,0.05 0.22,0.11 0.32,0.16l3.14 1.7c5.03,2.8 7.64,2.9 12.66,4 10.91,2.37 26.4,-3.22 28.74,-3.26 0.43,-0.82 0.45,-0.95 1.18,-1.33l2.72 -1.15 0.04 -45.58c0.01,-4.3 -0.93,-11.5 0.99,-14.28 1.02,-0.14 1.86,-0.12 2.79,-0.46 2.37,-0.86 -0.1,-0.55 2.58,-1.11l2.08 -0.43c0.12,-0.04 0.24,-0.1 0.35,-0.14 2.98,-1.15 14.34,-4.27 17.41,-5.92 4.47,-2.4 10.31,-1.88 15.33,-7.38 1.28,-1.4 0.83,-1.21 2.59,-1.82 0.22,-1.22 6.8,-8.97 8.53,-11.32l14.1 -20.09c0.91,-2.84 0.18,-0.61 1.91,-2.81 0.61,-0.77 1.12,-2.17 1.67,-3.23l-0.88 -0.43c-2.75,-0.29 -2.95,-1.52 -5.26,-2.8l-0.64 -0.32c-2.28,-1.22 -3.87,-2.78 -6,-3.72 -0.1,0.08 -0.24,0.19 -0.32,0.25l-0.62 0.48c-0.36,0.29 -0.49,0.39 -0.82,0.67l-17.24 19.44z"/>
   <path class="fil4" d="M115.27 57.91c2.03,1.93 1.47,4.44 1.45,7.99 -0.05,8.18 -0.32,23.1 0.13,30.06 0.11,-0.08 0.26,-0.32 0.31,-0.23l11.49 -11c0.66,-0.64 0.67,-0.7 1.44,-1.42 0.89,-0.83 0.5,-0.52 1.6,-1.14 4.36,-2.45 2.91,-2.24 4.84,-3.8 0.03,-0.02 1.61,-0.97 1.72,-1.03l7.08 -4.78c1.35,-0.65 1.49,-0.12 3.96,-1.85l11.32 -5.59c1.74,-0.54 2.16,-0.87 4.29,-1.47 8.62,-2.43 18.6,-6.39 27.98,-6.82 14.75,-0.67 16.72,-1.69 32.61,0.19 4.35,0.51 17.57,3.49 21.09,5.02 0.83,0.36 6,1.77 6.48,2.43 0.61,0.84 0.7,12.03 5.36,16.14 -0.21,-2.67 -0.18,-1.2 -1.28,-3.47l-2.81 -8.94c-0.64,-3.94 -0.33,-21.41 -0.33,-26.05 0.01,-10.63 -0.78,-15.7 5.2,-25.8 1.58,-2.67 3.45,-3.36 4.64,-6.25 -2.21,0.53 -0.68,-0.41 -2.31,1.47l-4.58 6.87c-3.44,5.14 -1.15,5.08 -3.74,8.61 -2.91,-0.12 -2.17,-0.2 -4.19,-1.09 -3,-1.33 -6.56,-1.52 -9.01,-1.91 -1.46,-0.23 -3.16,-0.88 -4.51,-1.1 -1.63,-0.26 -3.33,-0.1 -4.94,-0.43 -12.94,-2.65 -23.94,-1.37 -36.22,-1.15l-23.46 3.97c-4.08,1.03 -1.66,-0.39 -8.8,2.17 -3.98,1.42 -12.64,4.11 -16.44,5.91 -1.25,0.59 -2.65,1.27 -4,1.77 -1.21,0.45 -0.67,0.2 -1.64,0.67l-25.82 15.8c-0.96,4.65 0.54,-0.15 1.12,6.26z"/>
   <path class="fil5" d="M285.35 389.19c2.22,1.32 1.02,2.83 1.48,5.8 0.48,3.11 1.19,1.2 1.16,6.11 -0.02,3.74 -0.11,4.29 0.78,7.09 0.71,2.25 0.14,4.04 1.1,6.55 0.16,0.43 0.79,1.96 1,2.36 1.35,2.56 3.22,4.27 5.61,5.75 3.17,1.96 8.8,1.7 13.7,1.66 8.18,-0.07 20.87,2.77 27.67,-0.99l0.86 -0.55c1.86,-1.18 3.7,-2.72 4.9,-4.56 1.79,-2.73 2.77,-5.43 2.82,-8.76 0.05,-2.84 0.54,-4.5 0.61,-6.94 -0.25,0.33 -0.32,0.3 -0.63,1 -1.37,3.12 0.36,10.7 -5.61,16.15 -5.39,4.93 -9.58,4.54 -19.09,4.32 1.59,-2.21 -0.78,-0.53 1.88,-1.97 5.82,-3.15 8.06,-9.13 8.42,-15.4 0.2,-3.54 0.91,-5.23 1.32,-8.19l2.86 -16.05c0.77,-8.31 0.92,-5.05 1.36,-8.12 1.59,-11.11 1.87,-8.81 -12.67,-8.8 -8.6,0 -38.21,0.6 -42.61,-0.25 -3.59,-7.93 2.54,-5.49 16.49,-5.52 14.72,-0.03 41.89,-0.7 54,0.06 0.74,5.44 -5.41,31.75 -5.65,39.04l0.96 0c0.25,-1.56 0.79,-2.89 0.97,-4.61l2.51 -14.94c0.49,-1.71 0.29,-3.58 0.5,-5.38 0.3,-2.61 0.95,-1.86 1.2,-4.74 1.35,-15.82 2.07,-7.81 6.93,-12.23 3.91,-3.56 2.84,-12.56 -5.01,-12.94l0.24 -2.2 -2.76 2.45c-2.31,1.1 -19.27,-0.12 -22.06,0.09l-8.55 -0.34c-4.46,0.38 -11.35,0.92 -16.17,0.63 -2.65,-0.16 -2.22,-0.62 -4.2,-1.09l-0.33 -3.7c-0.45,4.93 1.15,4.5 -4.45,4.72l-7.15 0.05c-1.8,-0.36 -0.73,0.01 -1.76,-0.73 -1.52,-1.04 -1.59,0.16 -3.95,0.42 -1.36,0.15 -3.6,0.03 -4.99,-0.11 -0.66,-0.99 -1.45,-2.55 -2.1,-3.58 -0.38,-2.18 0.01,-0.73 -0.77,-1.27 -0.65,3.99 0.51,1.82 1.22,4.64 -1.47,1.48 -5.88,1.75 -4.93,9.05 0.26,1.99 1.52,3.6 2.76,4.54 1.79,1.36 3.16,0.94 4.99,2.08 0.84,3.12 -0.04,3.84 1.43,7.11 1.04,2.31 0.66,4.98 1.23,7.42 1.58,6.72 -0,3.27 1.95,10.83 0.37,1.45 0.18,2.79 0.52,4.02z"/>
   <path class="fil6" d="M65.8 341.62c2.04,-1.13 1.45,-3.68 1.72,-6.53l2.63 -14.28c0.82,-8.3 0.87,-3.96 1.36,-7.1 0.56,-3.59 2.56,-19.43 3.56,-21.89 0.99,-2.43 0.59,-5.12 1.49,-6.86 2.6,1.38 1.24,6.65 2.22,9.53 0.85,2.52 0.55,1.45 1.06,4.52 0.37,2.21 2.18,5.56 3.27,8.52 0.84,2.28 1.77,3.07 2.94,5.19l3.83 6.77c1.49,2.66 3.04,5.27 4.07,7.73 1.73,4.15 3.13,5.83 2.56,8.66l-4.44 13.53c-0.63,2.07 -1.36,3.11 -1.04,5.09 1.79,-1.28 1.63,-3.28 3.27,-8.77l3.16 -8.71c0.08,0.1 0.17,0.14 0.2,0.31l4.63 11.03c0.48,1.19 0.81,1.71 1.17,2.53l8.58 28.51c0.58,2.34 1.67,5.03 1.37,6.97l1.05 2.11c0.42,1.1 0.44,1.29 0.76,2.49l4.69 16.66c1.26,2.63 0.69,0.35 1.05,3.94 0.28,2.79 1.07,2.8 1.15,5.69 0.11,3.96 -0.47,9.28 0.33,13.02 4.36,0.47 27.66,0.21 34.88,0.15 5.31,-0.04 5.49,-4.37 1.96,-5.37l0.34 0.67c0.82,2.17 0.68,1.41 0.45,2.95 -1.88,0.53 -34.85,0.6 -36.98,0.13l-0.24 -11.91c3.73,-0.7 12.63,-0.45 16.52,0.57 1.93,0.51 7.32,2.2 8.69,2.02 -1.58,-2.14 -5.79,-2.11 -9.6,-3.3 -0.11,-0.03 -0.28,-0.08 -0.41,-0.15l-1.26 -17c-0.07,-0.13 -0.14,-0.47 -0.16,-0.4l-0.52 -7c-0.09,-2.31 -0.22,-4.73 -0.42,-7.11 -0.21,-2.52 -0.67,-3.72 -0.75,-6.64 -0.25,-8.9 -1.16,-14.22 -1.48,-21.36 -0.47,-10.55 -2.14,-23.79 -3.01,-35.16 -0.19,-2.5 -0.92,-3.91 -1.09,-6.19 -0.19,-2.45 0.04,-5.05 -0.19,-7.58l-3.95 -18.41c-2.35,0.04 -17.83,5.63 -28.74,3.26 -5.02,-1.09 -7.64,-1.2 -12.66,-4l-3.14 -1.7c-0.09,-0.05 -0.23,-0.1 -0.32,-0.16 -0.09,-0.05 -0.22,-0.11 -0.3,-0.16l-4.92 -4.96c0.89,2.6 -1.08,11.75 -1.77,14.93l-6.4 37.29c-0.22,2.82 -0.94,5.3 -1.18,7.94z"/>
   <path class="fil4" d="M54.24 144.57c0.06,2.83 -0.57,4.26 -1.1,6.62 -1.89,8.45 -2.35,31.29 -1.62,39.99 0.98,11.66 1.86,15.33 4.14,25.42l6.14 18.43c0.7,1.56 0.12,-0.16 0.58,1.41 3.19,10.99 4.17,2.79 4.21,15.13 0,1.31 -0.02,2.73 0.29,3.96l1.68 3.09c0.25,-6.69 -3.13,-1.38 0.2,-15.65 0.21,-0.89 1.2,-4.04 1.52,-4.8l2.5 -6.02c0.51,-1.12 0.63,-1.21 1.1,-2.21l2.9 -5.69c0.87,-1.78 -0.53,-1.13 1.29,-1.67l1.04 -2.26c1.89,-3.21 2.66,-2.47 6.55,-8.1l1.98 -1.85c2.15,-1.5 2.72,-1.76 6.02,-1.85 4.55,-0.13 0.08,-1.22 12.8,-1.34 2.38,-0.02 4.76,-0.06 7.14,-0.09 2.78,-0.03 4.68,0.17 5.95,-1.6 -3.17,0 -8.4,0.27 -11.68,0.83l-14.32 0.52 0.21 -4.19c-2.51,-0.13 -3.85,-1.61 -5.8,-2.85 -7.69,-4.87 -10.16,-23.67 -6.04,-32.15 0.81,-1.67 1.97,-3.96 3.26,-5.31 1.86,-1.96 2.85,-2.1 4.49,-3.84l-1.71 -0.5c0.08,-1.73 0.12,-5.48 0.41,-6.99 0.19,-1 0.62,-1.37 0.91,-2.21 0.77,-2.18 3.7,-14.03 5.3,-16.95 0.07,-0.12 0.28,-0.49 0.34,-0.62l4.4 -9.45c1.24,-2.76 1.71,-1.47 1.76,-5.39 -3.57,-2.41 -0.84,-3.06 -7.43,-2.83 -3.15,0.1 -6.34,0.04 -9.5,0.04 -4.04,0 -17.6,-1.63 -19.5,1.22 -2.13,3.19 -4.97,13.47 -6.72,17.95 -0.67,1.71 -0.46,3 -0.96,4.39 -2.18,6 -0.54,5.81 -2.73,7.41z"/>
   <path class="fil7" d="M65.8 341.62l-1.62 10.13c-0.09,4.63 -1.1,6.07 -1.24,9.96 -0.06,1.75 0.05,3.17 -0.27,4.88 -0.52,2.75 -0.96,1.58 -1.17,4.58 -0.12,1.76 0.14,3.13 -0.28,4.88 -0.6,2.48 -1.02,1.27 -1.16,4.63 -0.39,9.35 -1.04,4.1 -1.43,9.48 -0.1,1.38 -0.17,3.23 -0.48,4.62 -1.81,8.17 -0.39,5.75 -1.01,10.09 -0.39,2.7 -1.08,0.09 -1.34,4.31 -0.19,3.16 0.06,1.94 -0.75,4.2 -0.52,1.44 -0.73,12.59 -0.27,14.75 0.26,1.23 0.03,0.47 0.4,1.1 1.44,0.76 36.82,1.06 38.19,0.11 4.53,-3.15 -9.03,-8.46 -11.37,-9.46 -0.11,-0.05 -0.23,-0.1 -0.35,-0.14 -4.36,-1.7 -6.8,-1.63 -8.68,-2.33 -1.02,-0.38 -2.43,-0.89 -3.19,-1.55l7.14 -18.2c0.58,-1.94 0.82,-2 1.42,-3.72l3.14 -7.61c-0.41,-2.61 1.92,-5.12 2.41,-7.58 1.03,-5.14 2.78,-10.31 4.94,-15.08 0.04,-0.1 0.11,-0.22 0.15,-0.32 0.97,-2.19 0.46,-2.86 1.14,-4.64 0.77,-2 1.16,-1.12 0.9,-4.2 -0.31,-1.98 0.42,-3.02 1.04,-5.09l4.44 -13.53c0.57,-2.84 -0.83,-4.51 -2.56,-8.66 -1.03,-2.46 -2.58,-5.07 -4.07,-7.73l-3.83 -6.77c-1.17,-2.12 -2.09,-2.91 -2.94,-5.19 -1.09,-2.95 -2.9,-6.3 -3.27,-8.52 -0.51,-3.07 -0.21,-2 -1.06,-4.52 -0.97,-2.88 0.38,-8.15 -2.22,-9.53 -0.9,1.74 -0.51,4.44 -1.49,6.86 -1,2.46 -3,18.31 -3.56,21.89 -0.49,3.14 -0.54,-1.2 -1.36,7.1l-2.63 14.28c-0.27,2.84 0.32,5.39 -1.72,6.53z"/>
   <path class="fil8" d="M302.08 273.86c-0.11,4.56 -1.51,3.24 -1.53,7.56 -0.01,3.08 0.04,6.59 -0.34,9.37 -0.46,3.37 -0.62,4.85 -0.62,8.71 0,9.15 0.47,4.82 0.82,8.5 0.98,10.2 -1.39,9.54 1.32,20.02 0.46,1.79 0.13,3.91 0.65,6.54 0.39,1.95 0.72,1.68 0.95,3.85 0.17,1.65 0.18,3.26 0.42,4.5 1.92,1.59 3.65,1.09 6.89,1.08 8.94,-0.02 8.89,1.51 8.55,-6.02 -0.22,-4.88 -0.19,-12.44 -0.8,-16.27 -1.07,-6.72 -0.84,-15.5 -0.8,-22.67 0.05,-10.86 -0.58,-6.85 -0.92,-10.89 -0.3,-3.58 -0.41,-7.32 -0.46,-10.95 -0.06,-3.81 -0.12,-7.59 -0.09,-11.4l0.03 -8.6c0.39,-2.69 -0.2,-1.32 1.15,-1.85 2.56,4.78 -0.98,26.23 1.26,34.39 1.01,3.7 0.63,17.85 0.75,22.6 0.09,3.67 1.12,6.13 1.23,9.94 0.38,12.65 -0.36,9.59 1.51,21.89 3.6,-0.57 3.48,-1.06 4.83,-4.23 1.65,-3.88 3.2,-8.29 3.57,-12.44 0.16,-2.1 0.68,-3.36 1.05,-5.37 0.71,-3.77 1.57,-25.7 1.06,-28.7 -1.16,-6.77 -0.35,-12.74 -0.95,-17.18 -0.19,-1.4 -0.83,-3.36 -1.03,-4.95 -0.26,-2.11 -0.06,-3.84 -0.56,-5.7 -0.45,-1.64 -0.91,-2.34 -1.02,-4.53 -0.24,-4.9 -0.84,-3.69 -1.26,-5.07 -0.56,-1.86 -0.24,-2.62 -1.05,-4.79l-3 -9.01c-4.33,-12.44 -5.9,-6.83 -8.04,-4.15l-3.06 4.04c-3.5,5.42 -4.36,7.99 -6.42,13.57 -0.42,1.14 -0.01,0.05 -0.44,0.96 -0.69,1.45 -0.44,0.87 -0.88,2.8 -1.17,5.11 -2.65,8.11 -2.77,14.46z"/>
   <path class="fil4" d="M118.77 154.46c1.46,-0.62 1.69,-0.94 2.58,-1.99 2.88,-3.38 2.61,-2.66 4.05,-0.47 0.44,0.68 0.76,1.17 1.26,2 2.17,3.55 2.52,10.51 -1.08,14.55l-1.73 0.58c-1.3,-0.24 0.35,0.01 -0.98,-0.26 -1.66,-0.34 -14.48,-0.63 -15.75,0.22l16 -0.15 0.87 2.08 1.12 0.24c0.17,3.51 0.73,15.54 -0.23,18.1 -1.46,3.87 -3.02,3.7 -2.34,7.03l2.25 7.21c-0.76,1.03 -0.24,0.2 -0.61,1.64 2.52,-0.47 1.04,-0.52 3.14,-1.07 1.34,-0.35 2.01,-0.17 3.38,-0.27 2.82,-0.19 3.34,-1 6.63,-1.17 4.29,-0.22 16.36,-1.68 19.33,-4.92l3.52 -3.68c1.73,-1.74 6.82,-6.21 7.55,-8.45l-1.5 0.25c-0.82,2.32 -6.3,7.21 -9.06,9.99 -1.83,1.85 -3.15,2.81 -5.81,3.39 -2.93,0.64 -5,1.65 -8.31,1.64 -1.06,-1.23 -0.85,-1.95 -1.42,-3.16 -0.17,-0.37 -4.45,-4.19 -3.83,-26.02 0.11,-3.89 0.92,-4.34 1.31,-7.15 0.84,-6 2.49,-8.24 4.32,-12.8 1.67,-4.16 7.14,-11.85 10.11,-15.11 1.32,-1.44 2.66,-2.85 4.49,-4.14l11.57 -7.86c0.24,-0.14 1.07,-0.61 1.21,-0.69l9.21 -3.62c1.57,-0.47 1.58,-0.63 3.4,-0.97 1.69,-0.32 1.36,0.05 2.7,-0.82 1.21,-3.17 0.56,-13.94 -0.08,-17.35 -4.12,-0.34 -18.51,4.19 -22.84,7.13 -3.3,2.23 -10.1,5.81 -13.81,8.94 -0.82,0.69 -1.33,0.86 -2.24,1.57l-9.37 9.13c-1.21,1.46 -1.97,3 -3.12,4.54l-4.01 5.39c-1.71,2.85 -3.45,5.62 -4.54,8.64 -1.2,3.33 -2.21,0.65 -4.29,3.46 -0.88,1.19 -2.63,2.94 -3.05,4.4z"/>
   <path class="fil2" d="M91.02 354.49c0.27,3.08 -0.13,2.2 -0.9,4.2 -0.69,1.79 -0.18,2.46 -1.14,4.64 -0.04,0.1 -0.11,0.22 -0.15,0.32 -2.16,4.77 -3.91,9.94 -4.94,15.08 -0.49,2.46 -2.82,4.97 -2.41,7.58 0.7,2.26 -3.29,10.97 -4.15,14.35 -0.52,2.06 0.05,0.03 -0.37,1.11 -0.04,0.11 -0.11,0.21 -0.15,0.32l-0.98 4.19c2.03,-0.34 2.43,-0.84 4.54,-0.97 7.39,-0.45 2.8,0.18 10.6,-0.98 1.83,-0.27 3.63,-0.09 5.46,-0.32l14.82 -1.7c1.62,-0.13 3.54,-0.19 4.87,-1.17 0.12,-5.2 -3.6,-10.79 -2.72,-14.76 0.3,-1.94 -0.79,-4.62 -1.37,-6.97l-8.58 -28.51c-0.36,-0.83 -0.7,-1.35 -1.17,-2.53l-4.63 -11.03c-0.03,-0.17 -0.12,-0.22 -0.2,-0.31l-3.16 8.71c-1.63,5.49 -1.48,7.49 -3.27,8.77z"/>
   <path class="fil1" d="M279.28 302.09c0.89,2.47 3.09,4.78 4.11,6.71l3.2 5.75c0.19,0.33 0.5,0.89 0.68,1.24 2.67,5.09 9.57,22.51 9.13,27.87 -11.09,0.94 -8.27,0.25 -14.79,-13.71l-7.08 -17.14c-1.75,-3.54 -3.97,-10.58 -5.48,-13.98 -1.62,-3.65 -0.71,-2.64 -2.1,-2.98 -1.08,1.92 0.47,4.12 1.09,5.97 1.83,5.43 5.11,12.34 7.28,18.27l7.7 17.48c0.96,1.89 2.19,3.94 1.82,6.33 -8.67,0.45 -4.51,-1.1 -7.91,-3.12 0.65,1.03 1.44,2.59 2.1,3.58 1.39,0.14 3.62,0.26 4.99,0.11 2.36,-0.26 2.43,-1.46 3.95,-0.42 7.25,-0.15 13.2,1.35 12.31,-2.99l-11.51 -53.07c-0.47,-1.55 -0.81,0.44 -1.16,-5.11l-3.83 -20.64c1.15,0.4 2.33,0.05 2.98,4.5 0.15,1.02 0.08,1.79 0.35,2.72 0.35,1.21 0.51,0.85 0.8,1.82 0.54,1.83 0.14,3.9 0.63,5.77 0.55,2.06 0.74,0.17 1.14,4.96 0.24,2.88 0.86,2.76 1.26,5.16 0.43,2.58 -0.09,2.8 0.82,5.12 0.96,2.44 0.51,3.11 0.9,5.6l2.46 10.21c0.47,2.17 0.07,3.5 0.76,5.38 0.93,2.53 0.77,2.31 0.96,5.51 0.2,3.45 0.92,0.53 1.37,4.75 0.36,3.35 0.45,2.19 1.13,4.85l2.2 10.01c2.2,4.56 -0.3,3.63 2.21,4.33 -0.25,-1.24 -0.25,-2.85 -0.42,-4.5 -0.23,-2.16 -0.56,-1.89 -0.95,-3.85 -0.52,-2.62 -0.19,-4.75 -0.65,-6.54 -2.71,-10.48 -0.34,-9.82 -1.32,-20.02 -0.35,-3.68 -0.82,0.65 -0.82,-8.5 0,-3.86 0.16,-5.34 0.62,-8.71 0.38,-2.79 0.33,-6.3 0.34,-9.37 0.02,-4.32 1.42,-3.01 1.53,-7.56 -0.74,1.33 -0.78,2.01 -1.88,3.29 -0.88,-1.09 -4.99,-12.17 -7.95,-13.84l-0.17 -1.79c-0.69,-1.11 -1.86,-2.04 -2.27,-3.49l-6.7 -6.88c-3.91,3.28 -0.91,5.5 -2.62,12.64 -0.83,3.48 -1.36,17.39 -0.81,21.9l2.51 19.55c-1.26,-0.04 -0.37,0.02 -1.37,-1.46 -0.06,-0.09 -0.14,-0.22 -0.21,-0.31l-1.01 -1.16c-1.79,-1.6 -0.13,-0.17 -0.33,-0.23z"/>
   <path class="fil4" d="M347.05 402.73l0.07 -3.73c0.24,-7.29 6.4,-33.61 5.65,-39.04 -12.12,-0.76 -39.28,-0.09 -54,-0.06 -13.95,0.02 -20.08,-2.41 -16.49,5.52 4.4,0.85 34,0.25 42.61,0.25 14.54,-0 14.26,-2.31 12.67,8.8 -0.44,3.07 -0.59,-0.19 -1.36,8.12l-2.86 16.05c-0.41,2.96 -1.12,4.65 -1.32,8.19 -0.36,6.27 -2.6,12.25 -8.42,15.4 -2.66,1.44 -0.29,-0.24 -1.88,1.97 9.51,0.22 13.7,0.61 19.09,-4.32 5.97,-5.45 4.24,-13.03 5.61,-16.15 0.31,-0.7 0.38,-0.67 0.63,-1z"/>
   <path class="fil8" d="M351.19 313.3c-0.96,1.72 -5.75,4.52 -9.82,8.86l-4.49 4.54c-0.73,0.79 -1.46,1.76 -2.14,2.57 -1.06,1.26 -0.97,1.46 -2.57,2.22 -0.05,1.59 -0.37,1.4 -0.87,2.38 -0.66,1.3 -0.62,1.9 -1.18,3.22 -0.3,0.71 -0.22,0.37 -0.61,1.25 -1.21,2.76 -1.55,3.11 -1.49,5.51 1.82,-0.12 2.55,-0.51 3.87,-1.71 10.79,-9.84 24.09,-23.64 34.8,-33.13 1.95,-1.73 3.76,-4.49 6.3,-4.9 -0.07,2.39 -1.5,3 -4.21,5.59l-15.42 14.46c-3.19,3.04 -6.66,6.57 -10.22,9.77 -1.72,1.55 -3.31,3.12 -5.11,4.85 -1.17,1.12 -4.24,3.55 -4.39,5.11 2.26,0.24 15.94,0.4 17.75,0.04 3.42,-0.69 6.05,-7.09 9.47,-8.88l8.08 -11c0.47,-0.75 1.11,-1.29 1.7,-2.06 1.11,-1.44 0.59,-1.28 1.35,-2.49 0.2,-0.32 1.41,-1.63 1.88,-2.37 2.7,-4.26 9.9,-17.75 10.24,-22.22 -4.19,0.31 -15.72,6.57 -19.7,9.03 -0.89,0.55 -1.38,0.66 -2.17,1.14 -1.44,0.88 -1.92,2.01 -5.33,4.11 -2.47,1.52 -3.81,3.61 -5.72,4.11z"/>
   <path class="fil8" d="M118.77 154.46c-6.86,5.77 -13.15,0.24 -22.56,2.29l-6.54 1.76c-1.64,1.74 -2.63,1.88 -4.49,3.84 -1.29,1.35 -2.45,3.64 -3.26,5.31 -4.12,8.48 -1.65,27.28 6.04,32.15 1.96,1.24 3.3,2.72 5.8,2.85l0.08 -12.83c-0.87,-2.1 0.2,-0.08 -1.31,-1.83 -1.68,-1.95 -0.97,-0.02 -1.31,-1.49 -0.22,-3.73 -0.14,-4.03 1.43,-6.23 3.95,-5.54 3.56,4.32 11.73,-7.71l0.78 -1.13c0.71,-1.05 1.15,-1.53 1.93,-2.34 1.27,-0.85 14.08,-0.56 15.75,-0.22 1.33,0.28 -0.32,0.03 0.98,0.26l1.73 -0.58c3.59,-4.04 3.25,-11 1.08,-14.55 -0.5,-0.82 -0.82,-1.32 -1.26,-2 -1.44,-2.19 -1.17,-2.91 -4.05,0.47 -0.89,1.04 -1.12,1.37 -2.58,1.99z"/>
   <path class="fil8" d="M268.38 323.13c1.48,2.1 2.45,5.78 3.69,8.38l1.27 2.47c1.36,2.75 2.55,3.97 2.83,5.51 0.77,0.54 0.38,-0.91 0.77,1.27 3.4,2.03 -0.76,3.57 7.91,3.12 0.38,-2.39 -0.85,-4.44 -1.82,-6.33l-7.7 -17.48c-2.17,-5.93 -5.46,-12.85 -7.28,-18.27 -0.62,-1.85 -2.18,-4.05 -1.09,-5.97 1.38,0.34 0.47,-0.67 2.1,2.98 1.51,3.39 3.72,10.44 5.48,13.98l7.08 17.14c6.52,13.96 3.7,14.65 14.79,13.71 0.44,-5.36 -6.46,-22.78 -9.13,-27.87 -0.18,-0.35 -0.49,-0.91 -0.68,-1.24l-3.2 -5.75c-1.03,-1.93 -3.23,-4.24 -4.11,-6.71 -2.24,-3.84 -1.52,-2.16 -3.55,-4.68 -0.63,-0.78 -1.06,-1.63 -1.7,-2.55 -2.3,-3.27 -9.65,-9.62 -10.51,-11.01 -0.92,-0.52 -2.7,-1.66 -3.6,-1.9 -0.28,4.69 -0.2,7.47 0.66,11.59 0.44,2.09 0.23,3.9 0.5,5.9 0.33,2.46 1.04,1.91 1.32,4.83 0.47,4.84 3.22,9.41 4.27,14.23 0.69,3.19 1.13,1.15 1.73,4.64z"/>
   <path class="fil9" d="M93.77 202.65l-0.21 4.19 14.32 -0.52c0.35,-1.45 0.32,-5.42 0.53,-6 0.67,-1.83 2.73,-0.75 5.36,-1.32 4.12,-0.89 5.76,-2.08 8.09,-5.18 4.3,-5.72 3.68,-17.82 2.13,-22.82l-0.87 -2.08 -16 0.15c-0.78,0.81 -1.22,1.3 -1.93,2.34l-0.78 1.13c-8.18,12.03 -7.79,2.17 -11.73,7.71 -1.57,2.2 -1.65,2.5 -1.43,6.23 0.33,1.47 -0.37,-0.46 1.31,1.49 1.51,1.75 0.43,-0.26 1.31,1.83l-0.08 12.83z"/>
   <path class="fil1" d="M330.44 327.5c1.14,-0.79 0.91,-0.54 1.35,-3.14l13.47 -34.85c1.97,-4.44 3.48,-10.73 6.06,-11.64 0.88,1.72 0.06,3.63 -1.22,6.49l-3.22 7.66c-0.36,0.7 -0.39,0.81 -0.78,1.63l-2.87 6.62c-1.86,5 -5.27,11.18 -6.7,16.78l-4.38 14.43c1.61,-0.77 1.52,-0.97 2.57,-2.22 0.68,-0.81 1.41,-1.78 2.14,-2.57l4.49 -4.54c4.07,-4.34 8.86,-7.14 9.82,-8.86 -1.52,0.91 -0.45,0.57 -2.29,1.07 0.13,-3.47 2.44,-8.09 3.57,-11.48l3.02 -11.81c1.86,-6.14 2.99,-15.73 2.93,-22.48 -0.05,-5.67 -2.01,-4.17 -7.22,1.65 -1.12,1.25 -1.92,2 -3.04,3.13 -0.67,0.67 -1.03,1.05 -1.6,1.76 -0.49,0.61 -0.79,1.03 -1.57,1.7 -2.26,1.95 -7.38,9.9 -9.11,11.78 -2.17,2.36 -0.46,1.93 -2.27,2.63 -0.55,-1.05 -1.32,-9.73 -1.1,-11.22 -0.34,-0.5 -0.34,-0.41 -0.65,-1.39 -0.17,-0.54 -0.22,-0.87 -0.28,-1.44 -0.29,-2.74 0.76,-5.5 -0.06,-8.17 -0.75,-2.46 -0.65,-2.14 -0.79,-5.14l-3.29 -13.08c-0.58,-1.36 -0.39,-0.1 -0.83,-2.14 -1.29,-6 -1.35,-1.31 -1.65,-6.25l-1.27 -0.24 3 9.01c0.81,2.17 0.49,2.93 1.05,4.79 0.42,1.38 1.01,0.17 1.26,5.07 0.11,2.19 0.58,2.89 1.02,4.53 0.5,1.86 0.3,3.59 0.56,5.7 0.2,1.59 0.84,3.55 1.03,4.95 0.59,4.45 -0.21,10.41 0.95,17.18 0.51,3 -0.35,24.93 -1.06,28.7 -0.38,2.01 -0.89,3.27 -1.05,5.37z"/>
   <path class="fil7" d="M198.62 171.41l0 0.27 0.88 0.43c-0.56,1.06 -1.07,2.47 -1.67,3.23 -1.73,2.19 -1,-0.03 -1.91,2.81 0.63,-1.43 0.09,-0.69 1.8,-0.8 0.12,10.55 1.65,8.1 8.76,15.51 3.42,3.56 26.34,26.95 29.74,29.63 1.45,1.15 2.77,1.89 4.91,0.97 7.27,-3.12 -1.45,-10.47 -1.75,-10.78l-26.86 -26.8c-3.05,-3.28 -4.93,-4.18 -5.09,-6.92l0.03 -17.38 -1 -0.79c-0.03,-0.11 -0.18,-0.05 -0.26,-0.08 -0.72,1.84 -0.3,1.55 -1.23,3.18l-5.12 6.77c-0.65,0.56 -0.31,0.41 -1.21,0.77z"/>
   <path class="fil10" d="M362.63 30.55c-1.36,-2.83 -4.08,-2.04 -8.3,-2.04l-65.05 -0c-4.35,-0.01 -5.82,-0.33 -8.37,2.25 -0.69,4.96 1.04,5.16 5.51,5.15l32.77 -0.01c7.28,-0 14.56,0 21.84,0 6.47,0 15.7,0.54 21.84,-0.29 0.76,-1.98 -0.34,-2.18 1.46,-2.95l-1.44 -1.9c-0.05,-0.05 -0.18,-0.15 -0.27,-0.22z"/>
   <path class="fil7" d="M199.67 150.79c0.87,-2.74 1.82,-4.98 3.25,-6.94 1.24,-1.69 1.08,-2.52 3.11,-4.11 1.2,-0.94 0.65,-0.01 1.35,-1.06l-0 -45.65c-0.58,-4.11 -6.62,-5.15 -8.83,-1.03 -1.8,3.35 -0.82,9.94 -0.82,14.26l0.02 45.19 1.92 -0.65z"/>
   <path class="fil2" d="M362.63 30.55c-12.87,-1.23 -43.6,-0.47 -59.58,-0.47 -5.79,-0 -15.05,-0.54 -20.42,0.27 -0.51,2.32 -0.47,2.67 0.2,4.55 5.61,1.3 31.33,0.31 39.22,0.32 6.19,0 36.4,0.76 39.89,-0.59l0.7 -4.08z"/>
   <path class="fil9" d="M199.67 150.79c-2.59,1.48 -0.45,-0.19 -1.61,2.02 -0.6,-0.89 -0.24,-1.73 -0.83,-2.8 -0.43,-0.79 0.79,-0.45 -1.15,-1.04 -1.84,-0.56 -1.9,0.35 -4.1,4.86 -1.03,2.12 -4.31,8.32 -4.3,10.35 0.85,1.03 9.65,6.73 10.94,7.22 0.89,-0.36 0.55,-0.21 1.21,-0.77l5.12 -6.77c0.94,-1.63 0.52,-1.34 1.23,-3.18 0.09,0.03 0.23,-0.03 0.26,0.08l1 0.79 1.87 -7.49c0.33,-0.99 0.34,-0.46 0.65,-2.15 0.52,-2.87 0.27,-8.13 0.08,-11.48 -2.42,-0.89 -0.11,-0.57 -2.65,-1.77 -0.7,1.05 -0.16,0.13 -1.35,1.06 -2.03,1.59 -1.87,2.41 -3.11,4.11 -1.43,1.96 -2.38,4.21 -3.25,6.94z"/>
   <path class="fil11" d="M78.09 222.59c-1.82,0.54 -0.42,-0.11 -1.29,1.67l-2.9 5.69c-0.47,0.99 -0.6,1.09 -1.1,2.21l-2.5 6.02c-0.32,0.76 -1.31,3.91 -1.52,4.8 -3.33,14.27 0.05,8.96 -0.2,15.65 0.48,1.54 0.11,0.02 0.68,1.15 0.55,1.07 0.33,0.82 0.75,2.06 0.51,1.49 1.07,2.49 1.53,3.98 1.15,-2.96 0.1,1.04 2.64,1.82 1.35,-1.21 1.17,-3.64 1.54,-5.88l2.51 -12.65c0.42,-2.78 0.5,-4.32 1.03,-6.68 0.5,-2.25 0.55,-4.39 1.13,-6.48l2.34 -12.86c0.3,-2.47 2.02,-3.76 0.95,-6.14 -2.71,1.24 -2.54,3.33 -5.59,5.67z"/>
   <path class="fil7" d="M159.28 425.04c-0.88,-1.43 -2.96,-2.25 -5.02,-3.27 -2.05,-1.01 -3.9,-2.11 -6.2,-2.3 -1.37,0.18 -6.75,-1.51 -8.69,-2.02 -3.89,-1.02 -12.78,-1.26 -16.52,-0.57l0.24 11.91c2.13,0.47 35.1,0.4 36.98,-0.13 0.24,-1.55 0.37,-0.79 -0.45,-2.95l-0.34 -0.67z"/>
   <path class="fil2" d="M280.98 47.08l0.01 2.88c1.65,1.18 2.95,1.38 5.45,1.38l54.6 0c2.7,0 4.62,0.12 4.95,-2.57 0.43,-3.53 -1.59,-3.18 -4.47,-3.18 -14.1,0 -47.48,-0.59 -59.43,0.23 -0.56,1.04 -0.14,0.56 -1.1,1.25z"/>
   <path class="fil2" d="M285.96 66.76l47.48 0c4.42,-0 4.54,-1.15 3.89,-5.7 -1.97,-0.85 -1.52,-0.97 -4.36,-0.97l-46.53 0c-6.55,-0 -5.88,4.32 -3.94,5.94 1.2,1.01 1.5,0.74 3.47,0.74z"/>
   <path class="fil12" d="M303.76 342.92c-2.51,-0.71 -0.01,0.23 -2.21,-4.33l-2.2 -10.01c-0.68,-2.66 -0.77,-1.5 -1.13,-4.85 -0.45,-4.22 -1.17,-1.29 -1.37,-4.75 -0.19,-3.2 -0.03,-2.98 -0.96,-5.51 -0.7,-1.89 -0.29,-3.22 -0.76,-5.38l-2.46 -10.21c-0.39,-2.49 0.07,-3.16 -0.9,-5.6 -0.91,-2.31 -0.39,-2.53 -0.82,-5.12 -0.4,-2.4 -1.02,-2.27 -1.26,-5.16 -0.4,-4.79 -0.6,-2.89 -1.14,-4.96 -0.5,-1.87 -0.09,-3.95 -0.63,-5.77 -0.29,-0.97 -0.45,-0.61 -0.8,-1.82 -0.27,-0.93 -0.2,-1.71 -0.35,-2.72 -0.65,-4.46 -1.83,-4.1 -2.98,-4.5l3.83 20.64c0.35,5.55 0.69,3.56 1.16,5.11l11.51 53.07c0.89,4.34 -5.06,2.84 -12.31,2.99 1.02,0.74 -0.05,0.37 1.76,0.73l7.15 -0.05c5.59,-0.22 4,0.21 4.45,-4.72l0.33 3.7c1.98,0.47 1.55,0.93 4.2,1.09 4.82,0.29 11.71,-0.25 16.17,-0.63 -1.87,-12.3 -1.12,-9.23 -1.51,-21.89 -0.12,-3.81 -1.14,-6.26 -1.23,-9.94 -0.12,-4.76 0.27,-18.9 -0.75,-22.6 -2.24,-8.16 1.3,-29.61 -1.26,-34.39 -1.35,0.53 -0.75,-0.84 -1.15,1.85l-0.03 8.6c-0.03,3.81 0.03,7.59 0.09,11.4 0.06,3.63 0.16,7.37 0.46,10.95 0.34,4.04 0.97,0.02 0.92,10.89 -0.03,7.18 -0.27,15.96 0.8,22.67 0.61,3.83 0.59,11.39 0.8,16.27 0.33,7.53 0.39,6 -8.55,6.02 -3.24,0.01 -4.97,0.51 -6.89,-1.08z"/>
   <path class="fil12" d="M330.44 327.5c-0.37,4.14 -1.92,8.55 -3.57,12.44 -1.35,3.17 -1.23,3.66 -4.83,4.23l8.55 0.34c2.8,-0.2 19.76,1.02 22.06,-0.09l2.76 -2.45c1.44,-1.39 4.78,-5.02 5.45,-6.93 -3.42,1.79 -6.05,8.19 -9.47,8.88 -1.81,0.36 -15.5,0.2 -17.75,-0.04 0.15,-1.56 3.22,-3.99 4.39,-5.11 1.8,-1.73 3.39,-3.3 5.11,-4.85 3.55,-3.2 7.03,-6.73 10.22,-9.77l15.42 -14.46c2.71,-2.59 4.14,-3.2 4.21,-5.59 -2.53,0.41 -4.35,3.17 -6.3,4.9 -10.71,9.49 -24.01,23.29 -34.8,33.13 -1.32,1.2 -2.05,1.59 -3.87,1.71 -0.06,-2.4 0.28,-2.74 1.49,-5.51 0.39,-0.89 0.31,-0.54 0.61,-1.25 0.56,-1.32 0.53,-1.92 1.18,-3.22 0.5,-0.98 0.81,-0.79 0.87,-2.38l4.38 -14.43c1.43,-5.6 4.84,-11.78 6.7,-16.78l2.87 -6.62c0.38,-0.82 0.42,-0.93 0.78,-1.63l3.22 -7.66c1.28,-2.86 2.1,-4.77 1.22,-6.49 -2.58,0.91 -4.08,7.2 -6.06,11.64l-13.47 34.85c-0.44,2.6 -0.21,2.35 -1.35,3.14z"/>
   <path class="fil4" d="M263.51 283.84c0.86,1.4 8.21,7.75 10.51,11.01 0.64,0.91 1.07,1.76 1.7,2.55 2.04,2.52 1.31,0.84 3.55,4.68 0.19,0.06 -1.47,-1.37 0.33,0.23l1.01 1.16c0.07,0.09 0.14,0.22 0.21,0.31 1,1.48 0.11,1.42 1.37,1.46l-2.51 -19.55c-0.56,-4.51 -0.02,-18.42 0.81,-21.9 1.7,-7.14 -1.3,-9.36 2.62,-12.64l6.7 6.88c-0.32,-1.97 -4.54,-8.41 -8.38,-9.58l-2.26 12.11c-0.19,4.9 -0.03,9.83 -0.19,14.73l-1 1.08c-0.2,0.22 -0.35,0.4 -0.69,0.72 -1.94,1.81 -6.85,4.7 -9.12,6.07 -1.65,1 -2.38,1.46 -4.66,0.68z"/>
   <path class="fil0" d="M107.88 206.33c3.28,-0.56 8.51,-0.83 11.68,-0.83l4.62 -0.26c0.37,-1.44 -0.14,-0.61 0.61,-1.64l-2.25 -7.21c-0.68,-3.33 0.88,-3.16 2.34,-7.03 0.96,-2.56 0.4,-14.59 0.23,-18.1l-1.12 -0.24c1.55,5 2.17,17.09 -2.13,22.82 -2.33,3.11 -3.98,4.3 -8.09,5.18 -2.63,0.57 -4.69,-0.51 -5.36,1.32 -0.21,0.58 -0.18,4.55 -0.53,6z"/>
   <path class="fil8" d="M38.99 71.55c-2.67,2.2 -2.16,5.62 -1.13,6.95 3.68,4.74 11.86,0.69 8.88,-5.59 -0.95,-2.01 -3.13,-2.23 -5.34,-2.05 -1.63,0.13 -1.48,-0.08 -2.41,0.69z"/>
   <path class="fil8" d="M83.01 71.35c-1.32,0.7 -1.75,1.11 -1.98,3.05 -0.83,7.04 4.78,7.36 7.27,5.61 5.52,-3.89 0.62,-11.8 -5.29,-8.66z"/>
   <path class="fil8" d="M59.98 78.74c2.12,1.46 3.54,3.02 6.77,1.14 1.42,-0.83 1.72,-0.95 2.34,-2.53 1.62,-4.13 -2.47,-7.79 -7.16,-6.23 -2.74,0.91 -2.37,4.28 -1.95,7.62z"/>
  </g>
  <rect class="fil13" y="-0" width="415" height="465.48"/>
 </g>
</svg>
